<?xml version="1.0" encoding="utf-8" standalone="no"?>
<!DOCTYPE svg PUBLIC "-//W3C//DTD SVG 1.1//EN"
  "http://www.w3.org/Graphics/SVG/1.1/DTD/svg11.dtd">
<svg xmlns:xlink="http://www.w3.org/1999/xlink" width="608.98125pt" height="277.114688pt" viewBox="0 0 608.98125 277.114688" xmlns="http://www.w3.org/2000/svg" version="1.1">
 <metadata>
  <rdf:RDF xmlns:dc="http://purl.org/dc/elements/1.1/" xmlns:cc="http://creativecommons.org/ns#" xmlns:rdf="http://www.w3.org/1999/02/22-rdf-syntax-ns#">
   <cc:Work>
    <dc:type rdf:resource="http://purl.org/dc/dcmitype/StillImage"/>
    <dc:date>2025-05-17T01:58:02.654724</dc:date>
    <dc:format>image/svg+xml</dc:format>
    <dc:creator>
     <cc:Agent>
      <dc:title>Matplotlib v3.10.1, https://matplotlib.org/</dc:title>
     </cc:Agent>
    </dc:creator>
   </cc:Work>
  </rdf:RDF>
 </metadata>
 <defs>
  <style type="text/css">*{stroke-linejoin: round; stroke-linecap: butt}</style>
 </defs>
 <g id="figure_1">
  <g id="patch_1">
   <path d="M 0 277.114688 
L 608.98125 277.114688 
L 608.98125 0 
L 0 0 
L 0 277.114688 
z
" style="fill: none"/>
  </g>
  <g id="axes_1">
   <g id="patch_2">
    <path d="M 43.78125 239.558437 
L 601.78125 239.558437 
L 601.78125 17.798437 
L 43.78125 17.798437 
L 43.78125 239.558437 
z
" style="fill: none"/>
   </g>
   <g id="matplotlib.axis_1">
    <g id="xtick_1">
     <g id="line2d_1">
      <defs>
       <path id="mffab8eb382" d="M 0 0 
L 0 3.5 
" style="stroke: #000000; stroke-width: 0.8"/>
      </defs>
      <g>
       <use xlink:href="#mffab8eb382" x="69.144886" y="239.558437" style="stroke: #000000; stroke-width: 0.8"/>
      </g>
     </g>
     <g id="text_1">
      <!-- 0 -->
      <g transform="translate(65.963636 254.156875) scale(0.1 -0.1)">
       <defs>
        <path id="DejaVuSans-30" d="M 2034 4250 
Q 1547 4250 1301 3770 
Q 1056 3291 1056 2328 
Q 1056 1369 1301 889 
Q 1547 409 2034 409 
Q 2525 409 2770 889 
Q 3016 1369 3016 2328 
Q 3016 3291 2770 3770 
Q 2525 4250 2034 4250 
z
M 2034 4750 
Q 2819 4750 3233 4129 
Q 3647 3509 3647 2328 
Q 3647 1150 3233 529 
Q 2819 -91 2034 -91 
Q 1250 -91 836 529 
Q 422 1150 422 2328 
Q 422 3509 836 4129 
Q 1250 4750 2034 4750 
z
" transform="scale(0.015625)"/>
       </defs>
       <use xlink:href="#DejaVuSans-30"/>
      </g>
     </g>
    </g>
    <g id="xtick_2">
     <g id="line2d_2">
      <g>
       <use xlink:href="#mffab8eb382" x="172.669933" y="239.558437" style="stroke: #000000; stroke-width: 0.8"/>
      </g>
     </g>
     <g id="text_2">
      <!-- 10 -->
      <g transform="translate(166.307433 254.156875) scale(0.1 -0.1)">
       <defs>
        <path id="DejaVuSans-31" d="M 794 531 
L 1825 531 
L 1825 4091 
L 703 3866 
L 703 4441 
L 1819 4666 
L 2450 4666 
L 2450 531 
L 3481 531 
L 3481 0 
L 794 0 
L 794 531 
z
" transform="scale(0.015625)"/>
       </defs>
       <use xlink:href="#DejaVuSans-31"/>
       <use xlink:href="#DejaVuSans-30" transform="translate(63.623047 0)"/>
      </g>
     </g>
    </g>
    <g id="xtick_3">
     <g id="line2d_3">
      <g>
       <use xlink:href="#mffab8eb382" x="276.194979" y="239.558437" style="stroke: #000000; stroke-width: 0.8"/>
      </g>
     </g>
     <g id="text_3">
      <!-- 20 -->
      <g transform="translate(269.832479 254.156875) scale(0.1 -0.1)">
       <defs>
        <path id="DejaVuSans-32" d="M 1228 531 
L 3431 531 
L 3431 0 
L 469 0 
L 469 531 
Q 828 903 1448 1529 
Q 2069 2156 2228 2338 
Q 2531 2678 2651 2914 
Q 2772 3150 2772 3378 
Q 2772 3750 2511 3984 
Q 2250 4219 1831 4219 
Q 1534 4219 1204 4116 
Q 875 4013 500 3803 
L 500 4441 
Q 881 4594 1212 4672 
Q 1544 4750 1819 4750 
Q 2544 4750 2975 4387 
Q 3406 4025 3406 3419 
Q 3406 3131 3298 2873 
Q 3191 2616 2906 2266 
Q 2828 2175 2409 1742 
Q 1991 1309 1228 531 
z
" transform="scale(0.015625)"/>
       </defs>
       <use xlink:href="#DejaVuSans-32"/>
       <use xlink:href="#DejaVuSans-30" transform="translate(63.623047 0)"/>
      </g>
     </g>
    </g>
    <g id="xtick_4">
     <g id="line2d_4">
      <g>
       <use xlink:href="#mffab8eb382" x="379.720026" y="239.558437" style="stroke: #000000; stroke-width: 0.8"/>
      </g>
     </g>
     <g id="text_4">
      <!-- 30 -->
      <g transform="translate(373.357526 254.156875) scale(0.1 -0.1)">
       <defs>
        <path id="DejaVuSans-33" d="M 2597 2516 
Q 3050 2419 3304 2112 
Q 3559 1806 3559 1356 
Q 3559 666 3084 287 
Q 2609 -91 1734 -91 
Q 1441 -91 1130 -33 
Q 819 25 488 141 
L 488 750 
Q 750 597 1062 519 
Q 1375 441 1716 441 
Q 2309 441 2620 675 
Q 2931 909 2931 1356 
Q 2931 1769 2642 2001 
Q 2353 2234 1838 2234 
L 1294 2234 
L 1294 2753 
L 1863 2753 
Q 2328 2753 2575 2939 
Q 2822 3125 2822 3475 
Q 2822 3834 2567 4026 
Q 2313 4219 1838 4219 
Q 1578 4219 1281 4162 
Q 984 4106 628 3988 
L 628 4550 
Q 988 4650 1302 4700 
Q 1616 4750 1894 4750 
Q 2613 4750 3031 4423 
Q 3450 4097 3450 3541 
Q 3450 3153 3228 2886 
Q 3006 2619 2597 2516 
z
" transform="scale(0.015625)"/>
       </defs>
       <use xlink:href="#DejaVuSans-33"/>
       <use xlink:href="#DejaVuSans-30" transform="translate(63.623047 0)"/>
      </g>
     </g>
    </g>
    <g id="xtick_5">
     <g id="line2d_5">
      <g>
       <use xlink:href="#mffab8eb382" x="483.245072" y="239.558437" style="stroke: #000000; stroke-width: 0.8"/>
      </g>
     </g>
     <g id="text_5">
      <!-- 40 -->
      <g transform="translate(476.882572 254.156875) scale(0.1 -0.1)">
       <defs>
        <path id="DejaVuSans-34" d="M 2419 4116 
L 825 1625 
L 2419 1625 
L 2419 4116 
z
M 2253 4666 
L 3047 4666 
L 3047 1625 
L 3713 1625 
L 3713 1100 
L 3047 1100 
L 3047 0 
L 2419 0 
L 2419 1100 
L 313 1100 
L 313 1709 
L 2253 4666 
z
" transform="scale(0.015625)"/>
       </defs>
       <use xlink:href="#DejaVuSans-34"/>
       <use xlink:href="#DejaVuSans-30" transform="translate(63.623047 0)"/>
      </g>
     </g>
    </g>
    <g id="xtick_6">
     <g id="line2d_6">
      <g>
       <use xlink:href="#mffab8eb382" x="586.770118" y="239.558437" style="stroke: #000000; stroke-width: 0.8"/>
      </g>
     </g>
     <g id="text_6">
      <!-- 50 -->
      <g transform="translate(580.407618 254.156875) scale(0.1 -0.1)">
       <defs>
        <path id="DejaVuSans-35" d="M 691 4666 
L 3169 4666 
L 3169 4134 
L 1269 4134 
L 1269 2991 
Q 1406 3038 1543 3061 
Q 1681 3084 1819 3084 
Q 2600 3084 3056 2656 
Q 3513 2228 3513 1497 
Q 3513 744 3044 326 
Q 2575 -91 1722 -91 
Q 1428 -91 1123 -41 
Q 819 9 494 109 
L 494 744 
Q 775 591 1075 516 
Q 1375 441 1709 441 
Q 2250 441 2565 725 
Q 2881 1009 2881 1497 
Q 2881 1984 2565 2268 
Q 2250 2553 1709 2553 
Q 1456 2553 1204 2497 
Q 953 2441 691 2322 
L 691 4666 
z
" transform="scale(0.015625)"/>
       </defs>
       <use xlink:href="#DejaVuSans-35"/>
       <use xlink:href="#DejaVuSans-30" transform="translate(63.623047 0)"/>
      </g>
     </g>
    </g>
    <g id="text_7">
     <!-- Iteration -->
     <g transform="translate(301.572656 267.835) scale(0.1 -0.1)">
      <defs>
       <path id="DejaVuSans-49" d="M 628 4666 
L 1259 4666 
L 1259 0 
L 628 0 
L 628 4666 
z
" transform="scale(0.015625)"/>
       <path id="DejaVuSans-74" d="M 1172 4494 
L 1172 3500 
L 2356 3500 
L 2356 3053 
L 1172 3053 
L 1172 1153 
Q 1172 725 1289 603 
Q 1406 481 1766 481 
L 2356 481 
L 2356 0 
L 1766 0 
Q 1100 0 847 248 
Q 594 497 594 1153 
L 594 3053 
L 172 3053 
L 172 3500 
L 594 3500 
L 594 4494 
L 1172 4494 
z
" transform="scale(0.015625)"/>
       <path id="DejaVuSans-65" d="M 3597 1894 
L 3597 1613 
L 953 1613 
Q 991 1019 1311 708 
Q 1631 397 2203 397 
Q 2534 397 2845 478 
Q 3156 559 3463 722 
L 3463 178 
Q 3153 47 2828 -22 
Q 2503 -91 2169 -91 
Q 1331 -91 842 396 
Q 353 884 353 1716 
Q 353 2575 817 3079 
Q 1281 3584 2069 3584 
Q 2775 3584 3186 3129 
Q 3597 2675 3597 1894 
z
M 3022 2063 
Q 3016 2534 2758 2815 
Q 2500 3097 2075 3097 
Q 1594 3097 1305 2825 
Q 1016 2553 972 2059 
L 3022 2063 
z
" transform="scale(0.015625)"/>
       <path id="DejaVuSans-72" d="M 2631 2963 
Q 2534 3019 2420 3045 
Q 2306 3072 2169 3072 
Q 1681 3072 1420 2755 
Q 1159 2438 1159 1844 
L 1159 0 
L 581 0 
L 581 3500 
L 1159 3500 
L 1159 2956 
Q 1341 3275 1631 3429 
Q 1922 3584 2338 3584 
Q 2397 3584 2469 3576 
Q 2541 3569 2628 3553 
L 2631 2963 
z
" transform="scale(0.015625)"/>
       <path id="DejaVuSans-61" d="M 2194 1759 
Q 1497 1759 1228 1600 
Q 959 1441 959 1056 
Q 959 750 1161 570 
Q 1363 391 1709 391 
Q 2188 391 2477 730 
Q 2766 1069 2766 1631 
L 2766 1759 
L 2194 1759 
z
M 3341 1997 
L 3341 0 
L 2766 0 
L 2766 531 
Q 2569 213 2275 61 
Q 1981 -91 1556 -91 
Q 1019 -91 701 211 
Q 384 513 384 1019 
Q 384 1609 779 1909 
Q 1175 2209 1959 2209 
L 2766 2209 
L 2766 2266 
Q 2766 2663 2505 2880 
Q 2244 3097 1772 3097 
Q 1472 3097 1187 3025 
Q 903 2953 641 2809 
L 641 3341 
Q 956 3463 1253 3523 
Q 1550 3584 1831 3584 
Q 2591 3584 2966 3190 
Q 3341 2797 3341 1997 
z
" transform="scale(0.015625)"/>
       <path id="DejaVuSans-69" d="M 603 3500 
L 1178 3500 
L 1178 0 
L 603 0 
L 603 3500 
z
M 603 4863 
L 1178 4863 
L 1178 4134 
L 603 4134 
L 603 4863 
z
" transform="scale(0.015625)"/>
       <path id="DejaVuSans-6f" d="M 1959 3097 
Q 1497 3097 1228 2736 
Q 959 2375 959 1747 
Q 959 1119 1226 758 
Q 1494 397 1959 397 
Q 2419 397 2687 759 
Q 2956 1122 2956 1747 
Q 2956 2369 2687 2733 
Q 2419 3097 1959 3097 
z
M 1959 3584 
Q 2709 3584 3137 3096 
Q 3566 2609 3566 1747 
Q 3566 888 3137 398 
Q 2709 -91 1959 -91 
Q 1206 -91 779 398 
Q 353 888 353 1747 
Q 353 2609 779 3096 
Q 1206 3584 1959 3584 
z
" transform="scale(0.015625)"/>
       <path id="DejaVuSans-6e" d="M 3513 2113 
L 3513 0 
L 2938 0 
L 2938 2094 
Q 2938 2591 2744 2837 
Q 2550 3084 2163 3084 
Q 1697 3084 1428 2787 
Q 1159 2491 1159 1978 
L 1159 0 
L 581 0 
L 581 3500 
L 1159 3500 
L 1159 2956 
Q 1366 3272 1645 3428 
Q 1925 3584 2291 3584 
Q 2894 3584 3203 3211 
Q 3513 2838 3513 2113 
z
" transform="scale(0.015625)"/>
      </defs>
      <use xlink:href="#DejaVuSans-49"/>
      <use xlink:href="#DejaVuSans-74" transform="translate(29.492188 0)"/>
      <use xlink:href="#DejaVuSans-65" transform="translate(68.701172 0)"/>
      <use xlink:href="#DejaVuSans-72" transform="translate(130.224609 0)"/>
      <use xlink:href="#DejaVuSans-61" transform="translate(171.337891 0)"/>
      <use xlink:href="#DejaVuSans-74" transform="translate(232.617188 0)"/>
      <use xlink:href="#DejaVuSans-69" transform="translate(271.826172 0)"/>
      <use xlink:href="#DejaVuSans-6f" transform="translate(299.609375 0)"/>
      <use xlink:href="#DejaVuSans-6e" transform="translate(360.791016 0)"/>
     </g>
    </g>
   </g>
   <g id="matplotlib.axis_2">
    <g id="ytick_1">
     <g id="line2d_7">
      <defs>
       <path id="m162307ef70" d="M 0 0 
L -3.5 0 
" style="stroke: #000000; stroke-width: 0.8"/>
      </defs>
      <g>
       <use xlink:href="#m162307ef70" x="43.78125" y="239.558437" style="stroke: #000000; stroke-width: 0.8"/>
      </g>
     </g>
     <g id="text_8">
      <!-- 0.0 -->
      <g transform="translate(20.878125 243.357656) scale(0.1 -0.1)">
       <defs>
        <path id="DejaVuSans-2e" d="M 684 794 
L 1344 794 
L 1344 0 
L 684 0 
L 684 794 
z
" transform="scale(0.015625)"/>
       </defs>
       <use xlink:href="#DejaVuSans-30"/>
       <use xlink:href="#DejaVuSans-2e" transform="translate(63.623047 0)"/>
       <use xlink:href="#DejaVuSans-30" transform="translate(95.410156 0)"/>
      </g>
     </g>
    </g>
    <g id="ytick_2">
     <g id="line2d_8">
      <g>
       <use xlink:href="#m162307ef70" x="43.78125" y="195.206437" style="stroke: #000000; stroke-width: 0.8"/>
      </g>
     </g>
     <g id="text_9">
      <!-- 0.2 -->
      <g transform="translate(20.878125 199.005656) scale(0.1 -0.1)">
       <use xlink:href="#DejaVuSans-30"/>
       <use xlink:href="#DejaVuSans-2e" transform="translate(63.623047 0)"/>
       <use xlink:href="#DejaVuSans-32" transform="translate(95.410156 0)"/>
      </g>
     </g>
    </g>
    <g id="ytick_3">
     <g id="line2d_9">
      <g>
       <use xlink:href="#m162307ef70" x="43.78125" y="150.854437" style="stroke: #000000; stroke-width: 0.8"/>
      </g>
     </g>
     <g id="text_10">
      <!-- 0.4 -->
      <g transform="translate(20.878125 154.653656) scale(0.1 -0.1)">
       <use xlink:href="#DejaVuSans-30"/>
       <use xlink:href="#DejaVuSans-2e" transform="translate(63.623047 0)"/>
       <use xlink:href="#DejaVuSans-34" transform="translate(95.410156 0)"/>
      </g>
     </g>
    </g>
    <g id="ytick_4">
     <g id="line2d_10">
      <g>
       <use xlink:href="#m162307ef70" x="43.78125" y="106.502437" style="stroke: #000000; stroke-width: 0.8"/>
      </g>
     </g>
     <g id="text_11">
      <!-- 0.6 -->
      <g transform="translate(20.878125 110.301656) scale(0.1 -0.1)">
       <defs>
        <path id="DejaVuSans-36" d="M 2113 2584 
Q 1688 2584 1439 2293 
Q 1191 2003 1191 1497 
Q 1191 994 1439 701 
Q 1688 409 2113 409 
Q 2538 409 2786 701 
Q 3034 994 3034 1497 
Q 3034 2003 2786 2293 
Q 2538 2584 2113 2584 
z
M 3366 4563 
L 3366 3988 
Q 3128 4100 2886 4159 
Q 2644 4219 2406 4219 
Q 1781 4219 1451 3797 
Q 1122 3375 1075 2522 
Q 1259 2794 1537 2939 
Q 1816 3084 2150 3084 
Q 2853 3084 3261 2657 
Q 3669 2231 3669 1497 
Q 3669 778 3244 343 
Q 2819 -91 2113 -91 
Q 1303 -91 875 529 
Q 447 1150 447 2328 
Q 447 3434 972 4092 
Q 1497 4750 2381 4750 
Q 2619 4750 2861 4703 
Q 3103 4656 3366 4563 
z
" transform="scale(0.015625)"/>
       </defs>
       <use xlink:href="#DejaVuSans-30"/>
       <use xlink:href="#DejaVuSans-2e" transform="translate(63.623047 0)"/>
       <use xlink:href="#DejaVuSans-36" transform="translate(95.410156 0)"/>
      </g>
     </g>
    </g>
    <g id="ytick_5">
     <g id="line2d_11">
      <g>
       <use xlink:href="#m162307ef70" x="43.78125" y="62.150437" style="stroke: #000000; stroke-width: 0.8"/>
      </g>
     </g>
     <g id="text_12">
      <!-- 0.8 -->
      <g transform="translate(20.878125 65.949656) scale(0.1 -0.1)">
       <defs>
        <path id="DejaVuSans-38" d="M 2034 2216 
Q 1584 2216 1326 1975 
Q 1069 1734 1069 1313 
Q 1069 891 1326 650 
Q 1584 409 2034 409 
Q 2484 409 2743 651 
Q 3003 894 3003 1313 
Q 3003 1734 2745 1975 
Q 2488 2216 2034 2216 
z
M 1403 2484 
Q 997 2584 770 2862 
Q 544 3141 544 3541 
Q 544 4100 942 4425 
Q 1341 4750 2034 4750 
Q 2731 4750 3128 4425 
Q 3525 4100 3525 3541 
Q 3525 3141 3298 2862 
Q 3072 2584 2669 2484 
Q 3125 2378 3379 2068 
Q 3634 1759 3634 1313 
Q 3634 634 3220 271 
Q 2806 -91 2034 -91 
Q 1263 -91 848 271 
Q 434 634 434 1313 
Q 434 1759 690 2068 
Q 947 2378 1403 2484 
z
M 1172 3481 
Q 1172 3119 1398 2916 
Q 1625 2713 2034 2713 
Q 2441 2713 2670 2916 
Q 2900 3119 2900 3481 
Q 2900 3844 2670 4047 
Q 2441 4250 2034 4250 
Q 1625 4250 1398 4047 
Q 1172 3844 1172 3481 
z
" transform="scale(0.015625)"/>
       </defs>
       <use xlink:href="#DejaVuSans-30"/>
       <use xlink:href="#DejaVuSans-2e" transform="translate(63.623047 0)"/>
       <use xlink:href="#DejaVuSans-38" transform="translate(95.410156 0)"/>
      </g>
     </g>
    </g>
    <g id="ytick_6">
     <g id="line2d_12">
      <g>
       <use xlink:href="#m162307ef70" x="43.78125" y="17.798437" style="stroke: #000000; stroke-width: 0.8"/>
      </g>
     </g>
     <g id="text_13">
      <!-- 1.0 -->
      <g transform="translate(20.878125 21.597656) scale(0.1 -0.1)">
       <use xlink:href="#DejaVuSans-31"/>
       <use xlink:href="#DejaVuSans-2e" transform="translate(63.623047 0)"/>
       <use xlink:href="#DejaVuSans-30" transform="translate(95.410156 0)"/>
      </g>
     </g>
    </g>
    <g id="text_14">
     <!-- Objective -->
     <g transform="translate(14.798438 152.388594) rotate(-90) scale(0.1 -0.1)">
      <defs>
       <path id="DejaVuSans-4f" d="M 2522 4238 
Q 1834 4238 1429 3725 
Q 1025 3213 1025 2328 
Q 1025 1447 1429 934 
Q 1834 422 2522 422 
Q 3209 422 3611 934 
Q 4013 1447 4013 2328 
Q 4013 3213 3611 3725 
Q 3209 4238 2522 4238 
z
M 2522 4750 
Q 3503 4750 4090 4092 
Q 4678 3434 4678 2328 
Q 4678 1225 4090 567 
Q 3503 -91 2522 -91 
Q 1538 -91 948 565 
Q 359 1222 359 2328 
Q 359 3434 948 4092 
Q 1538 4750 2522 4750 
z
" transform="scale(0.015625)"/>
       <path id="DejaVuSans-62" d="M 3116 1747 
Q 3116 2381 2855 2742 
Q 2594 3103 2138 3103 
Q 1681 3103 1420 2742 
Q 1159 2381 1159 1747 
Q 1159 1113 1420 752 
Q 1681 391 2138 391 
Q 2594 391 2855 752 
Q 3116 1113 3116 1747 
z
M 1159 2969 
Q 1341 3281 1617 3432 
Q 1894 3584 2278 3584 
Q 2916 3584 3314 3078 
Q 3713 2572 3713 1747 
Q 3713 922 3314 415 
Q 2916 -91 2278 -91 
Q 1894 -91 1617 61 
Q 1341 213 1159 525 
L 1159 0 
L 581 0 
L 581 4863 
L 1159 4863 
L 1159 2969 
z
" transform="scale(0.015625)"/>
       <path id="DejaVuSans-6a" d="M 603 3500 
L 1178 3500 
L 1178 -63 
Q 1178 -731 923 -1031 
Q 669 -1331 103 -1331 
L -116 -1331 
L -116 -844 
L 38 -844 
Q 366 -844 484 -692 
Q 603 -541 603 -63 
L 603 3500 
z
M 603 4863 
L 1178 4863 
L 1178 4134 
L 603 4134 
L 603 4863 
z
" transform="scale(0.015625)"/>
       <path id="DejaVuSans-63" d="M 3122 3366 
L 3122 2828 
Q 2878 2963 2633 3030 
Q 2388 3097 2138 3097 
Q 1578 3097 1268 2742 
Q 959 2388 959 1747 
Q 959 1106 1268 751 
Q 1578 397 2138 397 
Q 2388 397 2633 464 
Q 2878 531 3122 666 
L 3122 134 
Q 2881 22 2623 -34 
Q 2366 -91 2075 -91 
Q 1284 -91 818 406 
Q 353 903 353 1747 
Q 353 2603 823 3093 
Q 1294 3584 2113 3584 
Q 2378 3584 2631 3529 
Q 2884 3475 3122 3366 
z
" transform="scale(0.015625)"/>
       <path id="DejaVuSans-76" d="M 191 3500 
L 800 3500 
L 1894 563 
L 2988 3500 
L 3597 3500 
L 2284 0 
L 1503 0 
L 191 3500 
z
" transform="scale(0.015625)"/>
      </defs>
      <use xlink:href="#DejaVuSans-4f"/>
      <use xlink:href="#DejaVuSans-62" transform="translate(78.710938 0)"/>
      <use xlink:href="#DejaVuSans-6a" transform="translate(142.1875 0)"/>
      <use xlink:href="#DejaVuSans-65" transform="translate(169.970703 0)"/>
      <use xlink:href="#DejaVuSans-63" transform="translate(231.494141 0)"/>
      <use xlink:href="#DejaVuSans-74" transform="translate(286.474609 0)"/>
      <use xlink:href="#DejaVuSans-69" transform="translate(325.683594 0)"/>
      <use xlink:href="#DejaVuSans-76" transform="translate(353.466797 0)"/>
      <use xlink:href="#DejaVuSans-65" transform="translate(412.646484 0)"/>
     </g>
    </g>
    <g id="text_15">
     <!-- 1e6 -->
     <g transform="translate(43.78125 14.798437) scale(0.1 -0.1)">
      <use xlink:href="#DejaVuSans-31"/>
      <use xlink:href="#DejaVuSans-65" transform="translate(63.623047 0)"/>
      <use xlink:href="#DejaVuSans-36" transform="translate(125.146484 0)"/>
     </g>
    </g>
   </g>
   <g id="line2d_13">
    <path d="M 78.914626 -1 
L 79.497391 33.755274 
L 89.849896 188.107547 
L 100.2024 226.695662 
L 110.554905 236.342717 
L 120.90741 238.754494 
L 131.259914 239.357445 
L 141.612419 239.508186 
L 151.964923 239.545873 
L 162.317428 239.555295 
L 172.669933 239.557652 
L 183.022437 239.558241 
L 193.374942 239.558388 
L 203.727447 239.558425 
L 214.079951 239.558434 
L 224.432456 239.558437 
L 234.784961 239.558437 
L 245.137465 239.558437 
L 255.48997 239.558437 
L 265.842474 239.558437 
L 276.194979 239.558437 
L 286.547484 239.558437 
L 296.899988 239.558437 
L 307.252493 239.558437 
L 317.604998 239.558437 
L 327.957502 239.558437 
L 338.310007 239.558437 
L 348.662512 239.558437 
L 359.015016 239.558437 
L 369.367521 239.558437 
L 379.720026 239.558437 
L 390.07253 239.558437 
L 400.425035 239.558437 
L 410.777539 239.558437 
L 421.130044 239.558437 
L 431.482549 239.558437 
L 441.835053 239.558437 
L 452.187558 239.558437 
L 462.540063 239.558437 
L 472.892567 239.558437 
L 483.245072 239.558437 
L 493.597577 239.558437 
L 503.950081 239.558437 
L 514.302586 239.558437 
L 524.65509 239.558437 
L 535.007595 239.558437 
L 545.3601 239.558437 
L 555.712604 239.558437 
L 566.065109 239.558437 
L 576.417614 239.558437 
" clip-path="url(#p8a8ee96185)" style="fill: none; stroke: #1f77b4; stroke-width: 1.5; stroke-linecap: square"/>
   </g>
   <g id="line2d_14">
    <path d="M 79.046012 -1 
L 79.497391 25.891396 
L 89.849896 181.64705 
L 100.2024 221.559869 
L 110.554905 232.049862 
L 120.90741 234.925551 
L 131.259914 235.766773 
L 141.612419 236.033579 
L 151.964923 236.125807 
L 162.317428 236.160129 
L 172.669933 236.173315 
L 183.022437 236.177967 
L 193.374942 236.179934 
L 203.727447 236.180969 
L 214.079951 236.182443 
L 224.432456 236.184648 
L 234.784961 236.187056 
L 245.137465 236.190135 
L 255.48997 236.193165 
L 265.842474 236.196191 
L 276.194979 236.199279 
L 286.547484 236.202516 
L 296.899988 236.205615 
L 307.252493 236.208671 
L 317.604998 236.211656 
L 327.957502 236.214889 
L 338.310007 236.217935 
L 348.662512 236.220685 
L 359.015016 236.223564 
L 369.367521 236.226485 
L 379.720026 236.229406 
L 390.07253 236.23236 
L 400.425035 236.2353 
L 410.777539 236.238389 
L 421.130044 236.241528 
L 431.482549 236.244429 
L 441.835053 236.24715 
L 452.187558 236.249719 
L 462.540063 236.252328 
L 472.892567 236.255016 
L 483.245072 236.257736 
L 493.597577 236.260452 
L 503.950081 236.263061 
L 514.302586 236.265644 
L 524.65509 236.268211 
L 535.007595 236.270816 
L 545.3601 236.273348 
L 555.712604 236.275691 
L 566.065109 236.277852 
L 576.417614 236.279973 
" clip-path="url(#p8a8ee96185)" style="fill: none; stroke: #ff7f0e; stroke-width: 1.5; stroke-linecap: square"/>
   </g>
   <g id="line2d_15">
    <path d="M 79.233676 -1 
L 79.497391 14.68031 
L 89.849896 171.239606 
L 100.2024 212.020722 
L 110.554905 223.083819 
L 120.90741 226.283775 
L 131.259914 227.307225 
L 141.612419 227.684455 
L 151.964923 227.853485 
L 162.317428 227.943068 
L 172.669933 228.000002 
L 183.022437 228.043819 
L 193.374942 228.080542 
L 203.727447 228.113696 
L 214.079951 228.144667 
L 224.432456 228.174126 
L 234.784961 228.201759 
L 245.137465 228.22869 
L 255.48997 228.253867 
L 265.842474 228.277238 
L 276.194979 228.300362 
L 286.547484 228.322542 
L 296.899988 228.343647 
L 307.252493 228.364374 
L 317.604998 228.384901 
L 327.957502 228.404378 
L 338.310007 228.422593 
L 348.662512 228.440125 
L 359.015016 228.456852 
L 369.367521 228.47279 
L 379.720026 228.488047 
L 390.07253 228.502598 
L 400.425035 228.516563 
L 410.777539 228.530034 
L 421.130044 228.543006 
L 431.482549 228.555302 
L 441.835053 228.567034 
L 452.187558 228.577998 
L 462.540063 228.58822 
L 472.892567 228.597727 
L 483.245072 228.60694 
L 493.597577 228.616271 
L 503.950081 228.625178 
L 514.302586 228.633834 
L 524.65509 228.64227 
L 535.007595 228.650462 
L 545.3601 228.658549 
L 555.712604 228.666265 
L 566.065109 228.673796 
L 576.417614 228.681386 
" clip-path="url(#p8a8ee96185)" style="fill: none; stroke: #2ca02c; stroke-width: 1.5; stroke-linecap: square"/>
   </g>
   <g id="line2d_16">
    <path d="M 79.458864 -1 
L 79.497391 1.285869 
L 89.849896 158.342686 
L 100.2024 199.804658 
L 110.554905 211.345028 
L 120.90741 214.85726 
L 131.259914 216.092903 
L 141.612419 216.617323 
L 151.964923 216.900292 
L 162.317428 217.084541 
L 172.669933 217.221863 
L 183.022437 217.331898 
L 193.374942 217.426466 
L 203.727447 217.513563 
L 214.079951 217.594019 
L 224.432456 217.670157 
L 234.784961 217.743095 
L 245.137465 217.809871 
L 255.48997 217.870671 
L 265.842474 217.9264 
L 276.194979 217.977757 
L 286.547484 218.02556 
L 296.899988 218.069559 
L 307.252493 218.110299 
L 317.604998 218.14834 
L 327.957502 218.185061 
L 338.310007 218.220019 
L 348.662512 218.253448 
L 359.015016 218.286326 
L 369.367521 218.317881 
L 379.720026 218.3482 
L 390.07253 218.376863 
L 400.425035 218.404106 
L 410.777539 218.430012 
L 421.130044 218.454769 
L 431.482549 218.478596 
L 441.835053 218.501417 
L 452.187558 218.523401 
L 462.540063 218.544499 
L 472.892567 218.565102 
L 483.245072 218.584883 
L 493.597577 218.604324 
L 503.950081 218.623252 
L 514.302586 218.641406 
L 524.65509 218.659018 
L 535.007595 218.676007 
L 545.3601 218.692453 
L 555.712604 218.708416 
L 566.065109 218.723932 
L 576.417614 218.739017 
" clip-path="url(#p8a8ee96185)" style="fill: none; stroke: #d62728; stroke-width: 1.5; stroke-linecap: square"/>
   </g>
   <g id="line2d_17">
    <path d="M 80.313846 -1 
L 89.849896 144.063757 
L 100.2024 186.10741 
L 110.554905 198.087084 
L 120.90741 201.911931 
L 131.259914 203.374299 
L 141.612419 204.066614 
L 151.964923 204.472841 
L 162.317428 204.766258 
L 172.669933 205.000761 
L 183.022437 205.197752 
L 193.374942 205.365919 
L 203.727447 205.510873 
L 214.079951 205.635669 
L 224.432456 205.750182 
L 234.784961 205.856613 
L 245.137465 205.954193 
L 255.48997 206.046587 
L 265.842474 206.13185 
L 276.194979 206.210836 
L 286.547484 206.284344 
L 296.899988 206.353255 
L 307.252493 206.418341 
L 317.604998 206.479681 
L 327.957502 206.536975 
L 338.310007 206.590887 
L 348.662512 206.643172 
L 359.015016 206.69298 
L 369.367521 206.740095 
L 379.720026 206.784778 
L 390.07253 206.827738 
L 400.425035 206.869106 
L 410.777539 206.908168 
L 421.130044 206.945289 
L 431.482549 206.980933 
L 441.835053 207.01558 
L 452.187558 207.048916 
L 462.540063 207.081202 
L 472.892567 207.112129 
L 483.245072 207.141401 
L 493.597577 207.169482 
L 503.950081 207.196552 
L 514.302586 207.222936 
L 524.65509 207.2488 
L 535.007595 207.273501 
L 545.3601 207.297272 
L 555.712604 207.319965 
L 566.065109 207.341744 
L 576.417614 207.363195 
" clip-path="url(#p8a8ee96185)" style="fill: none; stroke: #9467bd; stroke-width: 1.5; stroke-linecap: square"/>
   </g>
   <g id="patch_3">
    <path d="M 43.78125 239.558437 
L 43.78125 17.798437 
" style="fill: none; stroke: #000000; stroke-width: 0.8; stroke-linejoin: miter; stroke-linecap: square"/>
   </g>
   <g id="patch_4">
    <path d="M 601.78125 239.558437 
L 601.78125 17.798437 
" style="fill: none; stroke: #000000; stroke-width: 0.8; stroke-linejoin: miter; stroke-linecap: square"/>
   </g>
   <g id="patch_5">
    <path d="M 43.78125 239.558437 
L 601.78125 239.558437 
" style="fill: none; stroke: #000000; stroke-width: 0.8; stroke-linejoin: miter; stroke-linecap: square"/>
   </g>
   <g id="patch_6">
    <path d="M 43.78125 17.798437 
L 601.78125 17.798437 
" style="fill: none; stroke: #000000; stroke-width: 0.8; stroke-linejoin: miter; stroke-linecap: square"/>
   </g>
   <g id="legend_1">
    <g id="patch_7">
     <path d="M 494.404688 99.189062 
L 594.78125 99.189062 
Q 596.78125 99.189062 596.78125 97.189062 
L 596.78125 24.798437 
Q 596.78125 22.798437 594.78125 22.798437 
L 494.404688 22.798437 
Q 492.404688 22.798437 492.404688 24.798437 
L 492.404688 97.189062 
Q 492.404688 99.189062 494.404688 99.189062 
z
" style="fill: #ffffff; opacity: 0.8; stroke: #cccccc; stroke-linejoin: miter"/>
    </g>
    <g id="line2d_18">
     <path d="M 496.404688 30.896875 
L 506.404688 30.896875 
L 516.404688 30.896875 
" style="fill: none; stroke: #1f77b4; stroke-width: 1.5; stroke-linecap: square"/>
    </g>
    <g id="text_16">
     <!-- λ=0.0000001 -->
     <g transform="translate(524.404688 34.396875) scale(0.1 -0.1)">
      <defs>
       <path id="DejaVuSans-3bb" d="M 1981 4316 
L 3597 0 
L 2988 0 
L 2006 2588 
L 800 0 
L 191 0 
L 1725 3356 
L 1494 3975 
Q 1347 4369 1013 4369 
L 713 4369 
L 713 4863 
L 1078 4856 
Q 1784 4847 1981 4316 
z
" transform="scale(0.015625)"/>
       <path id="DejaVuSans-3d" d="M 678 2906 
L 4684 2906 
L 4684 2381 
L 678 2381 
L 678 2906 
z
M 678 1631 
L 4684 1631 
L 4684 1100 
L 678 1100 
L 678 1631 
z
" transform="scale(0.015625)"/>
      </defs>
      <use xlink:href="#DejaVuSans-3bb"/>
      <use xlink:href="#DejaVuSans-3d" transform="translate(59.179688 0)"/>
      <use xlink:href="#DejaVuSans-30" transform="translate(142.96875 0)"/>
      <use xlink:href="#DejaVuSans-2e" transform="translate(206.591797 0)"/>
      <use xlink:href="#DejaVuSans-30" transform="translate(238.378906 0)"/>
      <use xlink:href="#DejaVuSans-30" transform="translate(302.001953 0)"/>
      <use xlink:href="#DejaVuSans-30" transform="translate(365.625 0)"/>
      <use xlink:href="#DejaVuSans-30" transform="translate(429.248047 0)"/>
      <use xlink:href="#DejaVuSans-30" transform="translate(492.871094 0)"/>
      <use xlink:href="#DejaVuSans-30" transform="translate(556.494141 0)"/>
      <use xlink:href="#DejaVuSans-31" transform="translate(620.117188 0)"/>
     </g>
    </g>
    <g id="line2d_19">
     <path d="M 496.404688 45.575 
L 506.404688 45.575 
L 516.404688 45.575 
" style="fill: none; stroke: #ff7f0e; stroke-width: 1.5; stroke-linecap: square"/>
    </g>
    <g id="text_17">
     <!-- λ=0.0025001 -->
     <g transform="translate(524.404688 49.075) scale(0.1 -0.1)">
      <use xlink:href="#DejaVuSans-3bb"/>
      <use xlink:href="#DejaVuSans-3d" transform="translate(59.179688 0)"/>
      <use xlink:href="#DejaVuSans-30" transform="translate(142.96875 0)"/>
      <use xlink:href="#DejaVuSans-2e" transform="translate(206.591797 0)"/>
      <use xlink:href="#DejaVuSans-30" transform="translate(238.378906 0)"/>
      <use xlink:href="#DejaVuSans-30" transform="translate(302.001953 0)"/>
      <use xlink:href="#DejaVuSans-32" transform="translate(365.625 0)"/>
      <use xlink:href="#DejaVuSans-35" transform="translate(429.248047 0)"/>
      <use xlink:href="#DejaVuSans-30" transform="translate(492.871094 0)"/>
      <use xlink:href="#DejaVuSans-30" transform="translate(556.494141 0)"/>
      <use xlink:href="#DejaVuSans-31" transform="translate(620.117188 0)"/>
     </g>
    </g>
    <g id="line2d_20">
     <path d="M 496.404688 60.253125 
L 506.404688 60.253125 
L 516.404688 60.253125 
" style="fill: none; stroke: #2ca02c; stroke-width: 1.5; stroke-linecap: square"/>
    </g>
    <g id="text_18">
     <!-- λ=0.0050001 -->
     <g transform="translate(524.404688 63.753125) scale(0.1 -0.1)">
      <use xlink:href="#DejaVuSans-3bb"/>
      <use xlink:href="#DejaVuSans-3d" transform="translate(59.179688 0)"/>
      <use xlink:href="#DejaVuSans-30" transform="translate(142.96875 0)"/>
      <use xlink:href="#DejaVuSans-2e" transform="translate(206.591797 0)"/>
      <use xlink:href="#DejaVuSans-30" transform="translate(238.378906 0)"/>
      <use xlink:href="#DejaVuSans-30" transform="translate(302.001953 0)"/>
      <use xlink:href="#DejaVuSans-35" transform="translate(365.625 0)"/>
      <use xlink:href="#DejaVuSans-30" transform="translate(429.248047 0)"/>
      <use xlink:href="#DejaVuSans-30" transform="translate(492.871094 0)"/>
      <use xlink:href="#DejaVuSans-30" transform="translate(556.494141 0)"/>
      <use xlink:href="#DejaVuSans-31" transform="translate(620.117188 0)"/>
     </g>
    </g>
    <g id="line2d_21">
     <path d="M 496.404688 74.93125 
L 506.404688 74.93125 
L 516.404688 74.93125 
" style="fill: none; stroke: #d62728; stroke-width: 1.5; stroke-linecap: square"/>
    </g>
    <g id="text_19">
     <!-- λ=0.0075000 -->
     <g transform="translate(524.404688 78.43125) scale(0.1 -0.1)">
      <defs>
       <path id="DejaVuSans-37" d="M 525 4666 
L 3525 4666 
L 3525 4397 
L 1831 0 
L 1172 0 
L 2766 4134 
L 525 4134 
L 525 4666 
z
" transform="scale(0.015625)"/>
      </defs>
      <use xlink:href="#DejaVuSans-3bb"/>
      <use xlink:href="#DejaVuSans-3d" transform="translate(59.179688 0)"/>
      <use xlink:href="#DejaVuSans-30" transform="translate(142.96875 0)"/>
      <use xlink:href="#DejaVuSans-2e" transform="translate(206.591797 0)"/>
      <use xlink:href="#DejaVuSans-30" transform="translate(238.378906 0)"/>
      <use xlink:href="#DejaVuSans-30" transform="translate(302.001953 0)"/>
      <use xlink:href="#DejaVuSans-37" transform="translate(365.625 0)"/>
      <use xlink:href="#DejaVuSans-35" transform="translate(429.248047 0)"/>
      <use xlink:href="#DejaVuSans-30" transform="translate(492.871094 0)"/>
      <use xlink:href="#DejaVuSans-30" transform="translate(556.494141 0)"/>
      <use xlink:href="#DejaVuSans-30" transform="translate(620.117188 0)"/>
     </g>
    </g>
    <g id="line2d_22">
     <path d="M 496.404688 89.609375 
L 506.404688 89.609375 
L 516.404688 89.609375 
" style="fill: none; stroke: #9467bd; stroke-width: 1.5; stroke-linecap: square"/>
    </g>
    <g id="text_20">
     <!-- λ=0.0100000 -->
     <g transform="translate(524.404688 93.109375) scale(0.1 -0.1)">
      <use xlink:href="#DejaVuSans-3bb"/>
      <use xlink:href="#DejaVuSans-3d" transform="translate(59.179688 0)"/>
      <use xlink:href="#DejaVuSans-30" transform="translate(142.96875 0)"/>
      <use xlink:href="#DejaVuSans-2e" transform="translate(206.591797 0)"/>
      <use xlink:href="#DejaVuSans-30" transform="translate(238.378906 0)"/>
      <use xlink:href="#DejaVuSans-31" transform="translate(302.001953 0)"/>
      <use xlink:href="#DejaVuSans-30" transform="translate(365.625 0)"/>
      <use xlink:href="#DejaVuSans-30" transform="translate(429.248047 0)"/>
      <use xlink:href="#DejaVuSans-30" transform="translate(492.871094 0)"/>
      <use xlink:href="#DejaVuSans-30" transform="translate(556.494141 0)"/>
      <use xlink:href="#DejaVuSans-30" transform="translate(620.117188 0)"/>
     </g>
    </g>
   </g>
  </g>
 </g>
 <defs>
  <clipPath id="p8a8ee96185">
   <rect x="43.78125" y="17.798437" width="558" height="221.76"/>
  </clipPath>
 </defs>
</svg>
