<?xml version="1.0" encoding="utf-8" standalone="no"?>
<!DOCTYPE svg PUBLIC "-//W3C//DTD SVG 1.1//EN"
  "http://www.w3.org/Graphics/SVG/1.1/DTD/svg11.dtd">
<svg xmlns:xlink="http://www.w3.org/1999/xlink" width="1144.974375pt" height="279.43625pt" viewBox="0 0 1144.974375 279.43625" xmlns="http://www.w3.org/2000/svg" version="1.1">
 <metadata>
  <rdf:RDF xmlns:dc="http://purl.org/dc/elements/1.1/" xmlns:cc="http://creativecommons.org/ns#" xmlns:rdf="http://www.w3.org/1999/02/22-rdf-syntax-ns#">
   <cc:Work>
    <dc:type rdf:resource="http://purl.org/dc/dcmitype/StillImage"/>
    <dc:date>2025-05-17T01:15:02.794755</dc:date>
    <dc:format>image/svg+xml</dc:format>
    <dc:creator>
     <cc:Agent>
      <dc:title>Matplotlib v3.10.1, https://matplotlib.org/</dc:title>
     </cc:Agent>
    </dc:creator>
   </cc:Work>
  </rdf:RDF>
 </metadata>
 <defs>
  <style type="text/css">*{stroke-linejoin: round; stroke-linecap: butt}</style>
 </defs>
 <g id="figure_1">
  <g id="patch_1">
   <path d="M 0 279.43625 
L 1144.974375 279.43625 
L 1144.974375 0 
L 0 0 
L 0 279.43625 
z
" style="fill: none"/>
  </g>
  <g id="axes_1">
   <g id="patch_2">
    <path d="M 36.465625 255.558125 
L 562.378125 255.558125 
L 562.378125 22.318125 
L 36.465625 22.318125 
L 36.465625 255.558125 
z
" style="fill: none"/>
   </g>
   <g id="matplotlib.axis_1">
    <g id="xtick_1">
     <g id="line2d_1">
      <defs>
       <path id="m7856d03e40" d="M 0 0 
L 0 3.5 
" style="stroke: #000000; stroke-width: 0.8"/>
      </defs>
      <g>
       <use xlink:href="#m7856d03e40" x="60.370739" y="255.558125" style="stroke: #000000; stroke-width: 0.8"/>
      </g>
     </g>
     <g id="text_1">
      <!-- 0 -->
      <g transform="translate(57.189489 270.156563) scale(0.1 -0.1)">
       <defs>
        <path id="DejaVuSans-30" d="M 2034 4250 
Q 1547 4250 1301 3770 
Q 1056 3291 1056 2328 
Q 1056 1369 1301 889 
Q 1547 409 2034 409 
Q 2525 409 2770 889 
Q 3016 1369 3016 2328 
Q 3016 3291 2770 3770 
Q 2525 4250 2034 4250 
z
M 2034 4750 
Q 2819 4750 3233 4129 
Q 3647 3509 3647 2328 
Q 3647 1150 3233 529 
Q 2819 -91 2034 -91 
Q 1250 -91 836 529 
Q 422 1150 422 2328 
Q 422 3509 836 4129 
Q 1250 4750 2034 4750 
z
" transform="scale(0.015625)"/>
       </defs>
       <use xlink:href="#DejaVuSans-30"/>
      </g>
     </g>
    </g>
    <g id="xtick_2">
     <g id="line2d_2">
      <g>
       <use xlink:href="#m7856d03e40" x="155.991193" y="255.558125" style="stroke: #000000; stroke-width: 0.8"/>
      </g>
     </g>
     <g id="text_2">
      <!-- 20 -->
      <g transform="translate(149.628693 270.156563) scale(0.1 -0.1)">
       <defs>
        <path id="DejaVuSans-32" d="M 1228 531 
L 3431 531 
L 3431 0 
L 469 0 
L 469 531 
Q 828 903 1448 1529 
Q 2069 2156 2228 2338 
Q 2531 2678 2651 2914 
Q 2772 3150 2772 3378 
Q 2772 3750 2511 3984 
Q 2250 4219 1831 4219 
Q 1534 4219 1204 4116 
Q 875 4013 500 3803 
L 500 4441 
Q 881 4594 1212 4672 
Q 1544 4750 1819 4750 
Q 2544 4750 2975 4387 
Q 3406 4025 3406 3419 
Q 3406 3131 3298 2873 
Q 3191 2616 2906 2266 
Q 2828 2175 2409 1742 
Q 1991 1309 1228 531 
z
" transform="scale(0.015625)"/>
       </defs>
       <use xlink:href="#DejaVuSans-32"/>
       <use xlink:href="#DejaVuSans-30" transform="translate(63.623047 0)"/>
      </g>
     </g>
    </g>
    <g id="xtick_3">
     <g id="line2d_3">
      <g>
       <use xlink:href="#m7856d03e40" x="251.611648" y="255.558125" style="stroke: #000000; stroke-width: 0.8"/>
      </g>
     </g>
     <g id="text_3">
      <!-- 40 -->
      <g transform="translate(245.249148 270.156563) scale(0.1 -0.1)">
       <defs>
        <path id="DejaVuSans-34" d="M 2419 4116 
L 825 1625 
L 2419 1625 
L 2419 4116 
z
M 2253 4666 
L 3047 4666 
L 3047 1625 
L 3713 1625 
L 3713 1100 
L 3047 1100 
L 3047 0 
L 2419 0 
L 2419 1100 
L 313 1100 
L 313 1709 
L 2253 4666 
z
" transform="scale(0.015625)"/>
       </defs>
       <use xlink:href="#DejaVuSans-34"/>
       <use xlink:href="#DejaVuSans-30" transform="translate(63.623047 0)"/>
      </g>
     </g>
    </g>
    <g id="xtick_4">
     <g id="line2d_4">
      <g>
       <use xlink:href="#m7856d03e40" x="347.232102" y="255.558125" style="stroke: #000000; stroke-width: 0.8"/>
      </g>
     </g>
     <g id="text_4">
      <!-- 60 -->
      <g transform="translate(340.869602 270.156563) scale(0.1 -0.1)">
       <defs>
        <path id="DejaVuSans-36" d="M 2113 2584 
Q 1688 2584 1439 2293 
Q 1191 2003 1191 1497 
Q 1191 994 1439 701 
Q 1688 409 2113 409 
Q 2538 409 2786 701 
Q 3034 994 3034 1497 
Q 3034 2003 2786 2293 
Q 2538 2584 2113 2584 
z
M 3366 4563 
L 3366 3988 
Q 3128 4100 2886 4159 
Q 2644 4219 2406 4219 
Q 1781 4219 1451 3797 
Q 1122 3375 1075 2522 
Q 1259 2794 1537 2939 
Q 1816 3084 2150 3084 
Q 2853 3084 3261 2657 
Q 3669 2231 3669 1497 
Q 3669 778 3244 343 
Q 2819 -91 2113 -91 
Q 1303 -91 875 529 
Q 447 1150 447 2328 
Q 447 3434 972 4092 
Q 1497 4750 2381 4750 
Q 2619 4750 2861 4703 
Q 3103 4656 3366 4563 
z
" transform="scale(0.015625)"/>
       </defs>
       <use xlink:href="#DejaVuSans-36"/>
       <use xlink:href="#DejaVuSans-30" transform="translate(63.623047 0)"/>
      </g>
     </g>
    </g>
    <g id="xtick_5">
     <g id="line2d_5">
      <g>
       <use xlink:href="#m7856d03e40" x="442.852557" y="255.558125" style="stroke: #000000; stroke-width: 0.8"/>
      </g>
     </g>
     <g id="text_5">
      <!-- 80 -->
      <g transform="translate(436.490057 270.156563) scale(0.1 -0.1)">
       <defs>
        <path id="DejaVuSans-38" d="M 2034 2216 
Q 1584 2216 1326 1975 
Q 1069 1734 1069 1313 
Q 1069 891 1326 650 
Q 1584 409 2034 409 
Q 2484 409 2743 651 
Q 3003 894 3003 1313 
Q 3003 1734 2745 1975 
Q 2488 2216 2034 2216 
z
M 1403 2484 
Q 997 2584 770 2862 
Q 544 3141 544 3541 
Q 544 4100 942 4425 
Q 1341 4750 2034 4750 
Q 2731 4750 3128 4425 
Q 3525 4100 3525 3541 
Q 3525 3141 3298 2862 
Q 3072 2584 2669 2484 
Q 3125 2378 3379 2068 
Q 3634 1759 3634 1313 
Q 3634 634 3220 271 
Q 2806 -91 2034 -91 
Q 1263 -91 848 271 
Q 434 634 434 1313 
Q 434 1759 690 2068 
Q 947 2378 1403 2484 
z
M 1172 3481 
Q 1172 3119 1398 2916 
Q 1625 2713 2034 2713 
Q 2441 2713 2670 2916 
Q 2900 3119 2900 3481 
Q 2900 3844 2670 4047 
Q 2441 4250 2034 4250 
Q 1625 4250 1398 4047 
Q 1172 3844 1172 3481 
z
" transform="scale(0.015625)"/>
       </defs>
       <use xlink:href="#DejaVuSans-38"/>
       <use xlink:href="#DejaVuSans-30" transform="translate(63.623047 0)"/>
      </g>
     </g>
    </g>
    <g id="xtick_6">
     <g id="line2d_6">
      <g>
       <use xlink:href="#m7856d03e40" x="538.473011" y="255.558125" style="stroke: #000000; stroke-width: 0.8"/>
      </g>
     </g>
     <g id="text_6">
      <!-- 100 -->
      <g transform="translate(528.929261 270.156563) scale(0.1 -0.1)">
       <defs>
        <path id="DejaVuSans-31" d="M 794 531 
L 1825 531 
L 1825 4091 
L 703 3866 
L 703 4441 
L 1819 4666 
L 2450 4666 
L 2450 531 
L 3481 531 
L 3481 0 
L 794 0 
L 794 531 
z
" transform="scale(0.015625)"/>
       </defs>
       <use xlink:href="#DejaVuSans-31"/>
       <use xlink:href="#DejaVuSans-30" transform="translate(63.623047 0)"/>
       <use xlink:href="#DejaVuSans-30" transform="translate(127.246094 0)"/>
      </g>
     </g>
    </g>
   </g>
   <g id="matplotlib.axis_2">
    <g id="ytick_1">
     <g id="line2d_7">
      <defs>
       <path id="m6317618d59" d="M 0 0 
L -3.5 0 
" style="stroke: #000000; stroke-width: 0.8"/>
      </defs>
      <g>
       <use xlink:href="#m6317618d59" x="36.465625" y="244.956307" style="stroke: #000000; stroke-width: 0.8"/>
      </g>
     </g>
     <g id="text_7">
      <!-- 0.00 -->
      <g transform="translate(7.2 248.755526) scale(0.1 -0.1)">
       <defs>
        <path id="DejaVuSans-2e" d="M 684 794 
L 1344 794 
L 1344 0 
L 684 0 
L 684 794 
z
" transform="scale(0.015625)"/>
       </defs>
       <use xlink:href="#DejaVuSans-30"/>
       <use xlink:href="#DejaVuSans-2e" transform="translate(63.623047 0)"/>
       <use xlink:href="#DejaVuSans-30" transform="translate(95.410156 0)"/>
       <use xlink:href="#DejaVuSans-30" transform="translate(159.033203 0)"/>
      </g>
     </g>
    </g>
    <g id="ytick_2">
     <g id="line2d_8">
      <g>
       <use xlink:href="#m6317618d59" x="36.465625" y="202.332083" style="stroke: #000000; stroke-width: 0.8"/>
      </g>
     </g>
     <g id="text_8">
      <!-- 0.01 -->
      <g transform="translate(7.2 206.131302) scale(0.1 -0.1)">
       <use xlink:href="#DejaVuSans-30"/>
       <use xlink:href="#DejaVuSans-2e" transform="translate(63.623047 0)"/>
       <use xlink:href="#DejaVuSans-30" transform="translate(95.410156 0)"/>
       <use xlink:href="#DejaVuSans-31" transform="translate(159.033203 0)"/>
      </g>
     </g>
    </g>
    <g id="ytick_3">
     <g id="line2d_9">
      <g>
       <use xlink:href="#m6317618d59" x="36.465625" y="159.70786" style="stroke: #000000; stroke-width: 0.8"/>
      </g>
     </g>
     <g id="text_9">
      <!-- 0.02 -->
      <g transform="translate(7.2 163.507079) scale(0.1 -0.1)">
       <use xlink:href="#DejaVuSans-30"/>
       <use xlink:href="#DejaVuSans-2e" transform="translate(63.623047 0)"/>
       <use xlink:href="#DejaVuSans-30" transform="translate(95.410156 0)"/>
       <use xlink:href="#DejaVuSans-32" transform="translate(159.033203 0)"/>
      </g>
     </g>
    </g>
    <g id="ytick_4">
     <g id="line2d_10">
      <g>
       <use xlink:href="#m6317618d59" x="36.465625" y="117.083637" style="stroke: #000000; stroke-width: 0.8"/>
      </g>
     </g>
     <g id="text_10">
      <!-- 0.03 -->
      <g transform="translate(7.2 120.882855) scale(0.1 -0.1)">
       <defs>
        <path id="DejaVuSans-33" d="M 2597 2516 
Q 3050 2419 3304 2112 
Q 3559 1806 3559 1356 
Q 3559 666 3084 287 
Q 2609 -91 1734 -91 
Q 1441 -91 1130 -33 
Q 819 25 488 141 
L 488 750 
Q 750 597 1062 519 
Q 1375 441 1716 441 
Q 2309 441 2620 675 
Q 2931 909 2931 1356 
Q 2931 1769 2642 2001 
Q 2353 2234 1838 2234 
L 1294 2234 
L 1294 2753 
L 1863 2753 
Q 2328 2753 2575 2939 
Q 2822 3125 2822 3475 
Q 2822 3834 2567 4026 
Q 2313 4219 1838 4219 
Q 1578 4219 1281 4162 
Q 984 4106 628 3988 
L 628 4550 
Q 988 4650 1302 4700 
Q 1616 4750 1894 4750 
Q 2613 4750 3031 4423 
Q 3450 4097 3450 3541 
Q 3450 3153 3228 2886 
Q 3006 2619 2597 2516 
z
" transform="scale(0.015625)"/>
       </defs>
       <use xlink:href="#DejaVuSans-30"/>
       <use xlink:href="#DejaVuSans-2e" transform="translate(63.623047 0)"/>
       <use xlink:href="#DejaVuSans-30" transform="translate(95.410156 0)"/>
       <use xlink:href="#DejaVuSans-33" transform="translate(159.033203 0)"/>
      </g>
     </g>
    </g>
    <g id="ytick_5">
     <g id="line2d_11">
      <g>
       <use xlink:href="#m6317618d59" x="36.465625" y="74.459413" style="stroke: #000000; stroke-width: 0.8"/>
      </g>
     </g>
     <g id="text_11">
      <!-- 0.04 -->
      <g transform="translate(7.2 78.258632) scale(0.1 -0.1)">
       <use xlink:href="#DejaVuSans-30"/>
       <use xlink:href="#DejaVuSans-2e" transform="translate(63.623047 0)"/>
       <use xlink:href="#DejaVuSans-30" transform="translate(95.410156 0)"/>
       <use xlink:href="#DejaVuSans-34" transform="translate(159.033203 0)"/>
      </g>
     </g>
    </g>
    <g id="ytick_6">
     <g id="line2d_12">
      <g>
       <use xlink:href="#m6317618d59" x="36.465625" y="31.83519" style="stroke: #000000; stroke-width: 0.8"/>
      </g>
     </g>
     <g id="text_12">
      <!-- 0.05 -->
      <g transform="translate(7.2 35.634409) scale(0.1 -0.1)">
       <defs>
        <path id="DejaVuSans-35" d="M 691 4666 
L 3169 4666 
L 3169 4134 
L 1269 4134 
L 1269 2991 
Q 1406 3038 1543 3061 
Q 1681 3084 1819 3084 
Q 2600 3084 3056 2656 
Q 3513 2228 3513 1497 
Q 3513 744 3044 326 
Q 2575 -91 1722 -91 
Q 1428 -91 1123 -41 
Q 819 9 494 109 
L 494 744 
Q 775 591 1075 516 
Q 1375 441 1709 441 
Q 2250 441 2565 725 
Q 2881 1009 2881 1497 
Q 2881 1984 2565 2268 
Q 2250 2553 1709 2553 
Q 1456 2553 1204 2497 
Q 953 2441 691 2322 
L 691 4666 
z
" transform="scale(0.015625)"/>
       </defs>
       <use xlink:href="#DejaVuSans-30"/>
       <use xlink:href="#DejaVuSans-2e" transform="translate(63.623047 0)"/>
       <use xlink:href="#DejaVuSans-30" transform="translate(95.410156 0)"/>
       <use xlink:href="#DejaVuSans-35" transform="translate(159.033203 0)"/>
      </g>
     </g>
    </g>
   </g>
   <g id="line2d_13">
    <path d="M 60.370739 244.956307 
L 103.399943 244.855173 
L 148.819659 244.383453 
L 153.600682 244.285062 
L 160.772216 244.301474 
L 163.162727 244.153289 
L 165.553239 244.242295 
L 167.94375 244.112071 
L 175.115284 244.172741 
L 177.505795 243.987086 
L 179.896307 244.039424 
L 194.239375 243.592862 
L 196.629886 243.785721 
L 199.020398 243.796952 
L 201.410909 243.691401 
L 203.80142 243.734496 
L 206.191932 243.485324 
L 210.972955 243.58541 
L 218.144489 243.376745 
L 220.535 243.488861 
L 225.316023 243.221531 
L 227.706534 242.904779 
L 232.487557 243.064475 
L 239.659091 243.027474 
L 242.049602 242.752296 
L 244.440114 242.710387 
L 249.221136 242.187336 
L 251.611648 242.432584 
L 256.39267 242.035722 
L 258.783182 241.780975 
L 261.173693 241.668017 
L 265.954716 242.225772 
L 270.735739 242.328503 
L 273.12625 242.390547 
L 275.516761 242.227525 
L 277.907273 241.714047 
L 280.297784 241.761153 
L 282.688295 241.451091 
L 285.078807 241.018805 
L 287.469318 241.13573 
L 289.85983 241.560663 
L 292.250341 241.584395 
L 294.640852 241.935596 
L 297.031364 242.065532 
L 299.421875 241.48621 
L 301.812386 241.295563 
L 304.202898 241.597811 
L 306.593409 241.432662 
L 308.98392 241.458846 
L 311.374432 241.069961 
L 316.155455 241.660083 
L 318.545966 241.116608 
L 320.936477 240.88553 
L 323.326989 240.939448 
L 328.108011 240.263909 
L 330.498523 240.049813 
L 332.889034 240.016181 
L 335.279545 239.864299 
L 337.670057 239.307422 
L 340.060568 239.8573 
L 344.841591 239.537343 
L 347.232102 238.859936 
L 349.622614 237.914897 
L 352.013125 237.988113 
L 354.403636 237.619992 
L 359.184659 237.817769 
L 361.57517 237.723048 
L 363.965682 238.126222 
L 366.356193 238.166211 
L 368.746705 237.862236 
L 371.137216 237.440492 
L 373.527727 237.220035 
L 375.918239 236.447484 
L 378.30875 236.487605 
L 380.699261 235.510902 
L 383.089773 236.310305 
L 385.480284 234.576711 
L 387.870795 233.670768 
L 390.261307 232.884269 
L 392.651818 232.633836 
L 395.04233 231.470972 
L 397.432841 230.779116 
L 399.823352 231.432751 
L 402.213864 231.504089 
L 404.604375 231.38279 
L 406.994886 232.496064 
L 409.385398 232.685375 
L 411.775909 230.818497 
L 414.16642 230.403386 
L 416.556932 229.451151 
L 418.947443 226.288003 
L 421.337955 226.607734 
L 423.728466 228.585359 
L 426.118977 227.316445 
L 428.509489 225.551882 
L 430.9 225.694142 
L 433.290511 226.844498 
L 435.681023 226.238478 
L 438.071534 224.38916 
L 440.462045 222.884674 
L 442.852557 223.504487 
L 445.243068 221.662073 
L 447.63358 222.783487 
L 450.024091 221.770477 
L 452.414602 223.665463 
L 454.805114 222.073076 
L 457.195625 217.202172 
L 459.586136 217.428843 
L 461.976648 218.059237 
L 464.367159 220.569951 
L 466.75767 218.787241 
L 469.148182 221.288321 
L 471.538693 219.977089 
L 473.929205 219.444983 
L 476.319716 220.46342 
L 478.710227 220.720628 
L 483.49125 219.497702 
L 485.881761 222.399442 
L 488.272273 220.831031 
L 490.662784 222.011298 
L 493.053295 219.961067 
L 495.443807 213.772019 
L 497.834318 209.256873 
L 500.22483 214.977417 
L 502.615341 210.375879 
L 505.005852 197.824688 
L 507.396364 204.096313 
L 509.786875 205.287903 
L 512.177386 202.08241 
L 514.567898 203.017934 
L 516.958409 192.394791 
L 519.34892 187.55442 
L 521.739432 198.162913 
L 524.129943 184.328389 
L 526.520455 185.677504 
L 528.910966 180.661348 
L 531.301477 191.167668 
L 533.691989 170.60806 
L 536.0825 143.204783 
L 538.473011 85.045844 
L 538.473011 85.045844 
" clip-path="url(#pcc38e17e9b)" style="fill: none; stroke: #1f77b4; stroke-width: 1.5; stroke-linecap: square"/>
   </g>
   <g id="line2d_14">
    <path d="M 60.370739 244.956307 
L 342.45108 244.845466 
L 378.30875 244.74264 
L 380.699261 244.498939 
L 399.823352 244.351778 
L 402.213864 244.151941 
L 409.385398 244.107408 
L 411.775909 243.901059 
L 428.509489 243.872081 
L 430.9 243.640602 
L 440.462045 243.474302 
L 442.852557 243.573483 
L 445.243068 243.517192 
L 447.63358 242.43685 
L 450.024091 242.366376 
L 454.805114 242.081104 
L 457.195625 241.357194 
L 459.586136 240.977009 
L 461.976648 238.643861 
L 464.367159 238.516429 
L 466.75767 237.383385 
L 469.148182 239.091202 
L 471.538693 239.235138 
L 473.929205 237.767573 
L 476.319716 237.555581 
L 478.710227 236.395138 
L 481.100739 236.126218 
L 483.49125 235.541909 
L 485.881761 236.31091 
L 488.272273 236.703804 
L 490.662784 237.469079 
L 493.053295 236.655496 
L 495.443807 234.926681 
L 497.834318 232.618783 
L 500.22483 230.690647 
L 502.615341 227.939661 
L 505.005852 223.631743 
L 507.396364 220.837901 
L 509.786875 217.68188 
L 512.177386 214.144636 
L 514.567898 210.111536 
L 516.958409 205.652481 
L 519.34892 200.643017 
L 521.739432 194.852741 
L 524.129943 188.278982 
L 526.520455 180.685467 
L 528.910966 171.745607 
L 531.301477 161.128541 
L 533.691989 147.256132 
L 536.0825 125.827335 
L 538.473011 85.2465 
L 538.473011 85.2465 
" clip-path="url(#pcc38e17e9b)" style="fill: none; stroke: #ff7f0e; stroke-width: 1.5; stroke-linecap: square"/>
   </g>
   <g id="line2d_15">
    <path d="M 60.370739 244.956307 
L 320.936477 244.897226 
L 323.326989 244.765791 
L 356.794148 244.658058 
L 359.184659 244.395186 
L 390.261307 244.340723 
L 395.04233 244.225183 
L 397.432841 244.2175 
L 399.823352 243.269848 
L 418.947443 243.193424 
L 421.337955 242.214292 
L 435.681023 242.205076 
L 438.071534 241.675332 
L 445.243068 241.605979 
L 447.63358 242.084587 
L 452.414602 242.0252 
L 454.805114 239.964354 
L 464.367159 239.798783 
L 466.75767 236.552822 
L 469.148182 236.496735 
L 471.538693 234.549489 
L 473.929205 234.489473 
L 476.319716 231.238482 
L 478.710227 231.162285 
L 481.100739 232.136457 
L 488.272273 231.803795 
L 490.662784 234.17538 
L 493.053295 232.212072 
L 495.443807 219.179505 
L 497.834318 216.103702 
L 502.615341 215.68289 
L 505.005852 217.9084 
L 507.396364 218.035668 
L 512.177386 217.193072 
L 514.567898 195.280642 
L 516.958409 192.961413 
L 519.34892 233.444139 
L 521.739432 168.019196 
L 524.129943 208.582544 
L 526.520455 224.310686 
L 528.910966 215.578262 
L 531.301477 204.994982 
L 533.691989 185.259838 
L 536.0825 159.051921 
L 538.473011 85.65398 
L 538.473011 85.65398 
" clip-path="url(#pcc38e17e9b)" style="fill: none; stroke: #2ca02c; stroke-width: 1.5; stroke-linecap: square"/>
   </g>
   <g id="line2d_16">
    <path d="M 60.370739 244.956307 
L 323.326989 244.897855 
L 328.108011 244.833987 
L 359.184659 244.763129 
L 361.57517 244.609789 
L 392.651818 244.501583 
L 397.432841 244.40177 
L 399.823352 244.393823 
L 402.213864 243.885325 
L 411.775909 243.846082 
L 414.16642 243.317456 
L 421.337955 243.230433 
L 423.728466 243.215068 
L 426.118977 242.875852 
L 428.509489 242.858392 
L 430.9 241.987871 
L 435.681023 241.951525 
L 438.071534 242.85521 
L 440.462045 240.111123 
L 445.243068 240.062773 
L 447.63358 242.817059 
L 450.024091 241.42048 
L 454.805114 241.360083 
L 457.195625 239.855173 
L 466.75767 239.693861 
L 469.148182 239.77103 
L 476.319716 239.550118 
L 478.710227 236.251274 
L 481.100739 230.977277 
L 483.49125 230.902049 
L 485.881761 231.881889 
L 493.053295 231.561815 
L 495.443807 235.878687 
L 497.834318 231.889741 
L 500.22483 218.85062 
L 502.615341 215.733191 
L 507.396364 215.296831 
L 509.786875 216.002539 
L 512.177386 215.667694 
L 514.567898 218.619864 
L 519.34892 217.62467 
L 524.129943 210.857604 
L 526.520455 189.826442 
L 528.910966 212.896854 
L 531.301477 194.620216 
L 533.691989 198.664685 
L 536.0825 193.229401 
L 538.473011 86.738334 
L 538.473011 86.738334 
" clip-path="url(#pcc38e17e9b)" style="fill: none; stroke: #d62728; stroke-width: 1.5; stroke-linecap: square"/>
   </g>
   <g id="line2d_17">
    <path d="M 60.370739 244.956307 
L 289.85983 244.882213 
L 294.640852 244.801699 
L 344.841591 244.737697 
L 347.232102 244.558192 
L 373.527727 244.444345 
L 378.30875 244.372568 
L 380.699261 244.369198 
L 385.480284 243.701803 
L 406.994886 243.678744 
L 409.385398 242.753766 
L 411.775909 242.74552 
L 414.16642 242.326574 
L 418.947443 242.30563 
L 421.337955 241.963815 
L 428.509489 241.924613 
L 430.9 241.781636 
L 433.290511 241.334296 
L 435.681023 241.319178 
L 438.071534 240.156026 
L 440.462045 240.007213 
L 445.243068 239.978582 
L 447.63358 236.836371 
L 450.024091 237.562198 
L 452.414602 235.534919 
L 454.805114 232.381354 
L 457.195625 231.288686 
L 459.586136 231.739366 
L 464.367159 231.684344 
L 466.75767 227.725748 
L 469.148182 227.376882 
L 471.538693 217.05528 
L 473.929205 219.647863 
L 476.319716 218.937228 
L 478.710227 217.211097 
L 481.100739 220.980323 
L 483.49125 221.381502 
L 485.881761 210.343227 
L 488.272273 212.610569 
L 490.662784 184.143041 
L 493.053295 159.586082 
L 495.443807 149.499121 
L 497.834318 159.439978 
L 500.22483 143.400425 
L 502.615341 145.535548 
L 505.005852 132.46068 
L 507.396364 134.859539 
L 509.786875 104.672323 
L 512.177386 111.182147 
L 514.567898 102.156788 
L 516.958409 104.758415 
L 519.34892 112.316813 
L 521.739432 114.879066 
L 524.129943 108.613105 
L 526.520455 119.041678 
L 528.910966 110.235187 
L 531.301477 110.537057 
L 533.691989 76.504397 
L 536.0825 87.08386 
L 538.473011 106.155895 
L 538.473011 106.155895 
" clip-path="url(#pcc38e17e9b)" style="fill: none; stroke: #9467bd; stroke-width: 1.5; stroke-linecap: square"/>
   </g>
   <g id="line2d_18">
    <path d="M 60.370739 244.956307 
L 306.593409 244.896576 
L 311.374432 244.81653 
L 363.965682 244.700926 
L 368.746705 244.654516 
L 371.137216 244.439252 
L 375.918239 244.350022 
L 392.651818 244.2934 
L 397.432841 244.209096 
L 399.823352 243.930466 
L 402.213864 243.792064 
L 409.385398 243.737278 
L 411.775909 243.506194 
L 421.337955 243.427647 
L 426.118977 243.404425 
L 428.509489 243.035795 
L 430.9 242.873834 
L 433.290511 242.861649 
L 435.681023 243.128754 
L 440.462045 243.192819 
L 442.852557 243.14624 
L 445.243068 242.312204 
L 447.63358 242.142711 
L 450.024091 242.142953 
L 452.414602 241.404379 
L 454.805114 241.379737 
L 457.195625 241.476502 
L 459.586136 239.817754 
L 461.976648 237.842205 
L 464.367159 237.953486 
L 471.538693 237.745171 
L 473.929205 239.019084 
L 476.319716 238.848128 
L 478.710227 238.944355 
L 481.100739 233.459886 
L 483.49125 233.422362 
L 485.881761 234.602568 
L 490.662784 233.209984 
L 493.053295 232.833695 
L 495.443807 233.206952 
L 497.834318 232.410187 
L 500.22483 232.797148 
L 502.615341 230.654365 
L 505.005852 230.706626 
L 507.396364 230.167721 
L 509.786875 230.990757 
L 512.177386 220.168506 
L 514.567898 223.279345 
L 516.958409 222.566425 
L 519.34892 221.101665 
L 521.739432 200.270647 
L 524.129943 195.339708 
L 526.520455 153.937861 
L 528.910966 134.508507 
L 531.301477 154.765476 
L 533.691989 32.919943 
L 536.0825 58.27914 
L 538.473011 96.578587 
L 538.473011 96.578587 
" clip-path="url(#pcc38e17e9b)" style="fill: none; stroke: #8c564b; stroke-width: 1.5; stroke-linecap: square"/>
   </g>
   <g id="line2d_19">
    <path d="M 60.370739 244.956307 
L 318.545966 244.897566 
L 323.326989 244.830027 
L 347.232102 244.787975 
L 352.013125 244.688214 
L 378.30875 244.653825 
L 380.699261 244.414544 
L 390.261307 244.427878 
L 395.04233 244.346372 
L 397.432841 244.342639 
L 402.213864 244.101728 
L 404.604375 244.097744 
L 406.994886 243.922792 
L 416.556932 243.814671 
L 418.947443 243.626682 
L 421.337955 243.665388 
L 423.728466 243.480586 
L 430.9 243.428432 
L 433.290511 243.033807 
L 435.681023 242.855141 
L 440.462045 242.861252 
L 442.852557 243.389736 
L 445.243068 243.407909 
L 447.63358 243.186783 
L 450.024091 241.929024 
L 452.414602 241.70173 
L 457.195625 241.715542 
L 459.586136 241.25719 
L 461.976648 241.202103 
L 464.367159 240.432201 
L 466.75767 236.774232 
L 469.148182 236.891619 
L 471.538693 238.41642 
L 473.929205 239.0193 
L 476.319716 238.97992 
L 478.710227 239.682166 
L 481.100739 239.621899 
L 483.49125 239.381804 
L 485.881761 235.535399 
L 488.272273 235.492474 
L 490.662784 236.372791 
L 495.443807 235.292382 
L 497.834318 233.498171 
L 500.22483 233.700503 
L 502.615341 232.348788 
L 505.005852 232.384615 
L 507.396364 231.546216 
L 509.786875 232.733105 
L 512.177386 231.783004 
L 514.567898 232.239486 
L 516.958409 232.334239 
L 519.34892 231.641692 
L 521.739432 232.197063 
L 524.129943 231.48751 
L 526.520455 210.450489 
L 528.910966 196.661859 
L 531.301477 191.939778 
L 533.691989 195.720834 
L 536.0825 116.206982 
L 538.473011 92.802249 
L 538.473011 92.802249 
" clip-path="url(#pcc38e17e9b)" style="fill: none; stroke: #e377c2; stroke-width: 1.5; stroke-linecap: square"/>
   </g>
   <g id="line2d_20">
    <path d="M 60.370739 244.956307 
L 306.593409 244.888742 
L 313.764943 244.806551 
L 347.232102 244.701729 
L 352.013125 244.632613 
L 363.965682 244.609777 
L 366.356193 244.608472 
L 368.746705 244.424976 
L 373.527727 244.463896 
L 397.432841 244.378997 
L 399.823352 244.204307 
L 402.213864 244.199479 
L 404.604375 243.780717 
L 409.385398 243.825719 
L 411.775909 243.812174 
L 414.16642 243.540569 
L 418.947443 243.544771 
L 421.337955 243.759116 
L 428.509489 243.755994 
L 430.9 243.672413 
L 433.290511 243.084967 
L 435.681023 243.086737 
L 438.071534 242.530187 
L 447.63358 242.478923 
L 450.024091 240.998187 
L 452.414602 240.972492 
L 454.805114 241.252413 
L 457.195625 241.219654 
L 459.586136 240.648781 
L 461.976648 240.872346 
L 466.75767 240.816437 
L 469.148182 240.646359 
L 471.538693 240.834874 
L 473.929205 240.18204 
L 476.319716 235.975214 
L 478.710227 231.061176 
L 481.100739 228.725968 
L 483.49125 227.455046 
L 485.881761 229.309594 
L 488.272273 224.398268 
L 490.662784 210.166241 
L 493.053295 204.318256 
L 495.443807 205.10246 
L 497.834318 202.556643 
L 500.22483 201.575727 
L 502.615341 202.300422 
L 505.005852 178.21941 
L 507.396364 179.68115 
L 509.786875 203.662019 
L 512.177386 196.477916 
L 514.567898 196.900476 
L 516.958409 193.847027 
L 519.34892 196.392322 
L 521.739432 190.905979 
L 524.129943 189.730135 
L 526.520455 187.20056 
L 528.910966 182.423084 
L 531.301477 186.489782 
L 533.691989 162.599138 
L 536.0825 147.398244 
L 538.473011 140.147966 
L 538.473011 140.147966 
" clip-path="url(#pcc38e17e9b)" style="fill: none; stroke: #7f7f7f; stroke-width: 1.5; stroke-linecap: square"/>
   </g>
   <g id="line2d_21">
    <path d="M 60.370739 244.956307 
L 347.232102 244.848585 
L 361.57517 244.768642 
L 380.699261 244.726587 
L 383.089773 244.618066 
L 385.480284 244.713601 
L 404.604375 244.190225 
L 418.947443 244.217189 
L 421.337955 244.192063 
L 423.728466 244.038839 
L 426.118977 243.742709 
L 433.290511 243.833558 
L 442.852557 243.837593 
L 445.243068 243.901844 
L 447.63358 243.118239 
L 452.414602 243.084028 
L 454.805114 242.562357 
L 471.538693 242.554321 
L 473.929205 242.124464 
L 476.319716 241.371016 
L 478.710227 241.219702 
L 481.100739 241.460506 
L 485.881761 241.239407 
L 488.272273 241.177627 
L 490.662784 240.205963 
L 493.053295 240.096911 
L 495.443807 238.885166 
L 497.834318 238.616956 
L 500.22483 238.688152 
L 502.615341 238.589607 
L 505.005852 238.125475 
L 507.396364 236.185675 
L 509.786875 234.47147 
L 512.177386 235.717302 
L 514.567898 232.942412 
L 516.958409 230.38674 
L 519.34892 227.451127 
L 521.739432 219.404366 
L 524.129943 187.232001 
L 526.520455 149.33331 
L 528.910966 166.430692 
L 531.301477 156.370925 
L 533.691989 116.006978 
L 536.0825 142.947472 
L 538.473011 140.657464 
L 538.473011 140.657464 
" clip-path="url(#pcc38e17e9b)" style="fill: none; stroke: #bcbd22; stroke-width: 1.5; stroke-linecap: square"/>
   </g>
   <g id="line2d_22">
    <path d="M 60.370739 244.956307 
L 356.794148 244.869895 
L 373.527727 244.768346 
L 399.823352 244.673601 
L 409.385398 244.452921 
L 411.775909 244.424625 
L 414.16642 244.213745 
L 433.290511 244.157276 
L 435.681023 243.722364 
L 440.462045 243.776752 
L 450.024091 243.843326 
L 454.805114 243.79274 
L 457.195625 243.099183 
L 461.976648 243.082809 
L 464.367159 242.477263 
L 466.75767 242.59714 
L 471.538693 242.515159 
L 473.929205 242.099657 
L 483.49125 241.869831 
L 485.881761 242.708978 
L 488.272273 242.352177 
L 490.662784 242.239461 
L 493.053295 240.371055 
L 495.443807 240.315482 
L 497.834318 239.541921 
L 500.22483 239.651663 
L 502.615341 238.236539 
L 505.005852 239.728987 
L 507.396364 239.403757 
L 509.786875 238.331668 
L 512.177386 236.617607 
L 514.567898 234.320725 
L 519.34892 231.762101 
L 521.739432 232.336676 
L 524.129943 229.039919 
L 526.520455 216.327961 
L 528.910966 205.502429 
L 531.301477 181.776972 
L 533.691989 58.67332 
L 536.0825 136.92787 
L 538.473011 142.174662 
L 538.473011 142.174662 
" clip-path="url(#pcc38e17e9b)" style="fill: none; stroke: #17becf; stroke-width: 1.5; stroke-linecap: square"/>
   </g>
   <g id="line2d_23">
    <path d="M 490.662784 255.558125 
L 490.662784 22.318125 
" clip-path="url(#pcc38e17e9b)" style="fill: none; stroke-dasharray: 5.55,2.4; stroke-dashoffset: 0; stroke: #ff0000; stroke-width: 1.5"/>
   </g>
   <g id="patch_3">
    <path d="M 36.465625 255.558125 
L 36.465625 22.318125 
" style="fill: none; stroke: #000000; stroke-width: 0.8; stroke-linejoin: miter; stroke-linecap: square"/>
   </g>
   <g id="patch_4">
    <path d="M 562.378125 255.558125 
L 562.378125 22.318125 
" style="fill: none; stroke: #000000; stroke-width: 0.8; stroke-linejoin: miter; stroke-linecap: square"/>
   </g>
   <g id="patch_5">
    <path d="M 36.465625 255.558125 
L 562.378125 255.558125 
" style="fill: none; stroke: #000000; stroke-width: 0.8; stroke-linejoin: miter; stroke-linecap: square"/>
   </g>
   <g id="patch_6">
    <path d="M 36.465625 22.318125 
L 562.378125 22.318125 
" style="fill: none; stroke: #000000; stroke-width: 0.8; stroke-linejoin: miter; stroke-linecap: square"/>
   </g>
   <g id="text_13">
    <!-- Full Range -->
    <g transform="translate(268.243437 16.318125) scale(0.12 -0.12)">
     <defs>
      <path id="DejaVuSans-46" d="M 628 4666 
L 3309 4666 
L 3309 4134 
L 1259 4134 
L 1259 2759 
L 3109 2759 
L 3109 2228 
L 1259 2228 
L 1259 0 
L 628 0 
L 628 4666 
z
" transform="scale(0.015625)"/>
      <path id="DejaVuSans-75" d="M 544 1381 
L 544 3500 
L 1119 3500 
L 1119 1403 
Q 1119 906 1312 657 
Q 1506 409 1894 409 
Q 2359 409 2629 706 
Q 2900 1003 2900 1516 
L 2900 3500 
L 3475 3500 
L 3475 0 
L 2900 0 
L 2900 538 
Q 2691 219 2414 64 
Q 2138 -91 1772 -91 
Q 1169 -91 856 284 
Q 544 659 544 1381 
z
M 1991 3584 
L 1991 3584 
z
" transform="scale(0.015625)"/>
      <path id="DejaVuSans-6c" d="M 603 4863 
L 1178 4863 
L 1178 0 
L 603 0 
L 603 4863 
z
" transform="scale(0.015625)"/>
      <path id="DejaVuSans-20" transform="scale(0.015625)"/>
      <path id="DejaVuSans-52" d="M 2841 2188 
Q 3044 2119 3236 1894 
Q 3428 1669 3622 1275 
L 4263 0 
L 3584 0 
L 2988 1197 
Q 2756 1666 2539 1819 
Q 2322 1972 1947 1972 
L 1259 1972 
L 1259 0 
L 628 0 
L 628 4666 
L 2053 4666 
Q 2853 4666 3247 4331 
Q 3641 3997 3641 3322 
Q 3641 2881 3436 2590 
Q 3231 2300 2841 2188 
z
M 1259 4147 
L 1259 2491 
L 2053 2491 
Q 2509 2491 2742 2702 
Q 2975 2913 2975 3322 
Q 2975 3731 2742 3939 
Q 2509 4147 2053 4147 
L 1259 4147 
z
" transform="scale(0.015625)"/>
      <path id="DejaVuSans-61" d="M 2194 1759 
Q 1497 1759 1228 1600 
Q 959 1441 959 1056 
Q 959 750 1161 570 
Q 1363 391 1709 391 
Q 2188 391 2477 730 
Q 2766 1069 2766 1631 
L 2766 1759 
L 2194 1759 
z
M 3341 1997 
L 3341 0 
L 2766 0 
L 2766 531 
Q 2569 213 2275 61 
Q 1981 -91 1556 -91 
Q 1019 -91 701 211 
Q 384 513 384 1019 
Q 384 1609 779 1909 
Q 1175 2209 1959 2209 
L 2766 2209 
L 2766 2266 
Q 2766 2663 2505 2880 
Q 2244 3097 1772 3097 
Q 1472 3097 1187 3025 
Q 903 2953 641 2809 
L 641 3341 
Q 956 3463 1253 3523 
Q 1550 3584 1831 3584 
Q 2591 3584 2966 3190 
Q 3341 2797 3341 1997 
z
" transform="scale(0.015625)"/>
      <path id="DejaVuSans-6e" d="M 3513 2113 
L 3513 0 
L 2938 0 
L 2938 2094 
Q 2938 2591 2744 2837 
Q 2550 3084 2163 3084 
Q 1697 3084 1428 2787 
Q 1159 2491 1159 1978 
L 1159 0 
L 581 0 
L 581 3500 
L 1159 3500 
L 1159 2956 
Q 1366 3272 1645 3428 
Q 1925 3584 2291 3584 
Q 2894 3584 3203 3211 
Q 3513 2838 3513 2113 
z
" transform="scale(0.015625)"/>
      <path id="DejaVuSans-67" d="M 2906 1791 
Q 2906 2416 2648 2759 
Q 2391 3103 1925 3103 
Q 1463 3103 1205 2759 
Q 947 2416 947 1791 
Q 947 1169 1205 825 
Q 1463 481 1925 481 
Q 2391 481 2648 825 
Q 2906 1169 2906 1791 
z
M 3481 434 
Q 3481 -459 3084 -895 
Q 2688 -1331 1869 -1331 
Q 1566 -1331 1297 -1286 
Q 1028 -1241 775 -1147 
L 775 -588 
Q 1028 -725 1275 -790 
Q 1522 -856 1778 -856 
Q 2344 -856 2625 -561 
Q 2906 -266 2906 331 
L 2906 616 
Q 2728 306 2450 153 
Q 2172 0 1784 0 
Q 1141 0 747 490 
Q 353 981 353 1791 
Q 353 2603 747 3093 
Q 1141 3584 1784 3584 
Q 2172 3584 2450 3431 
Q 2728 3278 2906 2969 
L 2906 3500 
L 3481 3500 
L 3481 434 
z
" transform="scale(0.015625)"/>
      <path id="DejaVuSans-65" d="M 3597 1894 
L 3597 1613 
L 953 1613 
Q 991 1019 1311 708 
Q 1631 397 2203 397 
Q 2534 397 2845 478 
Q 3156 559 3463 722 
L 3463 178 
Q 3153 47 2828 -22 
Q 2503 -91 2169 -91 
Q 1331 -91 842 396 
Q 353 884 353 1716 
Q 353 2575 817 3079 
Q 1281 3584 2069 3584 
Q 2775 3584 3186 3129 
Q 3597 2675 3597 1894 
z
M 3022 2063 
Q 3016 2534 2758 2815 
Q 2500 3097 2075 3097 
Q 1594 3097 1305 2825 
Q 1016 2553 972 2059 
L 3022 2063 
z
" transform="scale(0.015625)"/>
     </defs>
     <use xlink:href="#DejaVuSans-46"/>
     <use xlink:href="#DejaVuSans-75" transform="translate(52.019531 0)"/>
     <use xlink:href="#DejaVuSans-6c" transform="translate(115.398438 0)"/>
     <use xlink:href="#DejaVuSans-6c" transform="translate(143.181641 0)"/>
     <use xlink:href="#DejaVuSans-20" transform="translate(170.964844 0)"/>
     <use xlink:href="#DejaVuSans-52" transform="translate(202.751953 0)"/>
     <use xlink:href="#DejaVuSans-61" transform="translate(269.984375 0)"/>
     <use xlink:href="#DejaVuSans-6e" transform="translate(331.263672 0)"/>
     <use xlink:href="#DejaVuSans-67" transform="translate(394.642578 0)"/>
     <use xlink:href="#DejaVuSans-65" transform="translate(458.119141 0)"/>
    </g>
   </g>
   <g id="legend_1">
    <g id="patch_7">
     <path d="M 43.465625 191.7775 
L 171.139063 191.7775 
Q 173.139063 191.7775 173.139063 189.7775 
L 173.139063 29.318125 
Q 173.139063 27.318125 171.139063 27.318125 
L 43.465625 27.318125 
Q 41.465625 27.318125 41.465625 29.318125 
L 41.465625 189.7775 
Q 41.465625 191.7775 43.465625 191.7775 
z
" style="fill: #ffffff; opacity: 0.8; stroke: #cccccc; stroke-linejoin: miter"/>
    </g>
    <g id="line2d_24">
     <path d="M 45.465625 35.416562 
L 55.465625 35.416562 
L 65.465625 35.416562 
" style="fill: none; stroke: #1f77b4; stroke-width: 1.5; stroke-linecap: square"/>
    </g>
    <g id="text_14">
     <!-- fft MSE -->
     <g transform="translate(73.465625 38.916562) scale(0.1 -0.1)">
      <defs>
       <path id="DejaVuSans-66" d="M 2375 4863 
L 2375 4384 
L 1825 4384 
Q 1516 4384 1395 4259 
Q 1275 4134 1275 3809 
L 1275 3500 
L 2222 3500 
L 2222 3053 
L 1275 3053 
L 1275 0 
L 697 0 
L 697 3053 
L 147 3053 
L 147 3500 
L 697 3500 
L 697 3744 
Q 697 4328 969 4595 
Q 1241 4863 1831 4863 
L 2375 4863 
z
" transform="scale(0.015625)"/>
       <path id="DejaVuSans-74" d="M 1172 4494 
L 1172 3500 
L 2356 3500 
L 2356 3053 
L 1172 3053 
L 1172 1153 
Q 1172 725 1289 603 
Q 1406 481 1766 481 
L 2356 481 
L 2356 0 
L 1766 0 
Q 1100 0 847 248 
Q 594 497 594 1153 
L 594 3053 
L 172 3053 
L 172 3500 
L 594 3500 
L 594 4494 
L 1172 4494 
z
" transform="scale(0.015625)"/>
       <path id="DejaVuSans-4d" d="M 628 4666 
L 1569 4666 
L 2759 1491 
L 3956 4666 
L 4897 4666 
L 4897 0 
L 4281 0 
L 4281 4097 
L 3078 897 
L 2444 897 
L 1241 4097 
L 1241 0 
L 628 0 
L 628 4666 
z
" transform="scale(0.015625)"/>
       <path id="DejaVuSans-53" d="M 3425 4513 
L 3425 3897 
Q 3066 4069 2747 4153 
Q 2428 4238 2131 4238 
Q 1616 4238 1336 4038 
Q 1056 3838 1056 3469 
Q 1056 3159 1242 3001 
Q 1428 2844 1947 2747 
L 2328 2669 
Q 3034 2534 3370 2195 
Q 3706 1856 3706 1288 
Q 3706 609 3251 259 
Q 2797 -91 1919 -91 
Q 1588 -91 1214 -16 
Q 841 59 441 206 
L 441 856 
Q 825 641 1194 531 
Q 1563 422 1919 422 
Q 2459 422 2753 634 
Q 3047 847 3047 1241 
Q 3047 1584 2836 1778 
Q 2625 1972 2144 2069 
L 1759 2144 
Q 1053 2284 737 2584 
Q 422 2884 422 3419 
Q 422 4038 858 4394 
Q 1294 4750 2059 4750 
Q 2388 4750 2728 4690 
Q 3069 4631 3425 4513 
z
" transform="scale(0.015625)"/>
       <path id="DejaVuSans-45" d="M 628 4666 
L 3578 4666 
L 3578 4134 
L 1259 4134 
L 1259 2753 
L 3481 2753 
L 3481 2222 
L 1259 2222 
L 1259 531 
L 3634 531 
L 3634 0 
L 628 0 
L 628 4666 
z
" transform="scale(0.015625)"/>
      </defs>
      <use xlink:href="#DejaVuSans-66"/>
      <use xlink:href="#DejaVuSans-66" transform="translate(35.205078 0)"/>
      <use xlink:href="#DejaVuSans-74" transform="translate(68.660156 0)"/>
      <use xlink:href="#DejaVuSans-20" transform="translate(107.869141 0)"/>
      <use xlink:href="#DejaVuSans-4d" transform="translate(139.65625 0)"/>
      <use xlink:href="#DejaVuSans-53" transform="translate(225.935547 0)"/>
      <use xlink:href="#DejaVuSans-45" transform="translate(289.412109 0)"/>
     </g>
    </g>
    <g id="line2d_25">
     <path d="M 45.465625 50.094688 
L 55.465625 50.094688 
L 65.465625 50.094688 
" style="fill: none; stroke: #ff7f0e; stroke-width: 1.5; stroke-linecap: square"/>
    </g>
    <g id="text_15">
     <!-- haar MSE (Level 1) -->
     <g transform="translate(73.465625 53.594688) scale(0.1 -0.1)">
      <defs>
       <path id="DejaVuSans-68" d="M 3513 2113 
L 3513 0 
L 2938 0 
L 2938 2094 
Q 2938 2591 2744 2837 
Q 2550 3084 2163 3084 
Q 1697 3084 1428 2787 
Q 1159 2491 1159 1978 
L 1159 0 
L 581 0 
L 581 4863 
L 1159 4863 
L 1159 2956 
Q 1366 3272 1645 3428 
Q 1925 3584 2291 3584 
Q 2894 3584 3203 3211 
Q 3513 2838 3513 2113 
z
" transform="scale(0.015625)"/>
       <path id="DejaVuSans-72" d="M 2631 2963 
Q 2534 3019 2420 3045 
Q 2306 3072 2169 3072 
Q 1681 3072 1420 2755 
Q 1159 2438 1159 1844 
L 1159 0 
L 581 0 
L 581 3500 
L 1159 3500 
L 1159 2956 
Q 1341 3275 1631 3429 
Q 1922 3584 2338 3584 
Q 2397 3584 2469 3576 
Q 2541 3569 2628 3553 
L 2631 2963 
z
" transform="scale(0.015625)"/>
       <path id="DejaVuSans-28" d="M 1984 4856 
Q 1566 4138 1362 3434 
Q 1159 2731 1159 2009 
Q 1159 1288 1364 580 
Q 1569 -128 1984 -844 
L 1484 -844 
Q 1016 -109 783 600 
Q 550 1309 550 2009 
Q 550 2706 781 3412 
Q 1013 4119 1484 4856 
L 1984 4856 
z
" transform="scale(0.015625)"/>
       <path id="DejaVuSans-4c" d="M 628 4666 
L 1259 4666 
L 1259 531 
L 3531 531 
L 3531 0 
L 628 0 
L 628 4666 
z
" transform="scale(0.015625)"/>
       <path id="DejaVuSans-76" d="M 191 3500 
L 800 3500 
L 1894 563 
L 2988 3500 
L 3597 3500 
L 2284 0 
L 1503 0 
L 191 3500 
z
" transform="scale(0.015625)"/>
       <path id="DejaVuSans-29" d="M 513 4856 
L 1013 4856 
Q 1481 4119 1714 3412 
Q 1947 2706 1947 2009 
Q 1947 1309 1714 600 
Q 1481 -109 1013 -844 
L 513 -844 
Q 928 -128 1133 580 
Q 1338 1288 1338 2009 
Q 1338 2731 1133 3434 
Q 928 4138 513 4856 
z
" transform="scale(0.015625)"/>
      </defs>
      <use xlink:href="#DejaVuSans-68"/>
      <use xlink:href="#DejaVuSans-61" transform="translate(63.378906 0)"/>
      <use xlink:href="#DejaVuSans-61" transform="translate(124.658203 0)"/>
      <use xlink:href="#DejaVuSans-72" transform="translate(185.9375 0)"/>
      <use xlink:href="#DejaVuSans-20" transform="translate(227.050781 0)"/>
      <use xlink:href="#DejaVuSans-4d" transform="translate(258.837891 0)"/>
      <use xlink:href="#DejaVuSans-53" transform="translate(345.117188 0)"/>
      <use xlink:href="#DejaVuSans-45" transform="translate(408.59375 0)"/>
      <use xlink:href="#DejaVuSans-20" transform="translate(471.777344 0)"/>
      <use xlink:href="#DejaVuSans-28" transform="translate(503.564453 0)"/>
      <use xlink:href="#DejaVuSans-4c" transform="translate(542.578125 0)"/>
      <use xlink:href="#DejaVuSans-65" transform="translate(596.541016 0)"/>
      <use xlink:href="#DejaVuSans-76" transform="translate(658.064453 0)"/>
      <use xlink:href="#DejaVuSans-65" transform="translate(717.244141 0)"/>
      <use xlink:href="#DejaVuSans-6c" transform="translate(778.767578 0)"/>
      <use xlink:href="#DejaVuSans-20" transform="translate(806.550781 0)"/>
      <use xlink:href="#DejaVuSans-31" transform="translate(838.337891 0)"/>
      <use xlink:href="#DejaVuSans-29" transform="translate(901.960938 0)"/>
     </g>
    </g>
    <g id="line2d_26">
     <path d="M 45.465625 64.772813 
L 55.465625 64.772813 
L 65.465625 64.772813 
" style="fill: none; stroke: #2ca02c; stroke-width: 1.5; stroke-linecap: square"/>
    </g>
    <g id="text_16">
     <!-- haar MSE (Level 2) -->
     <g transform="translate(73.465625 68.272813) scale(0.1 -0.1)">
      <use xlink:href="#DejaVuSans-68"/>
      <use xlink:href="#DejaVuSans-61" transform="translate(63.378906 0)"/>
      <use xlink:href="#DejaVuSans-61" transform="translate(124.658203 0)"/>
      <use xlink:href="#DejaVuSans-72" transform="translate(185.9375 0)"/>
      <use xlink:href="#DejaVuSans-20" transform="translate(227.050781 0)"/>
      <use xlink:href="#DejaVuSans-4d" transform="translate(258.837891 0)"/>
      <use xlink:href="#DejaVuSans-53" transform="translate(345.117188 0)"/>
      <use xlink:href="#DejaVuSans-45" transform="translate(408.59375 0)"/>
      <use xlink:href="#DejaVuSans-20" transform="translate(471.777344 0)"/>
      <use xlink:href="#DejaVuSans-28" transform="translate(503.564453 0)"/>
      <use xlink:href="#DejaVuSans-4c" transform="translate(542.578125 0)"/>
      <use xlink:href="#DejaVuSans-65" transform="translate(596.541016 0)"/>
      <use xlink:href="#DejaVuSans-76" transform="translate(658.064453 0)"/>
      <use xlink:href="#DejaVuSans-65" transform="translate(717.244141 0)"/>
      <use xlink:href="#DejaVuSans-6c" transform="translate(778.767578 0)"/>
      <use xlink:href="#DejaVuSans-20" transform="translate(806.550781 0)"/>
      <use xlink:href="#DejaVuSans-32" transform="translate(838.337891 0)"/>
      <use xlink:href="#DejaVuSans-29" transform="translate(901.960938 0)"/>
     </g>
    </g>
    <g id="line2d_27">
     <path d="M 45.465625 79.450938 
L 55.465625 79.450938 
L 65.465625 79.450938 
" style="fill: none; stroke: #d62728; stroke-width: 1.5; stroke-linecap: square"/>
    </g>
    <g id="text_17">
     <!-- haar MSE (Level 3) -->
     <g transform="translate(73.465625 82.950938) scale(0.1 -0.1)">
      <use xlink:href="#DejaVuSans-68"/>
      <use xlink:href="#DejaVuSans-61" transform="translate(63.378906 0)"/>
      <use xlink:href="#DejaVuSans-61" transform="translate(124.658203 0)"/>
      <use xlink:href="#DejaVuSans-72" transform="translate(185.9375 0)"/>
      <use xlink:href="#DejaVuSans-20" transform="translate(227.050781 0)"/>
      <use xlink:href="#DejaVuSans-4d" transform="translate(258.837891 0)"/>
      <use xlink:href="#DejaVuSans-53" transform="translate(345.117188 0)"/>
      <use xlink:href="#DejaVuSans-45" transform="translate(408.59375 0)"/>
      <use xlink:href="#DejaVuSans-20" transform="translate(471.777344 0)"/>
      <use xlink:href="#DejaVuSans-28" transform="translate(503.564453 0)"/>
      <use xlink:href="#DejaVuSans-4c" transform="translate(542.578125 0)"/>
      <use xlink:href="#DejaVuSans-65" transform="translate(596.541016 0)"/>
      <use xlink:href="#DejaVuSans-76" transform="translate(658.064453 0)"/>
      <use xlink:href="#DejaVuSans-65" transform="translate(717.244141 0)"/>
      <use xlink:href="#DejaVuSans-6c" transform="translate(778.767578 0)"/>
      <use xlink:href="#DejaVuSans-20" transform="translate(806.550781 0)"/>
      <use xlink:href="#DejaVuSans-33" transform="translate(838.337891 0)"/>
      <use xlink:href="#DejaVuSans-29" transform="translate(901.960938 0)"/>
     </g>
    </g>
    <g id="line2d_28">
     <path d="M 45.465625 94.129063 
L 55.465625 94.129063 
L 65.465625 94.129063 
" style="fill: none; stroke: #9467bd; stroke-width: 1.5; stroke-linecap: square"/>
    </g>
    <g id="text_18">
     <!-- db4 MSE (Level 1) -->
     <g transform="translate(73.465625 97.629063) scale(0.1 -0.1)">
      <defs>
       <path id="DejaVuSans-64" d="M 2906 2969 
L 2906 4863 
L 3481 4863 
L 3481 0 
L 2906 0 
L 2906 525 
Q 2725 213 2448 61 
Q 2172 -91 1784 -91 
Q 1150 -91 751 415 
Q 353 922 353 1747 
Q 353 2572 751 3078 
Q 1150 3584 1784 3584 
Q 2172 3584 2448 3432 
Q 2725 3281 2906 2969 
z
M 947 1747 
Q 947 1113 1208 752 
Q 1469 391 1925 391 
Q 2381 391 2643 752 
Q 2906 1113 2906 1747 
Q 2906 2381 2643 2742 
Q 2381 3103 1925 3103 
Q 1469 3103 1208 2742 
Q 947 2381 947 1747 
z
" transform="scale(0.015625)"/>
       <path id="DejaVuSans-62" d="M 3116 1747 
Q 3116 2381 2855 2742 
Q 2594 3103 2138 3103 
Q 1681 3103 1420 2742 
Q 1159 2381 1159 1747 
Q 1159 1113 1420 752 
Q 1681 391 2138 391 
Q 2594 391 2855 752 
Q 3116 1113 3116 1747 
z
M 1159 2969 
Q 1341 3281 1617 3432 
Q 1894 3584 2278 3584 
Q 2916 3584 3314 3078 
Q 3713 2572 3713 1747 
Q 3713 922 3314 415 
Q 2916 -91 2278 -91 
Q 1894 -91 1617 61 
Q 1341 213 1159 525 
L 1159 0 
L 581 0 
L 581 4863 
L 1159 4863 
L 1159 2969 
z
" transform="scale(0.015625)"/>
      </defs>
      <use xlink:href="#DejaVuSans-64"/>
      <use xlink:href="#DejaVuSans-62" transform="translate(63.476562 0)"/>
      <use xlink:href="#DejaVuSans-34" transform="translate(126.953125 0)"/>
      <use xlink:href="#DejaVuSans-20" transform="translate(190.576172 0)"/>
      <use xlink:href="#DejaVuSans-4d" transform="translate(222.363281 0)"/>
      <use xlink:href="#DejaVuSans-53" transform="translate(308.642578 0)"/>
      <use xlink:href="#DejaVuSans-45" transform="translate(372.119141 0)"/>
      <use xlink:href="#DejaVuSans-20" transform="translate(435.302734 0)"/>
      <use xlink:href="#DejaVuSans-28" transform="translate(467.089844 0)"/>
      <use xlink:href="#DejaVuSans-4c" transform="translate(506.103516 0)"/>
      <use xlink:href="#DejaVuSans-65" transform="translate(560.066406 0)"/>
      <use xlink:href="#DejaVuSans-76" transform="translate(621.589844 0)"/>
      <use xlink:href="#DejaVuSans-65" transform="translate(680.769531 0)"/>
      <use xlink:href="#DejaVuSans-6c" transform="translate(742.292969 0)"/>
      <use xlink:href="#DejaVuSans-20" transform="translate(770.076172 0)"/>
      <use xlink:href="#DejaVuSans-31" transform="translate(801.863281 0)"/>
      <use xlink:href="#DejaVuSans-29" transform="translate(865.486328 0)"/>
     </g>
    </g>
    <g id="line2d_29">
     <path d="M 45.465625 108.807187 
L 55.465625 108.807187 
L 65.465625 108.807187 
" style="fill: none; stroke: #8c564b; stroke-width: 1.5; stroke-linecap: square"/>
    </g>
    <g id="text_19">
     <!-- db4 MSE (Level 2) -->
     <g transform="translate(73.465625 112.307187) scale(0.1 -0.1)">
      <use xlink:href="#DejaVuSans-64"/>
      <use xlink:href="#DejaVuSans-62" transform="translate(63.476562 0)"/>
      <use xlink:href="#DejaVuSans-34" transform="translate(126.953125 0)"/>
      <use xlink:href="#DejaVuSans-20" transform="translate(190.576172 0)"/>
      <use xlink:href="#DejaVuSans-4d" transform="translate(222.363281 0)"/>
      <use xlink:href="#DejaVuSans-53" transform="translate(308.642578 0)"/>
      <use xlink:href="#DejaVuSans-45" transform="translate(372.119141 0)"/>
      <use xlink:href="#DejaVuSans-20" transform="translate(435.302734 0)"/>
      <use xlink:href="#DejaVuSans-28" transform="translate(467.089844 0)"/>
      <use xlink:href="#DejaVuSans-4c" transform="translate(506.103516 0)"/>
      <use xlink:href="#DejaVuSans-65" transform="translate(560.066406 0)"/>
      <use xlink:href="#DejaVuSans-76" transform="translate(621.589844 0)"/>
      <use xlink:href="#DejaVuSans-65" transform="translate(680.769531 0)"/>
      <use xlink:href="#DejaVuSans-6c" transform="translate(742.292969 0)"/>
      <use xlink:href="#DejaVuSans-20" transform="translate(770.076172 0)"/>
      <use xlink:href="#DejaVuSans-32" transform="translate(801.863281 0)"/>
      <use xlink:href="#DejaVuSans-29" transform="translate(865.486328 0)"/>
     </g>
    </g>
    <g id="line2d_30">
     <path d="M 45.465625 123.485313 
L 55.465625 123.485313 
L 65.465625 123.485313 
" style="fill: none; stroke: #e377c2; stroke-width: 1.5; stroke-linecap: square"/>
    </g>
    <g id="text_20">
     <!-- db4 MSE (Level 3) -->
     <g transform="translate(73.465625 126.985313) scale(0.1 -0.1)">
      <use xlink:href="#DejaVuSans-64"/>
      <use xlink:href="#DejaVuSans-62" transform="translate(63.476562 0)"/>
      <use xlink:href="#DejaVuSans-34" transform="translate(126.953125 0)"/>
      <use xlink:href="#DejaVuSans-20" transform="translate(190.576172 0)"/>
      <use xlink:href="#DejaVuSans-4d" transform="translate(222.363281 0)"/>
      <use xlink:href="#DejaVuSans-53" transform="translate(308.642578 0)"/>
      <use xlink:href="#DejaVuSans-45" transform="translate(372.119141 0)"/>
      <use xlink:href="#DejaVuSans-20" transform="translate(435.302734 0)"/>
      <use xlink:href="#DejaVuSans-28" transform="translate(467.089844 0)"/>
      <use xlink:href="#DejaVuSans-4c" transform="translate(506.103516 0)"/>
      <use xlink:href="#DejaVuSans-65" transform="translate(560.066406 0)"/>
      <use xlink:href="#DejaVuSans-76" transform="translate(621.589844 0)"/>
      <use xlink:href="#DejaVuSans-65" transform="translate(680.769531 0)"/>
      <use xlink:href="#DejaVuSans-6c" transform="translate(742.292969 0)"/>
      <use xlink:href="#DejaVuSans-20" transform="translate(770.076172 0)"/>
      <use xlink:href="#DejaVuSans-33" transform="translate(801.863281 0)"/>
      <use xlink:href="#DejaVuSans-29" transform="translate(865.486328 0)"/>
     </g>
    </g>
    <g id="line2d_31">
     <path d="M 45.465625 138.163437 
L 55.465625 138.163437 
L 65.465625 138.163437 
" style="fill: none; stroke: #7f7f7f; stroke-width: 1.5; stroke-linecap: square"/>
    </g>
    <g id="text_21">
     <!-- coif3 MSE (Level 1) -->
     <g transform="translate(73.465625 141.663437) scale(0.1 -0.1)">
      <defs>
       <path id="DejaVuSans-63" d="M 3122 3366 
L 3122 2828 
Q 2878 2963 2633 3030 
Q 2388 3097 2138 3097 
Q 1578 3097 1268 2742 
Q 959 2388 959 1747 
Q 959 1106 1268 751 
Q 1578 397 2138 397 
Q 2388 397 2633 464 
Q 2878 531 3122 666 
L 3122 134 
Q 2881 22 2623 -34 
Q 2366 -91 2075 -91 
Q 1284 -91 818 406 
Q 353 903 353 1747 
Q 353 2603 823 3093 
Q 1294 3584 2113 3584 
Q 2378 3584 2631 3529 
Q 2884 3475 3122 3366 
z
" transform="scale(0.015625)"/>
       <path id="DejaVuSans-6f" d="M 1959 3097 
Q 1497 3097 1228 2736 
Q 959 2375 959 1747 
Q 959 1119 1226 758 
Q 1494 397 1959 397 
Q 2419 397 2687 759 
Q 2956 1122 2956 1747 
Q 2956 2369 2687 2733 
Q 2419 3097 1959 3097 
z
M 1959 3584 
Q 2709 3584 3137 3096 
Q 3566 2609 3566 1747 
Q 3566 888 3137 398 
Q 2709 -91 1959 -91 
Q 1206 -91 779 398 
Q 353 888 353 1747 
Q 353 2609 779 3096 
Q 1206 3584 1959 3584 
z
" transform="scale(0.015625)"/>
       <path id="DejaVuSans-69" d="M 603 3500 
L 1178 3500 
L 1178 0 
L 603 0 
L 603 3500 
z
M 603 4863 
L 1178 4863 
L 1178 4134 
L 603 4134 
L 603 4863 
z
" transform="scale(0.015625)"/>
      </defs>
      <use xlink:href="#DejaVuSans-63"/>
      <use xlink:href="#DejaVuSans-6f" transform="translate(54.980469 0)"/>
      <use xlink:href="#DejaVuSans-69" transform="translate(116.162109 0)"/>
      <use xlink:href="#DejaVuSans-66" transform="translate(143.945312 0)"/>
      <use xlink:href="#DejaVuSans-33" transform="translate(179.150391 0)"/>
      <use xlink:href="#DejaVuSans-20" transform="translate(242.773438 0)"/>
      <use xlink:href="#DejaVuSans-4d" transform="translate(274.560547 0)"/>
      <use xlink:href="#DejaVuSans-53" transform="translate(360.839844 0)"/>
      <use xlink:href="#DejaVuSans-45" transform="translate(424.316406 0)"/>
      <use xlink:href="#DejaVuSans-20" transform="translate(487.5 0)"/>
      <use xlink:href="#DejaVuSans-28" transform="translate(519.287109 0)"/>
      <use xlink:href="#DejaVuSans-4c" transform="translate(558.300781 0)"/>
      <use xlink:href="#DejaVuSans-65" transform="translate(612.263672 0)"/>
      <use xlink:href="#DejaVuSans-76" transform="translate(673.787109 0)"/>
      <use xlink:href="#DejaVuSans-65" transform="translate(732.966797 0)"/>
      <use xlink:href="#DejaVuSans-6c" transform="translate(794.490234 0)"/>
      <use xlink:href="#DejaVuSans-20" transform="translate(822.273438 0)"/>
      <use xlink:href="#DejaVuSans-31" transform="translate(854.060547 0)"/>
      <use xlink:href="#DejaVuSans-29" transform="translate(917.683594 0)"/>
     </g>
    </g>
    <g id="line2d_32">
     <path d="M 45.465625 152.841563 
L 55.465625 152.841563 
L 65.465625 152.841563 
" style="fill: none; stroke: #bcbd22; stroke-width: 1.5; stroke-linecap: square"/>
    </g>
    <g id="text_22">
     <!-- coif3 MSE (Level 2) -->
     <g transform="translate(73.465625 156.341563) scale(0.1 -0.1)">
      <use xlink:href="#DejaVuSans-63"/>
      <use xlink:href="#DejaVuSans-6f" transform="translate(54.980469 0)"/>
      <use xlink:href="#DejaVuSans-69" transform="translate(116.162109 0)"/>
      <use xlink:href="#DejaVuSans-66" transform="translate(143.945312 0)"/>
      <use xlink:href="#DejaVuSans-33" transform="translate(179.150391 0)"/>
      <use xlink:href="#DejaVuSans-20" transform="translate(242.773438 0)"/>
      <use xlink:href="#DejaVuSans-4d" transform="translate(274.560547 0)"/>
      <use xlink:href="#DejaVuSans-53" transform="translate(360.839844 0)"/>
      <use xlink:href="#DejaVuSans-45" transform="translate(424.316406 0)"/>
      <use xlink:href="#DejaVuSans-20" transform="translate(487.5 0)"/>
      <use xlink:href="#DejaVuSans-28" transform="translate(519.287109 0)"/>
      <use xlink:href="#DejaVuSans-4c" transform="translate(558.300781 0)"/>
      <use xlink:href="#DejaVuSans-65" transform="translate(612.263672 0)"/>
      <use xlink:href="#DejaVuSans-76" transform="translate(673.787109 0)"/>
      <use xlink:href="#DejaVuSans-65" transform="translate(732.966797 0)"/>
      <use xlink:href="#DejaVuSans-6c" transform="translate(794.490234 0)"/>
      <use xlink:href="#DejaVuSans-20" transform="translate(822.273438 0)"/>
      <use xlink:href="#DejaVuSans-32" transform="translate(854.060547 0)"/>
      <use xlink:href="#DejaVuSans-29" transform="translate(917.683594 0)"/>
     </g>
    </g>
    <g id="line2d_33">
     <path d="M 45.465625 167.519687 
L 55.465625 167.519687 
L 65.465625 167.519687 
" style="fill: none; stroke: #17becf; stroke-width: 1.5; stroke-linecap: square"/>
    </g>
    <g id="text_23">
     <!-- coif3 MSE (Level 3) -->
     <g transform="translate(73.465625 171.019687) scale(0.1 -0.1)">
      <use xlink:href="#DejaVuSans-63"/>
      <use xlink:href="#DejaVuSans-6f" transform="translate(54.980469 0)"/>
      <use xlink:href="#DejaVuSans-69" transform="translate(116.162109 0)"/>
      <use xlink:href="#DejaVuSans-66" transform="translate(143.945312 0)"/>
      <use xlink:href="#DejaVuSans-33" transform="translate(179.150391 0)"/>
      <use xlink:href="#DejaVuSans-20" transform="translate(242.773438 0)"/>
      <use xlink:href="#DejaVuSans-4d" transform="translate(274.560547 0)"/>
      <use xlink:href="#DejaVuSans-53" transform="translate(360.839844 0)"/>
      <use xlink:href="#DejaVuSans-45" transform="translate(424.316406 0)"/>
      <use xlink:href="#DejaVuSans-20" transform="translate(487.5 0)"/>
      <use xlink:href="#DejaVuSans-28" transform="translate(519.287109 0)"/>
      <use xlink:href="#DejaVuSans-4c" transform="translate(558.300781 0)"/>
      <use xlink:href="#DejaVuSans-65" transform="translate(612.263672 0)"/>
      <use xlink:href="#DejaVuSans-76" transform="translate(673.787109 0)"/>
      <use xlink:href="#DejaVuSans-65" transform="translate(732.966797 0)"/>
      <use xlink:href="#DejaVuSans-6c" transform="translate(794.490234 0)"/>
      <use xlink:href="#DejaVuSans-20" transform="translate(822.273438 0)"/>
      <use xlink:href="#DejaVuSans-33" transform="translate(854.060547 0)"/>
      <use xlink:href="#DejaVuSans-29" transform="translate(917.683594 0)"/>
     </g>
    </g>
    <g id="line2d_34">
     <path d="M 45.465625 182.197812 
L 55.465625 182.197812 
L 65.465625 182.197812 
" style="fill: none; stroke-dasharray: 5.55,2.4; stroke-dashoffset: 0; stroke: #ff0000; stroke-width: 1.5"/>
    </g>
    <g id="text_24">
     <!-- 50% compression -->
     <g transform="translate(73.465625 185.697812) scale(0.1 -0.1)">
      <defs>
       <path id="DejaVuSans-25" d="M 4653 2053 
Q 4381 2053 4226 1822 
Q 4072 1591 4072 1178 
Q 4072 772 4226 539 
Q 4381 306 4653 306 
Q 4919 306 5073 539 
Q 5228 772 5228 1178 
Q 5228 1588 5073 1820 
Q 4919 2053 4653 2053 
z
M 4653 2450 
Q 5147 2450 5437 2106 
Q 5728 1763 5728 1178 
Q 5728 594 5436 251 
Q 5144 -91 4653 -91 
Q 4153 -91 3862 251 
Q 3572 594 3572 1178 
Q 3572 1766 3864 2108 
Q 4156 2450 4653 2450 
z
M 1428 4353 
Q 1159 4353 1004 4120 
Q 850 3888 850 3481 
Q 850 3069 1003 2837 
Q 1156 2606 1428 2606 
Q 1700 2606 1854 2837 
Q 2009 3069 2009 3481 
Q 2009 3884 1853 4118 
Q 1697 4353 1428 4353 
z
M 4250 4750 
L 4750 4750 
L 1831 -91 
L 1331 -91 
L 4250 4750 
z
M 1428 4750 
Q 1922 4750 2215 4408 
Q 2509 4066 2509 3481 
Q 2509 2891 2217 2550 
Q 1925 2209 1428 2209 
Q 931 2209 642 2551 
Q 353 2894 353 3481 
Q 353 4063 643 4406 
Q 934 4750 1428 4750 
z
" transform="scale(0.015625)"/>
       <path id="DejaVuSans-6d" d="M 3328 2828 
Q 3544 3216 3844 3400 
Q 4144 3584 4550 3584 
Q 5097 3584 5394 3201 
Q 5691 2819 5691 2113 
L 5691 0 
L 5113 0 
L 5113 2094 
Q 5113 2597 4934 2840 
Q 4756 3084 4391 3084 
Q 3944 3084 3684 2787 
Q 3425 2491 3425 1978 
L 3425 0 
L 2847 0 
L 2847 2094 
Q 2847 2600 2669 2842 
Q 2491 3084 2119 3084 
Q 1678 3084 1418 2786 
Q 1159 2488 1159 1978 
L 1159 0 
L 581 0 
L 581 3500 
L 1159 3500 
L 1159 2956 
Q 1356 3278 1631 3431 
Q 1906 3584 2284 3584 
Q 2666 3584 2933 3390 
Q 3200 3197 3328 2828 
z
" transform="scale(0.015625)"/>
       <path id="DejaVuSans-70" d="M 1159 525 
L 1159 -1331 
L 581 -1331 
L 581 3500 
L 1159 3500 
L 1159 2969 
Q 1341 3281 1617 3432 
Q 1894 3584 2278 3584 
Q 2916 3584 3314 3078 
Q 3713 2572 3713 1747 
Q 3713 922 3314 415 
Q 2916 -91 2278 -91 
Q 1894 -91 1617 61 
Q 1341 213 1159 525 
z
M 3116 1747 
Q 3116 2381 2855 2742 
Q 2594 3103 2138 3103 
Q 1681 3103 1420 2742 
Q 1159 2381 1159 1747 
Q 1159 1113 1420 752 
Q 1681 391 2138 391 
Q 2594 391 2855 752 
Q 3116 1113 3116 1747 
z
" transform="scale(0.015625)"/>
       <path id="DejaVuSans-73" d="M 2834 3397 
L 2834 2853 
Q 2591 2978 2328 3040 
Q 2066 3103 1784 3103 
Q 1356 3103 1142 2972 
Q 928 2841 928 2578 
Q 928 2378 1081 2264 
Q 1234 2150 1697 2047 
L 1894 2003 
Q 2506 1872 2764 1633 
Q 3022 1394 3022 966 
Q 3022 478 2636 193 
Q 2250 -91 1575 -91 
Q 1294 -91 989 -36 
Q 684 19 347 128 
L 347 722 
Q 666 556 975 473 
Q 1284 391 1588 391 
Q 1994 391 2212 530 
Q 2431 669 2431 922 
Q 2431 1156 2273 1281 
Q 2116 1406 1581 1522 
L 1381 1569 
Q 847 1681 609 1914 
Q 372 2147 372 2553 
Q 372 3047 722 3315 
Q 1072 3584 1716 3584 
Q 2034 3584 2315 3537 
Q 2597 3491 2834 3397 
z
" transform="scale(0.015625)"/>
      </defs>
      <use xlink:href="#DejaVuSans-35"/>
      <use xlink:href="#DejaVuSans-30" transform="translate(63.623047 0)"/>
      <use xlink:href="#DejaVuSans-25" transform="translate(127.246094 0)"/>
      <use xlink:href="#DejaVuSans-20" transform="translate(222.265625 0)"/>
      <use xlink:href="#DejaVuSans-63" transform="translate(254.052734 0)"/>
      <use xlink:href="#DejaVuSans-6f" transform="translate(309.033203 0)"/>
      <use xlink:href="#DejaVuSans-6d" transform="translate(370.214844 0)"/>
      <use xlink:href="#DejaVuSans-70" transform="translate(467.626953 0)"/>
      <use xlink:href="#DejaVuSans-72" transform="translate(531.103516 0)"/>
      <use xlink:href="#DejaVuSans-65" transform="translate(569.966797 0)"/>
      <use xlink:href="#DejaVuSans-73" transform="translate(631.490234 0)"/>
      <use xlink:href="#DejaVuSans-73" transform="translate(683.589844 0)"/>
      <use xlink:href="#DejaVuSans-69" transform="translate(735.689453 0)"/>
      <use xlink:href="#DejaVuSans-6f" transform="translate(763.472656 0)"/>
      <use xlink:href="#DejaVuSans-6e" transform="translate(824.654297 0)"/>
     </g>
    </g>
   </g>
  </g>
  <g id="axes_2">
   <g id="patch_8">
    <path d="M 602.318125 255.558125 
L 1128.230625 255.558125 
L 1128.230625 22.318125 
L 602.318125 22.318125 
L 602.318125 255.558125 
z
" style="fill: none"/>
   </g>
   <g id="matplotlib.axis_3">
    <g id="xtick_7">
     <g id="line2d_35">
      <g>
       <use xlink:href="#m7856d03e40" x="602.318125" y="255.558125" style="stroke: #000000; stroke-width: 0.8"/>
      </g>
     </g>
     <g id="text_25">
      <!-- 90 -->
      <g transform="translate(595.955625 270.156563) scale(0.1 -0.1)">
       <defs>
        <path id="DejaVuSans-39" d="M 703 97 
L 703 672 
Q 941 559 1184 500 
Q 1428 441 1663 441 
Q 2288 441 2617 861 
Q 2947 1281 2994 2138 
Q 2813 1869 2534 1725 
Q 2256 1581 1919 1581 
Q 1219 1581 811 2004 
Q 403 2428 403 3163 
Q 403 3881 828 4315 
Q 1253 4750 1959 4750 
Q 2769 4750 3195 4129 
Q 3622 3509 3622 2328 
Q 3622 1225 3098 567 
Q 2575 -91 1691 -91 
Q 1453 -91 1209 -44 
Q 966 3 703 97 
z
M 1959 2075 
Q 2384 2075 2632 2365 
Q 2881 2656 2881 3163 
Q 2881 3666 2632 3958 
Q 2384 4250 1959 4250 
Q 1534 4250 1286 3958 
Q 1038 3666 1038 3163 
Q 1038 2656 1286 2365 
Q 1534 2075 1959 2075 
z
" transform="scale(0.015625)"/>
       </defs>
       <use xlink:href="#DejaVuSans-39"/>
       <use xlink:href="#DejaVuSans-30" transform="translate(63.623047 0)"/>
      </g>
     </g>
    </g>
    <g id="xtick_8">
     <g id="line2d_36">
      <g>
       <use xlink:href="#m7856d03e40" x="707.500625" y="255.558125" style="stroke: #000000; stroke-width: 0.8"/>
      </g>
     </g>
     <g id="text_26">
      <!-- 92 -->
      <g transform="translate(701.138125 270.156563) scale(0.1 -0.1)">
       <use xlink:href="#DejaVuSans-39"/>
       <use xlink:href="#DejaVuSans-32" transform="translate(63.623047 0)"/>
      </g>
     </g>
    </g>
    <g id="xtick_9">
     <g id="line2d_37">
      <g>
       <use xlink:href="#m7856d03e40" x="812.683125" y="255.558125" style="stroke: #000000; stroke-width: 0.8"/>
      </g>
     </g>
     <g id="text_27">
      <!-- 94 -->
      <g transform="translate(806.320625 270.156563) scale(0.1 -0.1)">
       <use xlink:href="#DejaVuSans-39"/>
       <use xlink:href="#DejaVuSans-34" transform="translate(63.623047 0)"/>
      </g>
     </g>
    </g>
    <g id="xtick_10">
     <g id="line2d_38">
      <g>
       <use xlink:href="#m7856d03e40" x="917.865625" y="255.558125" style="stroke: #000000; stroke-width: 0.8"/>
      </g>
     </g>
     <g id="text_28">
      <!-- 96 -->
      <g transform="translate(911.503125 270.156563) scale(0.1 -0.1)">
       <use xlink:href="#DejaVuSans-39"/>
       <use xlink:href="#DejaVuSans-36" transform="translate(63.623047 0)"/>
      </g>
     </g>
    </g>
    <g id="xtick_11">
     <g id="line2d_39">
      <g>
       <use xlink:href="#m7856d03e40" x="1023.048125" y="255.558125" style="stroke: #000000; stroke-width: 0.8"/>
      </g>
     </g>
     <g id="text_29">
      <!-- 98 -->
      <g transform="translate(1016.685625 270.156563) scale(0.1 -0.1)">
       <use xlink:href="#DejaVuSans-39"/>
       <use xlink:href="#DejaVuSans-38" transform="translate(63.623047 0)"/>
      </g>
     </g>
    </g>
    <g id="xtick_12">
     <g id="line2d_40">
      <g>
       <use xlink:href="#m7856d03e40" x="1128.230625" y="255.558125" style="stroke: #000000; stroke-width: 0.8"/>
      </g>
     </g>
     <g id="text_30">
      <!-- 100 -->
      <g transform="translate(1118.686875 270.156563) scale(0.1 -0.1)">
       <use xlink:href="#DejaVuSans-31"/>
       <use xlink:href="#DejaVuSans-30" transform="translate(63.623047 0)"/>
       <use xlink:href="#DejaVuSans-30" transform="translate(127.246094 0)"/>
      </g>
     </g>
    </g>
   </g>
   <g id="matplotlib.axis_4">
    <g id="ytick_7">
     <g id="line2d_41">
      <g>
       <use xlink:href="#m6317618d59" x="602.318125" y="244.956307" style="stroke: #000000; stroke-width: 0.8"/>
      </g>
     </g>
     <g id="text_31">
      <!-- 0.00 -->
      <g transform="translate(573.0525 248.755526) scale(0.1 -0.1)">
       <use xlink:href="#DejaVuSans-30"/>
       <use xlink:href="#DejaVuSans-2e" transform="translate(63.623047 0)"/>
       <use xlink:href="#DejaVuSans-30" transform="translate(95.410156 0)"/>
       <use xlink:href="#DejaVuSans-30" transform="translate(159.033203 0)"/>
      </g>
     </g>
    </g>
    <g id="ytick_8">
     <g id="line2d_42">
      <g>
       <use xlink:href="#m6317618d59" x="602.318125" y="202.332083" style="stroke: #000000; stroke-width: 0.8"/>
      </g>
     </g>
     <g id="text_32">
      <!-- 0.01 -->
      <g transform="translate(573.0525 206.131302) scale(0.1 -0.1)">
       <use xlink:href="#DejaVuSans-30"/>
       <use xlink:href="#DejaVuSans-2e" transform="translate(63.623047 0)"/>
       <use xlink:href="#DejaVuSans-30" transform="translate(95.410156 0)"/>
       <use xlink:href="#DejaVuSans-31" transform="translate(159.033203 0)"/>
      </g>
     </g>
    </g>
    <g id="ytick_9">
     <g id="line2d_43">
      <g>
       <use xlink:href="#m6317618d59" x="602.318125" y="159.70786" style="stroke: #000000; stroke-width: 0.8"/>
      </g>
     </g>
     <g id="text_33">
      <!-- 0.02 -->
      <g transform="translate(573.0525 163.507079) scale(0.1 -0.1)">
       <use xlink:href="#DejaVuSans-30"/>
       <use xlink:href="#DejaVuSans-2e" transform="translate(63.623047 0)"/>
       <use xlink:href="#DejaVuSans-30" transform="translate(95.410156 0)"/>
       <use xlink:href="#DejaVuSans-32" transform="translate(159.033203 0)"/>
      </g>
     </g>
    </g>
    <g id="ytick_10">
     <g id="line2d_44">
      <g>
       <use xlink:href="#m6317618d59" x="602.318125" y="117.083637" style="stroke: #000000; stroke-width: 0.8"/>
      </g>
     </g>
     <g id="text_34">
      <!-- 0.03 -->
      <g transform="translate(573.0525 120.882855) scale(0.1 -0.1)">
       <use xlink:href="#DejaVuSans-30"/>
       <use xlink:href="#DejaVuSans-2e" transform="translate(63.623047 0)"/>
       <use xlink:href="#DejaVuSans-30" transform="translate(95.410156 0)"/>
       <use xlink:href="#DejaVuSans-33" transform="translate(159.033203 0)"/>
      </g>
     </g>
    </g>
    <g id="ytick_11">
     <g id="line2d_45">
      <g>
       <use xlink:href="#m6317618d59" x="602.318125" y="74.459413" style="stroke: #000000; stroke-width: 0.8"/>
      </g>
     </g>
     <g id="text_35">
      <!-- 0.04 -->
      <g transform="translate(573.0525 78.258632) scale(0.1 -0.1)">
       <use xlink:href="#DejaVuSans-30"/>
       <use xlink:href="#DejaVuSans-2e" transform="translate(63.623047 0)"/>
       <use xlink:href="#DejaVuSans-30" transform="translate(95.410156 0)"/>
       <use xlink:href="#DejaVuSans-34" transform="translate(159.033203 0)"/>
      </g>
     </g>
    </g>
    <g id="ytick_12">
     <g id="line2d_46">
      <g>
       <use xlink:href="#m6317618d59" x="602.318125" y="31.83519" style="stroke: #000000; stroke-width: 0.8"/>
      </g>
     </g>
     <g id="text_36">
      <!-- 0.05 -->
      <g transform="translate(573.0525 35.634409) scale(0.1 -0.1)">
       <use xlink:href="#DejaVuSans-30"/>
       <use xlink:href="#DejaVuSans-2e" transform="translate(63.623047 0)"/>
       <use xlink:href="#DejaVuSans-30" transform="translate(95.410156 0)"/>
       <use xlink:href="#DejaVuSans-35" transform="translate(159.033203 0)"/>
      </g>
     </g>
    </g>
   </g>
   <g id="line2d_47">
    <path d="M -1 226.134304 
L 23.814375 224.38916 
L 50.11 222.884674 
L 76.405625 223.504487 
L 102.70125 221.662073 
L 128.996875 222.783487 
L 155.2925 221.770477 
L 181.588125 223.665463 
L 207.88375 222.073076 
L 234.179375 217.202172 
L 260.475 217.428843 
L 286.770625 218.059237 
L 313.06625 220.569951 
L 339.361875 218.787241 
L 365.6575 221.288321 
L 391.953125 219.977089 
L 418.24875 219.444983 
L 444.544375 220.46342 
L 470.84 220.720628 
L 523.43125 219.497702 
L 549.726875 222.399442 
L 576.0225 220.831031 
L 602.318125 222.011298 
L 628.61375 219.961067 
L 654.909375 213.772019 
L 681.205 209.256873 
L 707.500625 214.977417 
L 733.79625 210.375879 
L 760.091875 197.824688 
L 786.3875 204.096313 
L 812.683125 205.287903 
L 838.97875 202.08241 
L 865.274375 203.017934 
L 891.57 192.394791 
L 917.865625 187.55442 
L 944.16125 198.162913 
L 970.456875 184.328389 
L 996.7525 185.677504 
L 1023.048125 180.661348 
L 1049.34375 191.167668 
L 1075.639375 170.60806 
L 1101.935 143.204783 
L 1128.230625 85.045844 
L 1128.230625 85.045844 
" clip-path="url(#p9b2c83a677)" style="fill: none; stroke: #1f77b4; stroke-width: 1.5; stroke-linecap: square"/>
   </g>
   <g id="line2d_48">
    <path d="M -1 243.564851 
L 50.11 243.474302 
L 76.405625 243.573483 
L 102.70125 243.517192 
L 128.996875 242.43685 
L 155.2925 242.366376 
L 207.88375 242.081104 
L 234.179375 241.357194 
L 260.475 240.977009 
L 286.770625 238.643861 
L 313.06625 238.516429 
L 339.361875 237.383385 
L 365.6575 239.091202 
L 391.953125 239.235138 
L 418.24875 237.767573 
L 444.544375 237.555581 
L 470.84 236.395138 
L 497.135625 236.126218 
L 523.43125 235.541909 
L 549.726875 236.31091 
L 576.0225 236.703804 
L 602.318125 237.469079 
L 628.61375 236.655496 
L 654.909375 234.926681 
L 681.205 232.618783 
L 707.500625 230.690647 
L 733.79625 227.939661 
L 760.091875 223.631743 
L 786.3875 220.837901 
L 812.683125 217.68188 
L 838.97875 214.144636 
L 865.274375 210.111536 
L 891.57 205.652481 
L 917.865625 200.643017 
L 944.16125 194.852741 
L 970.456875 188.278982 
L 996.7525 180.685467 
L 1023.048125 171.745607 
L 1049.34375 161.128541 
L 1075.639375 147.256132 
L 1101.935 125.827335 
L 1128.230625 85.2465 
L 1128.230625 85.2465 
" clip-path="url(#p9b2c83a677)" style="fill: none; stroke: #ff7f0e; stroke-width: 1.5; stroke-linecap: square"/>
   </g>
   <g id="line2d_49">
    <path d="M -1 242.175236 
L 23.814375 241.675332 
L 102.70125 241.605979 
L 128.996875 242.084587 
L 181.588125 242.0252 
L 207.88375 239.964354 
L 313.06625 239.798783 
L 339.361875 236.552822 
L 365.6575 236.496735 
L 391.953125 234.549489 
L 418.24875 234.489473 
L 444.544375 231.238482 
L 470.84 231.162285 
L 497.135625 232.136457 
L 576.0225 231.803795 
L 602.318125 234.17538 
L 628.61375 232.212072 
L 654.909375 219.179505 
L 681.205 216.103702 
L 733.79625 215.68289 
L 760.091875 217.9084 
L 786.3875 218.035668 
L 838.97875 217.193072 
L 865.274375 195.280642 
L 891.57 192.961413 
L 917.865625 233.444139 
L 944.16125 168.019196 
L 970.456875 208.582544 
L 996.7525 224.310686 
L 1023.048125 215.578262 
L 1049.34375 204.994982 
L 1075.639375 185.259838 
L 1101.935 159.051921 
L 1128.230625 85.65398 
L 1128.230625 85.65398 
" clip-path="url(#p9b2c83a677)" style="fill: none; stroke: #2ca02c; stroke-width: 1.5; stroke-linecap: square"/>
   </g>
   <g id="line2d_50">
    <path d="M -1 242.00243 
L 23.814375 242.85521 
L 50.11 240.111123 
L 102.70125 240.062773 
L 128.996875 242.817059 
L 155.2925 241.42048 
L 207.88375 241.360083 
L 234.179375 239.855173 
L 339.361875 239.693861 
L 365.6575 239.77103 
L 444.544375 239.550118 
L 470.84 236.251274 
L 497.135625 230.977277 
L 523.43125 230.902049 
L 549.726875 231.881889 
L 628.61375 231.561815 
L 654.909375 235.878687 
L 681.205 231.889741 
L 707.500625 218.85062 
L 733.79625 215.733191 
L 786.3875 215.296831 
L 812.683125 216.002539 
L 838.97875 215.667694 
L 865.274375 218.619864 
L 917.865625 217.62467 
L 944.16125 214.306078 
L 970.456875 210.857604 
L 996.7525 189.826442 
L 1023.048125 212.896854 
L 1049.34375 194.620216 
L 1075.639375 198.664685 
L 1101.935 193.229401 
L 1128.230625 86.738334 
L 1128.230625 86.738334 
" clip-path="url(#p9b2c83a677)" style="fill: none; stroke: #d62728; stroke-width: 1.5; stroke-linecap: square"/>
   </g>
   <g id="line2d_51">
    <path d="M -1 241.253657 
L 23.814375 240.156026 
L 50.11 240.007213 
L 102.70125 239.978582 
L 128.996875 236.836371 
L 155.2925 237.562198 
L 181.588125 235.534919 
L 207.88375 232.381354 
L 234.179375 231.288686 
L 260.475 231.739366 
L 313.06625 231.684344 
L 339.361875 227.725748 
L 365.6575 227.376882 
L 391.953125 217.05528 
L 418.24875 219.647863 
L 444.544375 218.937228 
L 470.84 217.211097 
L 497.135625 220.980323 
L 523.43125 221.381502 
L 549.726875 210.343227 
L 576.0225 212.610569 
L 602.318125 184.143041 
L 628.61375 159.586082 
L 654.909375 149.499121 
L 681.205 159.439978 
L 707.500625 143.400425 
L 733.79625 145.535548 
L 760.091875 132.46068 
L 786.3875 134.859539 
L 812.683125 104.672323 
L 838.97875 111.182147 
L 865.274375 102.156788 
L 891.57 104.758415 
L 917.865625 112.316813 
L 944.16125 114.879066 
L 970.456875 108.613105 
L 996.7525 119.041678 
L 1023.048125 110.235187 
L 1049.34375 110.537057 
L 1075.639375 76.504397 
L 1101.935 87.08386 
L 1128.230625 106.155895 
L 1128.230625 106.155895 
" clip-path="url(#p9b2c83a677)" style="fill: none; stroke: #9467bd; stroke-width: 1.5; stroke-linecap: square"/>
   </g>
   <g id="line2d_52">
    <path d="M -1 243.133007 
L 50.11 243.192819 
L 76.405625 243.14624 
L 102.70125 242.312204 
L 128.996875 242.142711 
L 155.2925 242.142953 
L 181.588125 241.404379 
L 207.88375 241.379737 
L 234.179375 241.476502 
L 260.475 239.817754 
L 286.770625 237.842205 
L 313.06625 237.953486 
L 391.953125 237.745171 
L 418.24875 239.019084 
L 444.544375 238.848128 
L 470.84 238.944355 
L 497.135625 233.459886 
L 523.43125 233.422362 
L 549.726875 234.602568 
L 602.318125 233.209984 
L 628.61375 232.833695 
L 654.909375 233.206952 
L 681.205 232.410187 
L 707.500625 232.797148 
L 733.79625 230.654365 
L 760.091875 230.706626 
L 786.3875 230.167721 
L 812.683125 230.990757 
L 838.97875 220.168506 
L 865.274375 223.279345 
L 891.57 222.566425 
L 917.865625 221.101665 
L 944.16125 200.270647 
L 970.456875 195.339708 
L 996.7525 153.937861 
L 1023.048125 134.508507 
L 1049.34375 154.765476 
L 1075.639375 32.919943 
L 1101.935 58.27914 
L 1128.230625 96.578587 
L 1128.230625 96.578587 
" clip-path="url(#p9b2c83a677)" style="fill: none; stroke: #8c564b; stroke-width: 1.5; stroke-linecap: square"/>
   </g>
   <g id="line2d_53">
    <path d="M -1 242.854525 
L 50.11 242.861252 
L 76.405625 243.389736 
L 102.70125 243.407909 
L 128.996875 243.186783 
L 155.2925 241.929024 
L 181.588125 241.70173 
L 234.179375 241.715542 
L 260.475 241.25719 
L 286.770625 241.202103 
L 313.06625 240.432201 
L 339.361875 236.774232 
L 365.6575 236.891619 
L 391.953125 238.41642 
L 418.24875 239.0193 
L 444.544375 238.97992 
L 470.84 239.682166 
L 497.135625 239.621899 
L 523.43125 239.381804 
L 549.726875 235.535399 
L 576.0225 235.492474 
L 602.318125 236.372791 
L 654.909375 235.292382 
L 681.205 233.498171 
L 707.500625 233.700503 
L 733.79625 232.348788 
L 760.091875 232.384615 
L 786.3875 231.546216 
L 812.683125 232.733105 
L 838.97875 231.783004 
L 865.274375 232.239486 
L 891.57 232.334239 
L 917.865625 231.641692 
L 944.16125 232.197063 
L 970.456875 231.48751 
L 996.7525 210.450489 
L 1023.048125 196.661859 
L 1049.34375 191.939778 
L 1075.639375 195.720834 
L 1101.935 116.206982 
L 1128.230625 92.802249 
L 1128.230625 92.802249 
" clip-path="url(#p9b2c83a677)" style="fill: none; stroke: #e377c2; stroke-width: 1.5; stroke-linecap: square"/>
   </g>
   <g id="line2d_54">
    <path d="M -1 243.055386 
L 23.814375 242.530187 
L 128.996875 242.478923 
L 155.2925 240.998187 
L 181.588125 240.972492 
L 207.88375 241.252413 
L 234.179375 241.219654 
L 260.475 240.648781 
L 286.770625 240.872346 
L 339.361875 240.816437 
L 365.6575 240.646359 
L 391.953125 240.834874 
L 418.24875 240.18204 
L 444.544375 235.975214 
L 470.84 231.061176 
L 497.135625 228.725968 
L 523.43125 227.455046 
L 549.726875 229.309594 
L 576.0225 224.398268 
L 602.318125 210.166241 
L 628.61375 204.318256 
L 654.909375 205.10246 
L 681.205 202.556643 
L 707.500625 201.575727 
L 733.79625 202.300422 
L 760.091875 178.21941 
L 786.3875 179.68115 
L 812.683125 203.662019 
L 838.97875 196.477916 
L 865.274375 196.900476 
L 891.57 193.847027 
L 917.865625 196.392322 
L 944.16125 190.905979 
L 970.456875 189.730135 
L 996.7525 187.20056 
L 1023.048125 182.423084 
L 1049.34375 186.489782 
L 1075.639375 162.599138 
L 1101.935 147.398244 
L 1128.230625 140.147966 
L 1128.230625 140.147966 
" clip-path="url(#p9b2c83a677)" style="fill: none; stroke: #7f7f7f; stroke-width: 1.5; stroke-linecap: square"/>
   </g>
   <g id="line2d_55">
    <path d="M -1 243.815973 
L 76.405625 243.837593 
L 102.70125 243.901844 
L 128.996875 243.118239 
L 181.588125 243.084028 
L 207.88375 242.562357 
L 391.953125 242.554321 
L 418.24875 242.124464 
L 444.544375 241.371016 
L 470.84 241.219702 
L 497.135625 241.460506 
L 549.726875 241.239407 
L 576.0225 241.177627 
L 602.318125 240.205963 
L 628.61375 240.096911 
L 654.909375 238.885166 
L 681.205 238.616956 
L 707.500625 238.688152 
L 733.79625 238.589607 
L 760.091875 238.125475 
L 786.3875 236.185675 
L 812.683125 234.47147 
L 838.97875 235.717302 
L 865.274375 232.942412 
L 891.57 230.38674 
L 917.865625 227.451127 
L 944.16125 219.404366 
L 970.456875 187.232001 
L 996.7525 149.33331 
L 1023.048125 166.430692 
L 1049.34375 156.370925 
L 1075.639375 116.006978 
L 1101.935 142.947472 
L 1128.230625 140.657464 
L 1128.230625 140.657464 
" clip-path="url(#p9b2c83a677)" style="fill: none; stroke: #bcbd22; stroke-width: 1.5; stroke-linecap: square"/>
   </g>
   <g id="line2d_56">
    <path d="M -1 243.721208 
L 50.11 243.776752 
L 155.2925 243.843326 
L 207.88375 243.79274 
L 234.179375 243.099183 
L 286.770625 243.082809 
L 313.06625 242.477263 
L 339.361875 242.59714 
L 391.953125 242.515159 
L 418.24875 242.099657 
L 523.43125 241.869831 
L 549.726875 242.708978 
L 576.0225 242.352177 
L 602.318125 242.239461 
L 628.61375 240.371055 
L 654.909375 240.315482 
L 681.205 239.541921 
L 707.500625 239.651663 
L 733.79625 238.236539 
L 760.091875 239.728987 
L 786.3875 239.403757 
L 812.683125 238.331668 
L 838.97875 236.617607 
L 865.274375 234.320725 
L 917.865625 231.762101 
L 944.16125 232.336676 
L 970.456875 229.039919 
L 996.7525 216.327961 
L 1023.048125 205.502429 
L 1049.34375 181.776972 
L 1075.639375 58.67332 
L 1101.935 136.92787 
L 1128.230625 142.174662 
L 1128.230625 142.174662 
" clip-path="url(#p9b2c83a677)" style="fill: none; stroke: #17becf; stroke-width: 1.5; stroke-linecap: square"/>
   </g>
   <g id="patch_9">
    <path d="M 602.318125 255.558125 
L 602.318125 22.318125 
" style="fill: none; stroke: #000000; stroke-width: 0.8; stroke-linejoin: miter; stroke-linecap: square"/>
   </g>
   <g id="patch_10">
    <path d="M 1128.230625 255.558125 
L 1128.230625 22.318125 
" style="fill: none; stroke: #000000; stroke-width: 0.8; stroke-linejoin: miter; stroke-linecap: square"/>
   </g>
   <g id="patch_11">
    <path d="M 602.318125 255.558125 
L 1128.230625 255.558125 
" style="fill: none; stroke: #000000; stroke-width: 0.8; stroke-linejoin: miter; stroke-linecap: square"/>
   </g>
   <g id="patch_12">
    <path d="M 602.318125 22.318125 
L 1128.230625 22.318125 
" style="fill: none; stroke: #000000; stroke-width: 0.8; stroke-linejoin: miter; stroke-linecap: square"/>
   </g>
   <g id="text_37">
    <!-- Zoomed In (90-100%) -->
    <g transform="translate(799.455312 16.318125) scale(0.12 -0.12)">
     <defs>
      <path id="DejaVuSans-5a" d="M 359 4666 
L 4025 4666 
L 4025 4184 
L 1075 531 
L 4097 531 
L 4097 0 
L 288 0 
L 288 481 
L 3238 4134 
L 359 4134 
L 359 4666 
z
" transform="scale(0.015625)"/>
      <path id="DejaVuSans-49" d="M 628 4666 
L 1259 4666 
L 1259 0 
L 628 0 
L 628 4666 
z
" transform="scale(0.015625)"/>
      <path id="DejaVuSans-2d" d="M 313 2009 
L 1997 2009 
L 1997 1497 
L 313 1497 
L 313 2009 
z
" transform="scale(0.015625)"/>
     </defs>
     <use xlink:href="#DejaVuSans-5a"/>
     <use xlink:href="#DejaVuSans-6f" transform="translate(68.505859 0)"/>
     <use xlink:href="#DejaVuSans-6f" transform="translate(129.6875 0)"/>
     <use xlink:href="#DejaVuSans-6d" transform="translate(190.869141 0)"/>
     <use xlink:href="#DejaVuSans-65" transform="translate(288.28125 0)"/>
     <use xlink:href="#DejaVuSans-64" transform="translate(349.804688 0)"/>
     <use xlink:href="#DejaVuSans-20" transform="translate(413.28125 0)"/>
     <use xlink:href="#DejaVuSans-49" transform="translate(445.068359 0)"/>
     <use xlink:href="#DejaVuSans-6e" transform="translate(474.560547 0)"/>
     <use xlink:href="#DejaVuSans-20" transform="translate(537.939453 0)"/>
     <use xlink:href="#DejaVuSans-28" transform="translate(569.726562 0)"/>
     <use xlink:href="#DejaVuSans-39" transform="translate(608.740234 0)"/>
     <use xlink:href="#DejaVuSans-30" transform="translate(672.363281 0)"/>
     <use xlink:href="#DejaVuSans-2d" transform="translate(735.986328 0)"/>
     <use xlink:href="#DejaVuSans-31" transform="translate(772.070312 0)"/>
     <use xlink:href="#DejaVuSans-30" transform="translate(835.693359 0)"/>
     <use xlink:href="#DejaVuSans-30" transform="translate(899.316406 0)"/>
     <use xlink:href="#DejaVuSans-25" transform="translate(962.939453 0)"/>
     <use xlink:href="#DejaVuSans-29" transform="translate(1057.958984 0)"/>
    </g>
   </g>
   <g id="legend_2">
    <g id="patch_13">
     <path d="M 609.318125 177.099375 
L 736.991562 177.099375 
Q 738.991562 177.099375 738.991562 175.099375 
L 738.991562 29.318125 
Q 738.991562 27.318125 736.991562 27.318125 
L 609.318125 27.318125 
Q 607.318125 27.318125 607.318125 29.318125 
L 607.318125 175.099375 
Q 607.318125 177.099375 609.318125 177.099375 
z
" style="fill: #ffffff; opacity: 0.8; stroke: #cccccc; stroke-linejoin: miter"/>
    </g>
    <g id="line2d_57">
     <path d="M 611.318125 35.416562 
L 621.318125 35.416562 
L 631.318125 35.416562 
" style="fill: none; stroke: #1f77b4; stroke-width: 1.5; stroke-linecap: square"/>
    </g>
    <g id="text_38">
     <!-- fft MSE -->
     <g transform="translate(639.318125 38.916562) scale(0.1 -0.1)">
      <use xlink:href="#DejaVuSans-66"/>
      <use xlink:href="#DejaVuSans-66" transform="translate(35.205078 0)"/>
      <use xlink:href="#DejaVuSans-74" transform="translate(68.660156 0)"/>
      <use xlink:href="#DejaVuSans-20" transform="translate(107.869141 0)"/>
      <use xlink:href="#DejaVuSans-4d" transform="translate(139.65625 0)"/>
      <use xlink:href="#DejaVuSans-53" transform="translate(225.935547 0)"/>
      <use xlink:href="#DejaVuSans-45" transform="translate(289.412109 0)"/>
     </g>
    </g>
    <g id="line2d_58">
     <path d="M 611.318125 50.094688 
L 621.318125 50.094688 
L 631.318125 50.094688 
" style="fill: none; stroke: #ff7f0e; stroke-width: 1.5; stroke-linecap: square"/>
    </g>
    <g id="text_39">
     <!-- haar MSE (Level 1) -->
     <g transform="translate(639.318125 53.594688) scale(0.1 -0.1)">
      <use xlink:href="#DejaVuSans-68"/>
      <use xlink:href="#DejaVuSans-61" transform="translate(63.378906 0)"/>
      <use xlink:href="#DejaVuSans-61" transform="translate(124.658203 0)"/>
      <use xlink:href="#DejaVuSans-72" transform="translate(185.9375 0)"/>
      <use xlink:href="#DejaVuSans-20" transform="translate(227.050781 0)"/>
      <use xlink:href="#DejaVuSans-4d" transform="translate(258.837891 0)"/>
      <use xlink:href="#DejaVuSans-53" transform="translate(345.117188 0)"/>
      <use xlink:href="#DejaVuSans-45" transform="translate(408.59375 0)"/>
      <use xlink:href="#DejaVuSans-20" transform="translate(471.777344 0)"/>
      <use xlink:href="#DejaVuSans-28" transform="translate(503.564453 0)"/>
      <use xlink:href="#DejaVuSans-4c" transform="translate(542.578125 0)"/>
      <use xlink:href="#DejaVuSans-65" transform="translate(596.541016 0)"/>
      <use xlink:href="#DejaVuSans-76" transform="translate(658.064453 0)"/>
      <use xlink:href="#DejaVuSans-65" transform="translate(717.244141 0)"/>
      <use xlink:href="#DejaVuSans-6c" transform="translate(778.767578 0)"/>
      <use xlink:href="#DejaVuSans-20" transform="translate(806.550781 0)"/>
      <use xlink:href="#DejaVuSans-31" transform="translate(838.337891 0)"/>
      <use xlink:href="#DejaVuSans-29" transform="translate(901.960938 0)"/>
     </g>
    </g>
    <g id="line2d_59">
     <path d="M 611.318125 64.772813 
L 621.318125 64.772813 
L 631.318125 64.772813 
" style="fill: none; stroke: #2ca02c; stroke-width: 1.5; stroke-linecap: square"/>
    </g>
    <g id="text_40">
     <!-- haar MSE (Level 2) -->
     <g transform="translate(639.318125 68.272813) scale(0.1 -0.1)">
      <use xlink:href="#DejaVuSans-68"/>
      <use xlink:href="#DejaVuSans-61" transform="translate(63.378906 0)"/>
      <use xlink:href="#DejaVuSans-61" transform="translate(124.658203 0)"/>
      <use xlink:href="#DejaVuSans-72" transform="translate(185.9375 0)"/>
      <use xlink:href="#DejaVuSans-20" transform="translate(227.050781 0)"/>
      <use xlink:href="#DejaVuSans-4d" transform="translate(258.837891 0)"/>
      <use xlink:href="#DejaVuSans-53" transform="translate(345.117188 0)"/>
      <use xlink:href="#DejaVuSans-45" transform="translate(408.59375 0)"/>
      <use xlink:href="#DejaVuSans-20" transform="translate(471.777344 0)"/>
      <use xlink:href="#DejaVuSans-28" transform="translate(503.564453 0)"/>
      <use xlink:href="#DejaVuSans-4c" transform="translate(542.578125 0)"/>
      <use xlink:href="#DejaVuSans-65" transform="translate(596.541016 0)"/>
      <use xlink:href="#DejaVuSans-76" transform="translate(658.064453 0)"/>
      <use xlink:href="#DejaVuSans-65" transform="translate(717.244141 0)"/>
      <use xlink:href="#DejaVuSans-6c" transform="translate(778.767578 0)"/>
      <use xlink:href="#DejaVuSans-20" transform="translate(806.550781 0)"/>
      <use xlink:href="#DejaVuSans-32" transform="translate(838.337891 0)"/>
      <use xlink:href="#DejaVuSans-29" transform="translate(901.960938 0)"/>
     </g>
    </g>
    <g id="line2d_60">
     <path d="M 611.318125 79.450938 
L 621.318125 79.450938 
L 631.318125 79.450938 
" style="fill: none; stroke: #d62728; stroke-width: 1.5; stroke-linecap: square"/>
    </g>
    <g id="text_41">
     <!-- haar MSE (Level 3) -->
     <g transform="translate(639.318125 82.950938) scale(0.1 -0.1)">
      <use xlink:href="#DejaVuSans-68"/>
      <use xlink:href="#DejaVuSans-61" transform="translate(63.378906 0)"/>
      <use xlink:href="#DejaVuSans-61" transform="translate(124.658203 0)"/>
      <use xlink:href="#DejaVuSans-72" transform="translate(185.9375 0)"/>
      <use xlink:href="#DejaVuSans-20" transform="translate(227.050781 0)"/>
      <use xlink:href="#DejaVuSans-4d" transform="translate(258.837891 0)"/>
      <use xlink:href="#DejaVuSans-53" transform="translate(345.117188 0)"/>
      <use xlink:href="#DejaVuSans-45" transform="translate(408.59375 0)"/>
      <use xlink:href="#DejaVuSans-20" transform="translate(471.777344 0)"/>
      <use xlink:href="#DejaVuSans-28" transform="translate(503.564453 0)"/>
      <use xlink:href="#DejaVuSans-4c" transform="translate(542.578125 0)"/>
      <use xlink:href="#DejaVuSans-65" transform="translate(596.541016 0)"/>
      <use xlink:href="#DejaVuSans-76" transform="translate(658.064453 0)"/>
      <use xlink:href="#DejaVuSans-65" transform="translate(717.244141 0)"/>
      <use xlink:href="#DejaVuSans-6c" transform="translate(778.767578 0)"/>
      <use xlink:href="#DejaVuSans-20" transform="translate(806.550781 0)"/>
      <use xlink:href="#DejaVuSans-33" transform="translate(838.337891 0)"/>
      <use xlink:href="#DejaVuSans-29" transform="translate(901.960938 0)"/>
     </g>
    </g>
    <g id="line2d_61">
     <path d="M 611.318125 94.129063 
L 621.318125 94.129063 
L 631.318125 94.129063 
" style="fill: none; stroke: #9467bd; stroke-width: 1.5; stroke-linecap: square"/>
    </g>
    <g id="text_42">
     <!-- db4 MSE (Level 1) -->
     <g transform="translate(639.318125 97.629063) scale(0.1 -0.1)">
      <use xlink:href="#DejaVuSans-64"/>
      <use xlink:href="#DejaVuSans-62" transform="translate(63.476562 0)"/>
      <use xlink:href="#DejaVuSans-34" transform="translate(126.953125 0)"/>
      <use xlink:href="#DejaVuSans-20" transform="translate(190.576172 0)"/>
      <use xlink:href="#DejaVuSans-4d" transform="translate(222.363281 0)"/>
      <use xlink:href="#DejaVuSans-53" transform="translate(308.642578 0)"/>
      <use xlink:href="#DejaVuSans-45" transform="translate(372.119141 0)"/>
      <use xlink:href="#DejaVuSans-20" transform="translate(435.302734 0)"/>
      <use xlink:href="#DejaVuSans-28" transform="translate(467.089844 0)"/>
      <use xlink:href="#DejaVuSans-4c" transform="translate(506.103516 0)"/>
      <use xlink:href="#DejaVuSans-65" transform="translate(560.066406 0)"/>
      <use xlink:href="#DejaVuSans-76" transform="translate(621.589844 0)"/>
      <use xlink:href="#DejaVuSans-65" transform="translate(680.769531 0)"/>
      <use xlink:href="#DejaVuSans-6c" transform="translate(742.292969 0)"/>
      <use xlink:href="#DejaVuSans-20" transform="translate(770.076172 0)"/>
      <use xlink:href="#DejaVuSans-31" transform="translate(801.863281 0)"/>
      <use xlink:href="#DejaVuSans-29" transform="translate(865.486328 0)"/>
     </g>
    </g>
    <g id="line2d_62">
     <path d="M 611.318125 108.807187 
L 621.318125 108.807187 
L 631.318125 108.807187 
" style="fill: none; stroke: #8c564b; stroke-width: 1.5; stroke-linecap: square"/>
    </g>
    <g id="text_43">
     <!-- db4 MSE (Level 2) -->
     <g transform="translate(639.318125 112.307187) scale(0.1 -0.1)">
      <use xlink:href="#DejaVuSans-64"/>
      <use xlink:href="#DejaVuSans-62" transform="translate(63.476562 0)"/>
      <use xlink:href="#DejaVuSans-34" transform="translate(126.953125 0)"/>
      <use xlink:href="#DejaVuSans-20" transform="translate(190.576172 0)"/>
      <use xlink:href="#DejaVuSans-4d" transform="translate(222.363281 0)"/>
      <use xlink:href="#DejaVuSans-53" transform="translate(308.642578 0)"/>
      <use xlink:href="#DejaVuSans-45" transform="translate(372.119141 0)"/>
      <use xlink:href="#DejaVuSans-20" transform="translate(435.302734 0)"/>
      <use xlink:href="#DejaVuSans-28" transform="translate(467.089844 0)"/>
      <use xlink:href="#DejaVuSans-4c" transform="translate(506.103516 0)"/>
      <use xlink:href="#DejaVuSans-65" transform="translate(560.066406 0)"/>
      <use xlink:href="#DejaVuSans-76" transform="translate(621.589844 0)"/>
      <use xlink:href="#DejaVuSans-65" transform="translate(680.769531 0)"/>
      <use xlink:href="#DejaVuSans-6c" transform="translate(742.292969 0)"/>
      <use xlink:href="#DejaVuSans-20" transform="translate(770.076172 0)"/>
      <use xlink:href="#DejaVuSans-32" transform="translate(801.863281 0)"/>
      <use xlink:href="#DejaVuSans-29" transform="translate(865.486328 0)"/>
     </g>
    </g>
    <g id="line2d_63">
     <path d="M 611.318125 123.485313 
L 621.318125 123.485313 
L 631.318125 123.485313 
" style="fill: none; stroke: #e377c2; stroke-width: 1.5; stroke-linecap: square"/>
    </g>
    <g id="text_44">
     <!-- db4 MSE (Level 3) -->
     <g transform="translate(639.318125 126.985313) scale(0.1 -0.1)">
      <use xlink:href="#DejaVuSans-64"/>
      <use xlink:href="#DejaVuSans-62" transform="translate(63.476562 0)"/>
      <use xlink:href="#DejaVuSans-34" transform="translate(126.953125 0)"/>
      <use xlink:href="#DejaVuSans-20" transform="translate(190.576172 0)"/>
      <use xlink:href="#DejaVuSans-4d" transform="translate(222.363281 0)"/>
      <use xlink:href="#DejaVuSans-53" transform="translate(308.642578 0)"/>
      <use xlink:href="#DejaVuSans-45" transform="translate(372.119141 0)"/>
      <use xlink:href="#DejaVuSans-20" transform="translate(435.302734 0)"/>
      <use xlink:href="#DejaVuSans-28" transform="translate(467.089844 0)"/>
      <use xlink:href="#DejaVuSans-4c" transform="translate(506.103516 0)"/>
      <use xlink:href="#DejaVuSans-65" transform="translate(560.066406 0)"/>
      <use xlink:href="#DejaVuSans-76" transform="translate(621.589844 0)"/>
      <use xlink:href="#DejaVuSans-65" transform="translate(680.769531 0)"/>
      <use xlink:href="#DejaVuSans-6c" transform="translate(742.292969 0)"/>
      <use xlink:href="#DejaVuSans-20" transform="translate(770.076172 0)"/>
      <use xlink:href="#DejaVuSans-33" transform="translate(801.863281 0)"/>
      <use xlink:href="#DejaVuSans-29" transform="translate(865.486328 0)"/>
     </g>
    </g>
    <g id="line2d_64">
     <path d="M 611.318125 138.163437 
L 621.318125 138.163437 
L 631.318125 138.163437 
" style="fill: none; stroke: #7f7f7f; stroke-width: 1.5; stroke-linecap: square"/>
    </g>
    <g id="text_45">
     <!-- coif3 MSE (Level 1) -->
     <g transform="translate(639.318125 141.663437) scale(0.1 -0.1)">
      <use xlink:href="#DejaVuSans-63"/>
      <use xlink:href="#DejaVuSans-6f" transform="translate(54.980469 0)"/>
      <use xlink:href="#DejaVuSans-69" transform="translate(116.162109 0)"/>
      <use xlink:href="#DejaVuSans-66" transform="translate(143.945312 0)"/>
      <use xlink:href="#DejaVuSans-33" transform="translate(179.150391 0)"/>
      <use xlink:href="#DejaVuSans-20" transform="translate(242.773438 0)"/>
      <use xlink:href="#DejaVuSans-4d" transform="translate(274.560547 0)"/>
      <use xlink:href="#DejaVuSans-53" transform="translate(360.839844 0)"/>
      <use xlink:href="#DejaVuSans-45" transform="translate(424.316406 0)"/>
      <use xlink:href="#DejaVuSans-20" transform="translate(487.5 0)"/>
      <use xlink:href="#DejaVuSans-28" transform="translate(519.287109 0)"/>
      <use xlink:href="#DejaVuSans-4c" transform="translate(558.300781 0)"/>
      <use xlink:href="#DejaVuSans-65" transform="translate(612.263672 0)"/>
      <use xlink:href="#DejaVuSans-76" transform="translate(673.787109 0)"/>
      <use xlink:href="#DejaVuSans-65" transform="translate(732.966797 0)"/>
      <use xlink:href="#DejaVuSans-6c" transform="translate(794.490234 0)"/>
      <use xlink:href="#DejaVuSans-20" transform="translate(822.273438 0)"/>
      <use xlink:href="#DejaVuSans-31" transform="translate(854.060547 0)"/>
      <use xlink:href="#DejaVuSans-29" transform="translate(917.683594 0)"/>
     </g>
    </g>
    <g id="line2d_65">
     <path d="M 611.318125 152.841563 
L 621.318125 152.841563 
L 631.318125 152.841563 
" style="fill: none; stroke: #bcbd22; stroke-width: 1.5; stroke-linecap: square"/>
    </g>
    <g id="text_46">
     <!-- coif3 MSE (Level 2) -->
     <g transform="translate(639.318125 156.341563) scale(0.1 -0.1)">
      <use xlink:href="#DejaVuSans-63"/>
      <use xlink:href="#DejaVuSans-6f" transform="translate(54.980469 0)"/>
      <use xlink:href="#DejaVuSans-69" transform="translate(116.162109 0)"/>
      <use xlink:href="#DejaVuSans-66" transform="translate(143.945312 0)"/>
      <use xlink:href="#DejaVuSans-33" transform="translate(179.150391 0)"/>
      <use xlink:href="#DejaVuSans-20" transform="translate(242.773438 0)"/>
      <use xlink:href="#DejaVuSans-4d" transform="translate(274.560547 0)"/>
      <use xlink:href="#DejaVuSans-53" transform="translate(360.839844 0)"/>
      <use xlink:href="#DejaVuSans-45" transform="translate(424.316406 0)"/>
      <use xlink:href="#DejaVuSans-20" transform="translate(487.5 0)"/>
      <use xlink:href="#DejaVuSans-28" transform="translate(519.287109 0)"/>
      <use xlink:href="#DejaVuSans-4c" transform="translate(558.300781 0)"/>
      <use xlink:href="#DejaVuSans-65" transform="translate(612.263672 0)"/>
      <use xlink:href="#DejaVuSans-76" transform="translate(673.787109 0)"/>
      <use xlink:href="#DejaVuSans-65" transform="translate(732.966797 0)"/>
      <use xlink:href="#DejaVuSans-6c" transform="translate(794.490234 0)"/>
      <use xlink:href="#DejaVuSans-20" transform="translate(822.273438 0)"/>
      <use xlink:href="#DejaVuSans-32" transform="translate(854.060547 0)"/>
      <use xlink:href="#DejaVuSans-29" transform="translate(917.683594 0)"/>
     </g>
    </g>
    <g id="line2d_66">
     <path d="M 611.318125 167.519687 
L 621.318125 167.519687 
L 631.318125 167.519687 
" style="fill: none; stroke: #17becf; stroke-width: 1.5; stroke-linecap: square"/>
    </g>
    <g id="text_47">
     <!-- coif3 MSE (Level 3) -->
     <g transform="translate(639.318125 171.019687) scale(0.1 -0.1)">
      <use xlink:href="#DejaVuSans-63"/>
      <use xlink:href="#DejaVuSans-6f" transform="translate(54.980469 0)"/>
      <use xlink:href="#DejaVuSans-69" transform="translate(116.162109 0)"/>
      <use xlink:href="#DejaVuSans-66" transform="translate(143.945312 0)"/>
      <use xlink:href="#DejaVuSans-33" transform="translate(179.150391 0)"/>
      <use xlink:href="#DejaVuSans-20" transform="translate(242.773438 0)"/>
      <use xlink:href="#DejaVuSans-4d" transform="translate(274.560547 0)"/>
      <use xlink:href="#DejaVuSans-53" transform="translate(360.839844 0)"/>
      <use xlink:href="#DejaVuSans-45" transform="translate(424.316406 0)"/>
      <use xlink:href="#DejaVuSans-20" transform="translate(487.5 0)"/>
      <use xlink:href="#DejaVuSans-28" transform="translate(519.287109 0)"/>
      <use xlink:href="#DejaVuSans-4c" transform="translate(558.300781 0)"/>
      <use xlink:href="#DejaVuSans-65" transform="translate(612.263672 0)"/>
      <use xlink:href="#DejaVuSans-76" transform="translate(673.787109 0)"/>
      <use xlink:href="#DejaVuSans-65" transform="translate(732.966797 0)"/>
      <use xlink:href="#DejaVuSans-6c" transform="translate(794.490234 0)"/>
      <use xlink:href="#DejaVuSans-20" transform="translate(822.273438 0)"/>
      <use xlink:href="#DejaVuSans-33" transform="translate(854.060547 0)"/>
      <use xlink:href="#DejaVuSans-29" transform="translate(917.683594 0)"/>
     </g>
    </g>
   </g>
  </g>
 </g>
 <defs>
  <clipPath id="pcc38e17e9b">
   <rect x="36.465625" y="22.318125" width="525.9125" height="233.24"/>
  </clipPath>
  <clipPath id="p9b2c83a677">
   <rect x="602.318125" y="22.318125" width="525.9125" height="233.24"/>
  </clipPath>
 </defs>
</svg>
