<?xml version="1.0" encoding="utf-8" standalone="no"?>
<!DOCTYPE svg PUBLIC "-//W3C//DTD SVG 1.1//EN"
  "http://www.w3.org/Graphics/SVG/1.1/DTD/svg11.dtd">
<svg xmlns:xlink="http://www.w3.org/1999/xlink" width="1144.974375pt" height="279.43625pt" viewBox="0 0 1144.974375 279.43625" xmlns="http://www.w3.org/2000/svg" version="1.1">
 <metadata>
  <rdf:RDF xmlns:dc="http://purl.org/dc/elements/1.1/" xmlns:cc="http://creativecommons.org/ns#" xmlns:rdf="http://www.w3.org/1999/02/22-rdf-syntax-ns#">
   <cc:Work>
    <dc:type rdf:resource="http://purl.org/dc/dcmitype/StillImage"/>
    <dc:date>2025-05-17T01:15:08.985794</dc:date>
    <dc:format>image/svg+xml</dc:format>
    <dc:creator>
     <cc:Agent>
      <dc:title>Matplotlib v3.10.1, https://matplotlib.org/</dc:title>
     </cc:Agent>
    </dc:creator>
   </cc:Work>
  </rdf:RDF>
 </metadata>
 <defs>
  <style type="text/css">*{stroke-linejoin: round; stroke-linecap: butt}</style>
 </defs>
 <g id="figure_1">
  <g id="patch_1">
   <path d="M 0 279.43625 
L 1144.974375 279.43625 
L 1144.974375 0 
L 0 0 
L 0 279.43625 
z
" style="fill: none"/>
  </g>
  <g id="axes_1">
   <g id="patch_2">
    <path d="M 36.465625 255.558125 
L 562.378125 255.558125 
L 562.378125 22.318125 
L 36.465625 22.318125 
L 36.465625 255.558125 
z
" style="fill: none"/>
   </g>
   <g id="matplotlib.axis_1">
    <g id="xtick_1">
     <g id="line2d_1">
      <defs>
       <path id="mdca3ca13a7" d="M 0 0 
L 0 3.5 
" style="stroke: #000000; stroke-width: 0.8"/>
      </defs>
      <g>
       <use xlink:href="#mdca3ca13a7" x="60.370739" y="255.558125" style="stroke: #000000; stroke-width: 0.8"/>
      </g>
     </g>
     <g id="text_1">
      <!-- 0 -->
      <g transform="translate(57.189489 270.156563) scale(0.1 -0.1)">
       <defs>
        <path id="DejaVuSans-30" d="M 2034 4250 
Q 1547 4250 1301 3770 
Q 1056 3291 1056 2328 
Q 1056 1369 1301 889 
Q 1547 409 2034 409 
Q 2525 409 2770 889 
Q 3016 1369 3016 2328 
Q 3016 3291 2770 3770 
Q 2525 4250 2034 4250 
z
M 2034 4750 
Q 2819 4750 3233 4129 
Q 3647 3509 3647 2328 
Q 3647 1150 3233 529 
Q 2819 -91 2034 -91 
Q 1250 -91 836 529 
Q 422 1150 422 2328 
Q 422 3509 836 4129 
Q 1250 4750 2034 4750 
z
" transform="scale(0.015625)"/>
       </defs>
       <use xlink:href="#DejaVuSans-30"/>
      </g>
     </g>
    </g>
    <g id="xtick_2">
     <g id="line2d_2">
      <g>
       <use xlink:href="#mdca3ca13a7" x="155.991193" y="255.558125" style="stroke: #000000; stroke-width: 0.8"/>
      </g>
     </g>
     <g id="text_2">
      <!-- 20 -->
      <g transform="translate(149.628693 270.156563) scale(0.1 -0.1)">
       <defs>
        <path id="DejaVuSans-32" d="M 1228 531 
L 3431 531 
L 3431 0 
L 469 0 
L 469 531 
Q 828 903 1448 1529 
Q 2069 2156 2228 2338 
Q 2531 2678 2651 2914 
Q 2772 3150 2772 3378 
Q 2772 3750 2511 3984 
Q 2250 4219 1831 4219 
Q 1534 4219 1204 4116 
Q 875 4013 500 3803 
L 500 4441 
Q 881 4594 1212 4672 
Q 1544 4750 1819 4750 
Q 2544 4750 2975 4387 
Q 3406 4025 3406 3419 
Q 3406 3131 3298 2873 
Q 3191 2616 2906 2266 
Q 2828 2175 2409 1742 
Q 1991 1309 1228 531 
z
" transform="scale(0.015625)"/>
       </defs>
       <use xlink:href="#DejaVuSans-32"/>
       <use xlink:href="#DejaVuSans-30" transform="translate(63.623047 0)"/>
      </g>
     </g>
    </g>
    <g id="xtick_3">
     <g id="line2d_3">
      <g>
       <use xlink:href="#mdca3ca13a7" x="251.611648" y="255.558125" style="stroke: #000000; stroke-width: 0.8"/>
      </g>
     </g>
     <g id="text_3">
      <!-- 40 -->
      <g transform="translate(245.249148 270.156563) scale(0.1 -0.1)">
       <defs>
        <path id="DejaVuSans-34" d="M 2419 4116 
L 825 1625 
L 2419 1625 
L 2419 4116 
z
M 2253 4666 
L 3047 4666 
L 3047 1625 
L 3713 1625 
L 3713 1100 
L 3047 1100 
L 3047 0 
L 2419 0 
L 2419 1100 
L 313 1100 
L 313 1709 
L 2253 4666 
z
" transform="scale(0.015625)"/>
       </defs>
       <use xlink:href="#DejaVuSans-34"/>
       <use xlink:href="#DejaVuSans-30" transform="translate(63.623047 0)"/>
      </g>
     </g>
    </g>
    <g id="xtick_4">
     <g id="line2d_4">
      <g>
       <use xlink:href="#mdca3ca13a7" x="347.232102" y="255.558125" style="stroke: #000000; stroke-width: 0.8"/>
      </g>
     </g>
     <g id="text_4">
      <!-- 60 -->
      <g transform="translate(340.869602 270.156563) scale(0.1 -0.1)">
       <defs>
        <path id="DejaVuSans-36" d="M 2113 2584 
Q 1688 2584 1439 2293 
Q 1191 2003 1191 1497 
Q 1191 994 1439 701 
Q 1688 409 2113 409 
Q 2538 409 2786 701 
Q 3034 994 3034 1497 
Q 3034 2003 2786 2293 
Q 2538 2584 2113 2584 
z
M 3366 4563 
L 3366 3988 
Q 3128 4100 2886 4159 
Q 2644 4219 2406 4219 
Q 1781 4219 1451 3797 
Q 1122 3375 1075 2522 
Q 1259 2794 1537 2939 
Q 1816 3084 2150 3084 
Q 2853 3084 3261 2657 
Q 3669 2231 3669 1497 
Q 3669 778 3244 343 
Q 2819 -91 2113 -91 
Q 1303 -91 875 529 
Q 447 1150 447 2328 
Q 447 3434 972 4092 
Q 1497 4750 2381 4750 
Q 2619 4750 2861 4703 
Q 3103 4656 3366 4563 
z
" transform="scale(0.015625)"/>
       </defs>
       <use xlink:href="#DejaVuSans-36"/>
       <use xlink:href="#DejaVuSans-30" transform="translate(63.623047 0)"/>
      </g>
     </g>
    </g>
    <g id="xtick_5">
     <g id="line2d_5">
      <g>
       <use xlink:href="#mdca3ca13a7" x="442.852557" y="255.558125" style="stroke: #000000; stroke-width: 0.8"/>
      </g>
     </g>
     <g id="text_5">
      <!-- 80 -->
      <g transform="translate(436.490057 270.156563) scale(0.1 -0.1)">
       <defs>
        <path id="DejaVuSans-38" d="M 2034 2216 
Q 1584 2216 1326 1975 
Q 1069 1734 1069 1313 
Q 1069 891 1326 650 
Q 1584 409 2034 409 
Q 2484 409 2743 651 
Q 3003 894 3003 1313 
Q 3003 1734 2745 1975 
Q 2488 2216 2034 2216 
z
M 1403 2484 
Q 997 2584 770 2862 
Q 544 3141 544 3541 
Q 544 4100 942 4425 
Q 1341 4750 2034 4750 
Q 2731 4750 3128 4425 
Q 3525 4100 3525 3541 
Q 3525 3141 3298 2862 
Q 3072 2584 2669 2484 
Q 3125 2378 3379 2068 
Q 3634 1759 3634 1313 
Q 3634 634 3220 271 
Q 2806 -91 2034 -91 
Q 1263 -91 848 271 
Q 434 634 434 1313 
Q 434 1759 690 2068 
Q 947 2378 1403 2484 
z
M 1172 3481 
Q 1172 3119 1398 2916 
Q 1625 2713 2034 2713 
Q 2441 2713 2670 2916 
Q 2900 3119 2900 3481 
Q 2900 3844 2670 4047 
Q 2441 4250 2034 4250 
Q 1625 4250 1398 4047 
Q 1172 3844 1172 3481 
z
" transform="scale(0.015625)"/>
       </defs>
       <use xlink:href="#DejaVuSans-38"/>
       <use xlink:href="#DejaVuSans-30" transform="translate(63.623047 0)"/>
      </g>
     </g>
    </g>
    <g id="xtick_6">
     <g id="line2d_6">
      <g>
       <use xlink:href="#mdca3ca13a7" x="538.473011" y="255.558125" style="stroke: #000000; stroke-width: 0.8"/>
      </g>
     </g>
     <g id="text_6">
      <!-- 100 -->
      <g transform="translate(528.929261 270.156563) scale(0.1 -0.1)">
       <defs>
        <path id="DejaVuSans-31" d="M 794 531 
L 1825 531 
L 1825 4091 
L 703 3866 
L 703 4441 
L 1819 4666 
L 2450 4666 
L 2450 531 
L 3481 531 
L 3481 0 
L 794 0 
L 794 531 
z
" transform="scale(0.015625)"/>
       </defs>
       <use xlink:href="#DejaVuSans-31"/>
       <use xlink:href="#DejaVuSans-30" transform="translate(63.623047 0)"/>
       <use xlink:href="#DejaVuSans-30" transform="translate(127.246094 0)"/>
      </g>
     </g>
    </g>
   </g>
   <g id="matplotlib.axis_2">
    <g id="ytick_1">
     <g id="line2d_7">
      <defs>
       <path id="m80270172b2" d="M 0 0 
L -3.5 0 
" style="stroke: #000000; stroke-width: 0.8"/>
      </defs>
      <g>
       <use xlink:href="#m80270172b2" x="36.465625" y="244.956307" style="stroke: #000000; stroke-width: 0.8"/>
      </g>
     </g>
     <g id="text_7">
      <!-- 0.00 -->
      <g transform="translate(7.2 248.755526) scale(0.1 -0.1)">
       <defs>
        <path id="DejaVuSans-2e" d="M 684 794 
L 1344 794 
L 1344 0 
L 684 0 
L 684 794 
z
" transform="scale(0.015625)"/>
       </defs>
       <use xlink:href="#DejaVuSans-30"/>
       <use xlink:href="#DejaVuSans-2e" transform="translate(63.623047 0)"/>
       <use xlink:href="#DejaVuSans-30" transform="translate(95.410156 0)"/>
       <use xlink:href="#DejaVuSans-30" transform="translate(159.033203 0)"/>
      </g>
     </g>
    </g>
    <g id="ytick_2">
     <g id="line2d_8">
      <g>
       <use xlink:href="#m80270172b2" x="36.465625" y="199.979324" style="stroke: #000000; stroke-width: 0.8"/>
      </g>
     </g>
     <g id="text_8">
      <!-- 0.01 -->
      <g transform="translate(7.2 203.778542) scale(0.1 -0.1)">
       <use xlink:href="#DejaVuSans-30"/>
       <use xlink:href="#DejaVuSans-2e" transform="translate(63.623047 0)"/>
       <use xlink:href="#DejaVuSans-30" transform="translate(95.410156 0)"/>
       <use xlink:href="#DejaVuSans-31" transform="translate(159.033203 0)"/>
      </g>
     </g>
    </g>
    <g id="ytick_3">
     <g id="line2d_9">
      <g>
       <use xlink:href="#m80270172b2" x="36.465625" y="155.002341" style="stroke: #000000; stroke-width: 0.8"/>
      </g>
     </g>
     <g id="text_9">
      <!-- 0.02 -->
      <g transform="translate(7.2 158.801559) scale(0.1 -0.1)">
       <use xlink:href="#DejaVuSans-30"/>
       <use xlink:href="#DejaVuSans-2e" transform="translate(63.623047 0)"/>
       <use xlink:href="#DejaVuSans-30" transform="translate(95.410156 0)"/>
       <use xlink:href="#DejaVuSans-32" transform="translate(159.033203 0)"/>
      </g>
     </g>
    </g>
    <g id="ytick_4">
     <g id="line2d_10">
      <g>
       <use xlink:href="#m80270172b2" x="36.465625" y="110.025358" style="stroke: #000000; stroke-width: 0.8"/>
      </g>
     </g>
     <g id="text_10">
      <!-- 0.03 -->
      <g transform="translate(7.2 113.824576) scale(0.1 -0.1)">
       <defs>
        <path id="DejaVuSans-33" d="M 2597 2516 
Q 3050 2419 3304 2112 
Q 3559 1806 3559 1356 
Q 3559 666 3084 287 
Q 2609 -91 1734 -91 
Q 1441 -91 1130 -33 
Q 819 25 488 141 
L 488 750 
Q 750 597 1062 519 
Q 1375 441 1716 441 
Q 2309 441 2620 675 
Q 2931 909 2931 1356 
Q 2931 1769 2642 2001 
Q 2353 2234 1838 2234 
L 1294 2234 
L 1294 2753 
L 1863 2753 
Q 2328 2753 2575 2939 
Q 2822 3125 2822 3475 
Q 2822 3834 2567 4026 
Q 2313 4219 1838 4219 
Q 1578 4219 1281 4162 
Q 984 4106 628 3988 
L 628 4550 
Q 988 4650 1302 4700 
Q 1616 4750 1894 4750 
Q 2613 4750 3031 4423 
Q 3450 4097 3450 3541 
Q 3450 3153 3228 2886 
Q 3006 2619 2597 2516 
z
" transform="scale(0.015625)"/>
       </defs>
       <use xlink:href="#DejaVuSans-30"/>
       <use xlink:href="#DejaVuSans-2e" transform="translate(63.623047 0)"/>
       <use xlink:href="#DejaVuSans-30" transform="translate(95.410156 0)"/>
       <use xlink:href="#DejaVuSans-33" transform="translate(159.033203 0)"/>
      </g>
     </g>
    </g>
    <g id="ytick_5">
     <g id="line2d_11">
      <g>
       <use xlink:href="#m80270172b2" x="36.465625" y="65.048374" style="stroke: #000000; stroke-width: 0.8"/>
      </g>
     </g>
     <g id="text_11">
      <!-- 0.04 -->
      <g transform="translate(7.2 68.847593) scale(0.1 -0.1)">
       <use xlink:href="#DejaVuSans-30"/>
       <use xlink:href="#DejaVuSans-2e" transform="translate(63.623047 0)"/>
       <use xlink:href="#DejaVuSans-30" transform="translate(95.410156 0)"/>
       <use xlink:href="#DejaVuSans-34" transform="translate(159.033203 0)"/>
      </g>
     </g>
    </g>
   </g>
   <g id="line2d_12">
    <path d="M 60.370739 244.956307 
L 127.305057 244.866604 
L 177.505795 244.244222 
L 179.896307 244.094162 
L 184.67733 244.145132 
L 187.067841 244.242626 
L 194.239375 244.13311 
L 199.020398 243.919509 
L 203.80142 243.972502 
L 208.582443 243.795294 
L 213.363466 243.827986 
L 215.753977 243.723535 
L 218.144489 243.863982 
L 220.535 243.86863 
L 225.316023 243.566027 
L 227.706534 243.605575 
L 230.097045 243.203899 
L 232.487557 243.331755 
L 234.878068 243.301632 
L 239.659091 243.41432 
L 242.049602 243.027498 
L 244.440114 242.970321 
L 251.611648 242.463075 
L 254.002159 242.390535 
L 256.39267 241.96161 
L 258.783182 242.215715 
L 261.173693 242.179068 
L 263.564205 241.629871 
L 265.954716 241.289143 
L 268.345227 240.680586 
L 273.12625 241.241514 
L 275.516761 241.768712 
L 280.297784 241.179053 
L 282.688295 241.404846 
L 287.469318 240.860052 
L 289.85983 240.450247 
L 292.250341 240.942247 
L 294.640852 240.935593 
L 297.031364 240.053766 
L 299.421875 239.9497 
L 304.202898 240.077821 
L 306.593409 239.422099 
L 308.98392 239.579622 
L 313.764943 237.848757 
L 318.545966 238.276347 
L 320.936477 238.241378 
L 323.326989 237.733497 
L 325.7175 237.538255 
L 328.108011 237.091552 
L 330.498523 236.220243 
L 332.889034 235.020471 
L 335.279545 235.43311 
L 340.060568 235.921285 
L 342.45108 235.225631 
L 344.841591 233.220951 
L 347.232102 234.249903 
L 349.622614 234.333363 
L 354.403636 234.275715 
L 356.794148 233.860812 
L 359.184659 233.731923 
L 361.57517 234.073526 
L 363.965682 234.229622 
L 366.356193 233.724546 
L 368.746705 233.720081 
L 371.137216 232.912196 
L 373.527727 232.372635 
L 375.918239 231.342119 
L 380.699261 231.905919 
L 383.089773 231.88958 
L 385.480284 230.720236 
L 387.870795 230.868264 
L 390.261307 229.471598 
L 392.651818 226.749342 
L 397.432841 232.261639 
L 399.823352 231.15482 
L 402.213864 231.065236 
L 404.604375 229.835429 
L 406.994886 229.600499 
L 409.385398 228.992752 
L 411.775909 228.056453 
L 414.16642 226.740803 
L 416.556932 226.438933 
L 418.947443 226.529709 
L 421.337955 226.924546 
L 423.728466 225.313794 
L 426.118977 224.415956 
L 428.509489 227.107611 
L 433.290511 221.674595 
L 435.681023 224.266084 
L 438.071534 222.695591 
L 440.462045 224.403546 
L 442.852557 224.624301 
L 445.243068 224.0778 
L 447.63358 223.978895 
L 450.024091 221.340524 
L 452.414602 221.866486 
L 454.805114 221.511825 
L 457.195625 221.744017 
L 459.586136 222.210557 
L 461.976648 220.883176 
L 464.367159 222.561643 
L 466.75767 220.014513 
L 469.148182 218.964448 
L 471.538693 217.367815 
L 473.929205 217.967745 
L 476.319716 216.181901 
L 478.710227 216.523324 
L 481.100739 215.568885 
L 483.49125 217.961699 
L 485.881761 215.718005 
L 488.272273 220.269716 
L 490.662784 219.02386 
L 493.053295 214.087389 
L 495.443807 216.099024 
L 497.834318 215.140803 
L 500.22483 215.941799 
L 502.615341 211.713728 
L 505.005852 213.386369 
L 507.396364 211.153395 
L 509.786875 210.131523 
L 512.177386 207.69739 
L 514.567898 200.270436 
L 516.958409 202.875712 
L 521.739432 197.053538 
L 524.129943 196.499443 
L 526.520455 170.449494 
L 528.910966 180.348935 
L 531.301477 182.727894 
L 533.691989 175.861714 
L 536.0825 153.082773 
L 538.473011 34.709817 
L 538.473011 34.709817 
" clip-path="url(#p3eef418511)" style="fill: none; stroke: #1f77b4; stroke-width: 1.5; stroke-linecap: square"/>
   </g>
   <g id="line2d_13">
    <path d="M 60.370739 244.956307 
L 340.060568 244.845646 
L 368.746705 244.72259 
L 411.775909 243.959397 
L 421.337955 243.594703 
L 426.118977 243.310702 
L 435.681023 242.730019 
L 438.071534 242.591165 
L 440.462045 242.24495 
L 442.852557 242.3555 
L 447.63358 241.73053 
L 450.024091 241.556148 
L 454.805114 240.585911 
L 457.195625 240.370326 
L 459.586136 238.736706 
L 461.976648 238.314742 
L 464.367159 237.519446 
L 466.75767 236.442518 
L 471.538693 236.193115 
L 473.929205 232.851183 
L 476.319716 232.727038 
L 478.710227 233.134407 
L 481.100739 232.015459 
L 483.49125 229.419557 
L 488.272273 229.140973 
L 490.662784 223.250367 
L 495.443807 222.922401 
L 497.834318 222.573566 
L 500.22483 232.840707 
L 502.615341 230.278412 
L 505.005852 227.516122 
L 507.396364 224.126594 
L 509.786875 219.924058 
L 512.177386 214.942954 
L 514.567898 209.244105 
L 516.958409 202.610107 
L 519.34892 194.92024 
L 521.739432 186.228568 
L 524.129943 176.209999 
L 526.520455 164.634049 
L 528.910966 151.245947 
L 531.301477 134.865902 
L 533.691989 113.870468 
L 536.0825 83.762554 
L 538.473011 34.946867 
L 538.473011 34.946867 
" clip-path="url(#p3eef418511)" style="fill: none; stroke: #ff7f0e; stroke-width: 1.5; stroke-linecap: square"/>
   </g>
   <g id="line2d_14">
    <path d="M 60.370739 244.956307 
L 318.545966 244.912497 
L 323.326989 244.823933 
L 352.013125 244.73974 
L 354.403636 244.693363 
L 356.794148 244.44077 
L 378.30875 244.460682 
L 380.699261 244.236338 
L 387.870795 244.14009 
L 390.261307 243.663635 
L 395.04233 243.650215 
L 397.432841 242.871599 
L 402.213864 242.852614 
L 404.604375 243.046493 
L 409.385398 243.104329 
L 411.775909 243.09127 
L 414.16642 242.569718 
L 421.337955 242.519813 
L 423.728466 242.192681 
L 426.118977 241.659736 
L 428.509489 241.639611 
L 430.9 241.387191 
L 442.852557 241.238732 
L 445.243068 240.486802 
L 447.63358 238.731303 
L 450.024091 238.686282 
L 452.414602 237.796681 
L 454.805114 235.008933 
L 457.195625 237.695322 
L 459.586136 237.430545 
L 461.976648 237.024538 
L 464.367159 236.957094 
L 466.75767 236.499586 
L 473.929205 236.255442 
L 476.319716 235.264041 
L 478.710227 236.048508 
L 481.100739 235.702439 
L 483.49125 231.247544 
L 485.881761 234.526367 
L 488.272273 230.10849 
L 490.662784 229.939305 
L 493.053295 218.972165 
L 497.834318 218.600081 
L 500.22483 217.507824 
L 502.615341 204.814464 
L 505.005852 208.102956 
L 509.786875 207.537039 
L 512.177386 213.001033 
L 514.567898 213.893698 
L 516.958409 206.562804 
L 519.34892 212.712167 
L 521.739432 209.401668 
L 524.129943 195.992099 
L 526.520455 107.255607 
L 528.910966 222.211076 
L 531.301477 208.392743 
L 533.691989 183.126522 
L 536.0825 139.106048 
L 538.473011 35.607575 
L 538.473011 35.607575 
" clip-path="url(#p3eef418511)" style="fill: none; stroke: #2ca02c; stroke-width: 1.5; stroke-linecap: square"/>
   </g>
   <g id="line2d_15">
    <path d="M 60.370739 244.956307 
L 318.545966 244.917097 
L 323.326989 244.822378 
L 354.403636 244.733091 
L 359.184659 244.630235 
L 366.356193 244.619736 
L 368.746705 244.452023 
L 387.870795 244.379304 
L 390.261307 243.858907 
L 392.651818 243.636715 
L 397.432841 243.618091 
L 399.823352 242.832263 
L 404.604375 242.810079 
L 406.994886 243.08352 
L 414.16642 243.041565 
L 416.556932 242.514588 
L 423.728466 242.463059 
L 426.118977 241.974103 
L 430.9 241.930489 
L 433.290511 241.302972 
L 445.243068 241.156431 
L 447.63358 241.42973 
L 450.024091 237.51719 
L 454.805114 237.428051 
L 457.195625 233.512625 
L 459.586136 237.39969 
L 461.976648 237.342673 
L 464.367159 236.933631 
L 478.710227 236.434702 
L 483.49125 235.567933 
L 485.881761 231.079921 
L 488.272273 227.90722 
L 490.662784 227.73854 
L 493.053295 231.916833 
L 495.443807 231.709741 
L 497.834318 221.329819 
L 500.22483 221.109481 
L 502.615341 221.569935 
L 505.005852 220.539897 
L 507.396364 207.310047 
L 509.786875 210.248735 
L 514.567898 209.328617 
L 516.958409 208.473791 
L 519.34892 211.124796 
L 521.739432 211.477702 
L 524.129943 208.319225 
L 526.520455 197.144212 
L 528.910966 199.223006 
L 531.301477 187.259182 
L 533.691989 205.519648 
L 536.0825 200.792127 
L 538.473011 37.555473 
L 538.473011 37.555473 
" clip-path="url(#p3eef418511)" style="fill: none; stroke: #d62728; stroke-width: 1.5; stroke-linecap: square"/>
   </g>
   <g id="line2d_16">
    <path d="M 60.370739 244.956307 
L 320.936477 244.863946 
L 325.7175 244.758884 
L 340.060568 244.741819 
L 361.57517 244.315745 
L 368.746705 244.300857 
L 371.137216 244.03944 
L 375.918239 244.061245 
L 378.30875 243.481041 
L 397.432841 243.471904 
L 399.823352 243.015671 
L 402.213864 243.007537 
L 404.604375 241.628377 
L 406.994886 241.630309 
L 409.385398 241.506927 
L 414.16642 241.514191 
L 416.556932 241.00239 
L 418.947443 240.893822 
L 421.337955 240.251824 
L 423.728466 238.253035 
L 426.118977 238.553614 
L 430.9 238.517996 
L 433.290511 239.211103 
L 442.852557 239.325576 
L 445.243068 237.102897 
L 447.63358 233.084518 
L 452.414602 232.916784 
L 454.805114 228.296538 
L 457.195625 229.141403 
L 459.586136 228.575826 
L 461.976648 229.059908 
L 464.367159 228.994204 
L 466.75767 222.651291 
L 469.148182 222.161811 
L 471.538693 221.829229 
L 473.929205 225.203038 
L 476.319716 222.21101 
L 478.710227 216.71617 
L 481.100739 217.071114 
L 483.49125 215.526624 
L 485.881761 210.097086 
L 488.272273 207.57296 
L 490.662784 208.383494 
L 495.443807 196.005204 
L 497.834318 187.744845 
L 500.22483 168.844713 
L 502.615341 169.69669 
L 505.005852 174.557819 
L 507.396364 166.836958 
L 509.786875 142.922333 
L 512.177386 122.463214 
L 514.567898 124.167883 
L 516.958409 126.639808 
L 519.34892 127.556918 
L 521.739432 127.971291 
L 524.129943 118.729174 
L 526.520455 92.685772 
L 528.910966 77.293009 
L 531.301477 86.746021 
L 533.691989 51.840542 
L 536.0825 32.919943 
L 538.473011 66.894724 
L 538.473011 66.894724 
" clip-path="url(#p3eef418511)" style="fill: none; stroke: #9467bd; stroke-width: 1.5; stroke-linecap: square"/>
   </g>
   <g id="line2d_17">
    <path d="M 60.370739 244.956307 
L 325.7175 244.882881 
L 335.279545 244.832455 
L 366.356193 244.617389 
L 368.746705 244.351795 
L 385.480284 244.298016 
L 387.870795 244.148061 
L 395.04233 244.127815 
L 397.432841 244.0072 
L 402.213864 243.95027 
L 404.604375 243.665811 
L 406.994886 243.839608 
L 409.385398 243.631969 
L 411.775909 243.289291 
L 414.16642 243.321023 
L 416.556932 242.895631 
L 426.118977 242.847014 
L 430.9 242.448974 
L 433.290511 242.648814 
L 435.681023 242.659226 
L 438.071534 241.752982 
L 440.462045 241.737672 
L 442.852557 240.701019 
L 445.243068 240.881167 
L 447.63358 240.770382 
L 450.024091 238.689979 
L 452.414602 238.66442 
L 454.805114 237.98501 
L 457.195625 237.800335 
L 459.586136 238.118076 
L 464.367159 238.191413 
L 466.75767 237.477612 
L 469.148182 234.476606 
L 473.929205 234.38046 
L 476.319716 234.181321 
L 478.710227 234.24926 
L 481.100739 234.008183 
L 483.49125 233.911359 
L 485.881761 230.422681 
L 488.272273 230.3581 
L 490.662784 232.963782 
L 493.053295 233.544729 
L 495.443807 233.43544 
L 497.834318 232.374373 
L 500.22483 229.7238 
L 502.615341 227.861746 
L 505.005852 226.24768 
L 507.396364 227.112347 
L 509.786875 217.61331 
L 512.177386 218.051503 
L 514.567898 217.556119 
L 516.958409 207.777073 
L 519.34892 208.239762 
L 521.739432 177.730002 
L 524.129943 207.892445 
L 526.520455 190.016693 
L 528.910966 147.898908 
L 531.301477 122.026272 
L 533.691989 87.10118 
L 536.0825 67.970378 
L 538.473011 57.565542 
L 538.473011 57.565542 
" clip-path="url(#p3eef418511)" style="fill: none; stroke: #8c564b; stroke-width: 1.5; stroke-linecap: square"/>
   </g>
   <g id="line2d_18">
    <path d="M 60.370739 244.956307 
L 337.670057 244.84797 
L 366.356193 244.656736 
L 368.746705 244.539327 
L 373.527727 244.628941 
L 375.918239 244.353014 
L 392.651818 244.235832 
L 395.04233 244.106384 
L 404.604375 244.03917 
L 409.385398 243.916439 
L 411.775909 243.866403 
L 414.16642 243.690485 
L 416.556932 243.296396 
L 418.947443 243.344477 
L 421.337955 242.840454 
L 433.290511 242.721957 
L 435.681023 242.188588 
L 440.462045 242.183719 
L 442.852557 241.705092 
L 445.243068 241.684827 
L 447.63358 241.214973 
L 450.024091 241.191692 
L 452.414602 241.363392 
L 454.805114 239.562636 
L 457.195625 239.529904 
L 459.586136 237.833308 
L 461.976648 237.643494 
L 464.367159 237.958465 
L 466.75767 238.053654 
L 471.538693 238.098837 
L 473.929205 234.683456 
L 476.319716 234.453992 
L 478.710227 234.406432 
L 481.100739 234.20956 
L 483.49125 234.262904 
L 485.881761 234.008345 
L 488.272273 232.333096 
L 493.053295 231.476067 
L 495.443807 231.489316 
L 497.834318 233.161714 
L 500.22483 233.15982 
L 502.615341 230.139598 
L 505.005852 225.917765 
L 507.396364 225.738883 
L 512.177386 219.29246 
L 514.567898 208.832065 
L 516.958409 209.016498 
L 519.34892 208.458032 
L 521.739432 211.322375 
L 524.129943 211.710346 
L 526.520455 200.324114 
L 528.910966 195.335483 
L 531.301477 213.419612 
L 533.691989 208.871761 
L 536.0825 168.83117 
L 538.473011 53.877864 
L 538.473011 53.877864 
" clip-path="url(#p3eef418511)" style="fill: none; stroke: #e377c2; stroke-width: 1.5; stroke-linecap: square"/>
   </g>
   <g id="line2d_19">
    <path d="M 60.370739 244.956307 
L 323.326989 244.870992 
L 337.670057 244.771909 
L 344.841591 244.731346 
L 347.232102 244.62082 
L 363.965682 244.618866 
L 368.746705 244.553791 
L 373.527727 244.511322 
L 375.918239 244.448613 
L 378.30875 244.223544 
L 380.699261 244.371231 
L 385.480284 244.277201 
L 390.261307 244.182974 
L 392.651818 244.206975 
L 395.04233 244.058039 
L 397.432841 243.547954 
L 404.604375 243.542418 
L 406.994886 243.262062 
L 414.16642 243.097445 
L 416.556932 242.091242 
L 418.947443 242.120181 
L 421.337955 242.400862 
L 430.9 242.211814 
L 433.290511 240.778835 
L 438.071534 239.584834 
L 440.462045 237.83708 
L 445.243068 237.775345 
L 447.63358 237.434797 
L 452.414602 237.432002 
L 454.805114 237.601643 
L 457.195625 237.136492 
L 459.586136 237.090238 
L 461.976648 236.741721 
L 464.367159 235.309831 
L 466.75767 228.614122 
L 469.148182 228.597707 
L 471.538693 228.371746 
L 473.929205 227.549942 
L 476.319716 228.100395 
L 478.710227 226.315678 
L 481.100739 226.300538 
L 483.49125 221.51052 
L 485.881761 224.208778 
L 488.272273 220.652738 
L 490.662784 215.207114 
L 493.053295 208.182625 
L 495.443807 176.190765 
L 497.834318 174.571534 
L 500.22483 175.526507 
L 502.615341 184.916773 
L 505.005852 191.085084 
L 507.396364 191.705283 
L 509.786875 198.933903 
L 512.177386 187.398045 
L 514.567898 187.04355 
L 516.958409 181.189176 
L 519.34892 164.802706 
L 521.739432 167.423935 
L 524.129943 166.271052 
L 528.910966 148.771283 
L 531.301477 137.911243 
L 533.691989 133.292521 
L 536.0825 116.046139 
L 538.473011 97.353475 
L 538.473011 97.353475 
" clip-path="url(#p3eef418511)" style="fill: none; stroke: #7f7f7f; stroke-width: 1.5; stroke-linecap: square"/>
   </g>
   <g id="line2d_20">
    <path d="M 60.370739 244.956307 
L 359.184659 244.851431 
L 392.651818 244.587394 
L 399.823352 244.445984 
L 414.16642 244.118523 
L 416.556932 243.646682 
L 418.947443 243.648482 
L 421.337955 243.944736 
L 423.728466 243.437291 
L 426.118977 243.429455 
L 428.509489 243.573419 
L 430.9 243.536022 
L 433.290511 243.221336 
L 435.681023 243.367387 
L 442.852557 243.26305 
L 445.243068 242.382183 
L 447.63358 242.390055 
L 450.024091 242.203208 
L 452.414602 242.389408 
L 454.805114 241.977721 
L 457.195625 242.02467 
L 459.586136 241.803931 
L 461.976648 241.812771 
L 464.367159 239.061864 
L 466.75767 238.910718 
L 469.148182 238.875166 
L 471.538693 238.357856 
L 473.929205 238.098351 
L 476.319716 237.467208 
L 478.710227 237.309391 
L 483.49125 237.570564 
L 485.881761 237.378781 
L 488.272273 235.703076 
L 490.662784 236.451659 
L 493.053295 235.875652 
L 495.443807 230.711198 
L 497.834318 233.97271 
L 500.22483 233.523946 
L 502.615341 232.594007 
L 505.005852 232.349072 
L 507.396364 231.292131 
L 509.786875 226.911544 
L 512.177386 224.031535 
L 514.567898 213.125077 
L 516.958409 221.410967 
L 519.34892 219.635244 
L 521.739432 218.119762 
L 524.129943 178.542854 
L 526.520455 167.895348 
L 528.910966 172.09677 
L 531.301477 195.08983 
L 533.691989 170.093336 
L 536.0825 102.110901 
L 538.473011 100.056505 
L 538.473011 100.056505 
" clip-path="url(#p3eef418511)" style="fill: none; stroke: #bcbd22; stroke-width: 1.5; stroke-linecap: square"/>
   </g>
   <g id="line2d_21">
    <path d="M 60.370739 244.956307 
L 371.137216 244.866076 
L 418.947443 244.382477 
L 426.118977 244.123398 
L 428.509489 243.573588 
L 433.290511 243.504472 
L 435.681023 243.426156 
L 438.071534 243.574895 
L 440.462045 243.485523 
L 442.852557 243.162501 
L 450.024091 243.390246 
L 452.414602 242.473329 
L 454.805114 242.21986 
L 461.976648 242.334794 
L 464.367159 241.816682 
L 466.75767 241.89701 
L 469.148182 241.773153 
L 471.538693 238.956542 
L 473.929205 238.800355 
L 476.319716 239.094543 
L 481.100739 237.902353 
L 483.49125 237.845286 
L 485.881761 237.462454 
L 488.272273 237.485603 
L 490.662784 237.378693 
L 493.053295 235.167206 
L 495.443807 235.388751 
L 497.834318 235.156827 
L 500.22483 234.2551 
L 502.615341 234.178658 
L 505.005852 231.925515 
L 507.396364 230.058747 
L 509.786875 230.111645 
L 512.177386 222.192421 
L 514.567898 228.499413 
L 516.958409 227.209339 
L 519.34892 213.72074 
L 521.739432 215.475143 
L 524.129943 225.026755 
L 526.520455 204.779786 
L 528.910966 207.173278 
L 531.301477 185.671591 
L 533.691989 185.074894 
L 536.0825 71.267298 
L 538.473011 101.724535 
L 538.473011 101.724535 
" clip-path="url(#p3eef418511)" style="fill: none; stroke: #17becf; stroke-width: 1.5; stroke-linecap: square"/>
   </g>
   <g id="line2d_22">
    <path d="M 490.662784 255.558125 
L 490.662784 22.318125 
" clip-path="url(#p3eef418511)" style="fill: none; stroke-dasharray: 5.55,2.4; stroke-dashoffset: 0; stroke: #ff0000; stroke-width: 1.5"/>
   </g>
   <g id="patch_3">
    <path d="M 36.465625 255.558125 
L 36.465625 22.318125 
" style="fill: none; stroke: #000000; stroke-width: 0.8; stroke-linejoin: miter; stroke-linecap: square"/>
   </g>
   <g id="patch_4">
    <path d="M 562.378125 255.558125 
L 562.378125 22.318125 
" style="fill: none; stroke: #000000; stroke-width: 0.8; stroke-linejoin: miter; stroke-linecap: square"/>
   </g>
   <g id="patch_5">
    <path d="M 36.465625 255.558125 
L 562.378125 255.558125 
" style="fill: none; stroke: #000000; stroke-width: 0.8; stroke-linejoin: miter; stroke-linecap: square"/>
   </g>
   <g id="patch_6">
    <path d="M 36.465625 22.318125 
L 562.378125 22.318125 
" style="fill: none; stroke: #000000; stroke-width: 0.8; stroke-linejoin: miter; stroke-linecap: square"/>
   </g>
   <g id="text_12">
    <!-- Full Range -->
    <g transform="translate(268.243437 16.318125) scale(0.12 -0.12)">
     <defs>
      <path id="DejaVuSans-46" d="M 628 4666 
L 3309 4666 
L 3309 4134 
L 1259 4134 
L 1259 2759 
L 3109 2759 
L 3109 2228 
L 1259 2228 
L 1259 0 
L 628 0 
L 628 4666 
z
" transform="scale(0.015625)"/>
      <path id="DejaVuSans-75" d="M 544 1381 
L 544 3500 
L 1119 3500 
L 1119 1403 
Q 1119 906 1312 657 
Q 1506 409 1894 409 
Q 2359 409 2629 706 
Q 2900 1003 2900 1516 
L 2900 3500 
L 3475 3500 
L 3475 0 
L 2900 0 
L 2900 538 
Q 2691 219 2414 64 
Q 2138 -91 1772 -91 
Q 1169 -91 856 284 
Q 544 659 544 1381 
z
M 1991 3584 
L 1991 3584 
z
" transform="scale(0.015625)"/>
      <path id="DejaVuSans-6c" d="M 603 4863 
L 1178 4863 
L 1178 0 
L 603 0 
L 603 4863 
z
" transform="scale(0.015625)"/>
      <path id="DejaVuSans-20" transform="scale(0.015625)"/>
      <path id="DejaVuSans-52" d="M 2841 2188 
Q 3044 2119 3236 1894 
Q 3428 1669 3622 1275 
L 4263 0 
L 3584 0 
L 2988 1197 
Q 2756 1666 2539 1819 
Q 2322 1972 1947 1972 
L 1259 1972 
L 1259 0 
L 628 0 
L 628 4666 
L 2053 4666 
Q 2853 4666 3247 4331 
Q 3641 3997 3641 3322 
Q 3641 2881 3436 2590 
Q 3231 2300 2841 2188 
z
M 1259 4147 
L 1259 2491 
L 2053 2491 
Q 2509 2491 2742 2702 
Q 2975 2913 2975 3322 
Q 2975 3731 2742 3939 
Q 2509 4147 2053 4147 
L 1259 4147 
z
" transform="scale(0.015625)"/>
      <path id="DejaVuSans-61" d="M 2194 1759 
Q 1497 1759 1228 1600 
Q 959 1441 959 1056 
Q 959 750 1161 570 
Q 1363 391 1709 391 
Q 2188 391 2477 730 
Q 2766 1069 2766 1631 
L 2766 1759 
L 2194 1759 
z
M 3341 1997 
L 3341 0 
L 2766 0 
L 2766 531 
Q 2569 213 2275 61 
Q 1981 -91 1556 -91 
Q 1019 -91 701 211 
Q 384 513 384 1019 
Q 384 1609 779 1909 
Q 1175 2209 1959 2209 
L 2766 2209 
L 2766 2266 
Q 2766 2663 2505 2880 
Q 2244 3097 1772 3097 
Q 1472 3097 1187 3025 
Q 903 2953 641 2809 
L 641 3341 
Q 956 3463 1253 3523 
Q 1550 3584 1831 3584 
Q 2591 3584 2966 3190 
Q 3341 2797 3341 1997 
z
" transform="scale(0.015625)"/>
      <path id="DejaVuSans-6e" d="M 3513 2113 
L 3513 0 
L 2938 0 
L 2938 2094 
Q 2938 2591 2744 2837 
Q 2550 3084 2163 3084 
Q 1697 3084 1428 2787 
Q 1159 2491 1159 1978 
L 1159 0 
L 581 0 
L 581 3500 
L 1159 3500 
L 1159 2956 
Q 1366 3272 1645 3428 
Q 1925 3584 2291 3584 
Q 2894 3584 3203 3211 
Q 3513 2838 3513 2113 
z
" transform="scale(0.015625)"/>
      <path id="DejaVuSans-67" d="M 2906 1791 
Q 2906 2416 2648 2759 
Q 2391 3103 1925 3103 
Q 1463 3103 1205 2759 
Q 947 2416 947 1791 
Q 947 1169 1205 825 
Q 1463 481 1925 481 
Q 2391 481 2648 825 
Q 2906 1169 2906 1791 
z
M 3481 434 
Q 3481 -459 3084 -895 
Q 2688 -1331 1869 -1331 
Q 1566 -1331 1297 -1286 
Q 1028 -1241 775 -1147 
L 775 -588 
Q 1028 -725 1275 -790 
Q 1522 -856 1778 -856 
Q 2344 -856 2625 -561 
Q 2906 -266 2906 331 
L 2906 616 
Q 2728 306 2450 153 
Q 2172 0 1784 0 
Q 1141 0 747 490 
Q 353 981 353 1791 
Q 353 2603 747 3093 
Q 1141 3584 1784 3584 
Q 2172 3584 2450 3431 
Q 2728 3278 2906 2969 
L 2906 3500 
L 3481 3500 
L 3481 434 
z
" transform="scale(0.015625)"/>
      <path id="DejaVuSans-65" d="M 3597 1894 
L 3597 1613 
L 953 1613 
Q 991 1019 1311 708 
Q 1631 397 2203 397 
Q 2534 397 2845 478 
Q 3156 559 3463 722 
L 3463 178 
Q 3153 47 2828 -22 
Q 2503 -91 2169 -91 
Q 1331 -91 842 396 
Q 353 884 353 1716 
Q 353 2575 817 3079 
Q 1281 3584 2069 3584 
Q 2775 3584 3186 3129 
Q 3597 2675 3597 1894 
z
M 3022 2063 
Q 3016 2534 2758 2815 
Q 2500 3097 2075 3097 
Q 1594 3097 1305 2825 
Q 1016 2553 972 2059 
L 3022 2063 
z
" transform="scale(0.015625)"/>
     </defs>
     <use xlink:href="#DejaVuSans-46"/>
     <use xlink:href="#DejaVuSans-75" transform="translate(52.019531 0)"/>
     <use xlink:href="#DejaVuSans-6c" transform="translate(115.398438 0)"/>
     <use xlink:href="#DejaVuSans-6c" transform="translate(143.181641 0)"/>
     <use xlink:href="#DejaVuSans-20" transform="translate(170.964844 0)"/>
     <use xlink:href="#DejaVuSans-52" transform="translate(202.751953 0)"/>
     <use xlink:href="#DejaVuSans-61" transform="translate(269.984375 0)"/>
     <use xlink:href="#DejaVuSans-6e" transform="translate(331.263672 0)"/>
     <use xlink:href="#DejaVuSans-67" transform="translate(394.642578 0)"/>
     <use xlink:href="#DejaVuSans-65" transform="translate(458.119141 0)"/>
    </g>
   </g>
   <g id="legend_1">
    <g id="patch_7">
     <path d="M 43.465625 191.7775 
L 171.139063 191.7775 
Q 173.139063 191.7775 173.139063 189.7775 
L 173.139063 29.318125 
Q 173.139063 27.318125 171.139063 27.318125 
L 43.465625 27.318125 
Q 41.465625 27.318125 41.465625 29.318125 
L 41.465625 189.7775 
Q 41.465625 191.7775 43.465625 191.7775 
z
" style="fill: #ffffff; opacity: 0.8; stroke: #cccccc; stroke-linejoin: miter"/>
    </g>
    <g id="line2d_23">
     <path d="M 45.465625 35.416562 
L 55.465625 35.416562 
L 65.465625 35.416562 
" style="fill: none; stroke: #1f77b4; stroke-width: 1.5; stroke-linecap: square"/>
    </g>
    <g id="text_13">
     <!-- fft MSE -->
     <g transform="translate(73.465625 38.916562) scale(0.1 -0.1)">
      <defs>
       <path id="DejaVuSans-66" d="M 2375 4863 
L 2375 4384 
L 1825 4384 
Q 1516 4384 1395 4259 
Q 1275 4134 1275 3809 
L 1275 3500 
L 2222 3500 
L 2222 3053 
L 1275 3053 
L 1275 0 
L 697 0 
L 697 3053 
L 147 3053 
L 147 3500 
L 697 3500 
L 697 3744 
Q 697 4328 969 4595 
Q 1241 4863 1831 4863 
L 2375 4863 
z
" transform="scale(0.015625)"/>
       <path id="DejaVuSans-74" d="M 1172 4494 
L 1172 3500 
L 2356 3500 
L 2356 3053 
L 1172 3053 
L 1172 1153 
Q 1172 725 1289 603 
Q 1406 481 1766 481 
L 2356 481 
L 2356 0 
L 1766 0 
Q 1100 0 847 248 
Q 594 497 594 1153 
L 594 3053 
L 172 3053 
L 172 3500 
L 594 3500 
L 594 4494 
L 1172 4494 
z
" transform="scale(0.015625)"/>
       <path id="DejaVuSans-4d" d="M 628 4666 
L 1569 4666 
L 2759 1491 
L 3956 4666 
L 4897 4666 
L 4897 0 
L 4281 0 
L 4281 4097 
L 3078 897 
L 2444 897 
L 1241 4097 
L 1241 0 
L 628 0 
L 628 4666 
z
" transform="scale(0.015625)"/>
       <path id="DejaVuSans-53" d="M 3425 4513 
L 3425 3897 
Q 3066 4069 2747 4153 
Q 2428 4238 2131 4238 
Q 1616 4238 1336 4038 
Q 1056 3838 1056 3469 
Q 1056 3159 1242 3001 
Q 1428 2844 1947 2747 
L 2328 2669 
Q 3034 2534 3370 2195 
Q 3706 1856 3706 1288 
Q 3706 609 3251 259 
Q 2797 -91 1919 -91 
Q 1588 -91 1214 -16 
Q 841 59 441 206 
L 441 856 
Q 825 641 1194 531 
Q 1563 422 1919 422 
Q 2459 422 2753 634 
Q 3047 847 3047 1241 
Q 3047 1584 2836 1778 
Q 2625 1972 2144 2069 
L 1759 2144 
Q 1053 2284 737 2584 
Q 422 2884 422 3419 
Q 422 4038 858 4394 
Q 1294 4750 2059 4750 
Q 2388 4750 2728 4690 
Q 3069 4631 3425 4513 
z
" transform="scale(0.015625)"/>
       <path id="DejaVuSans-45" d="M 628 4666 
L 3578 4666 
L 3578 4134 
L 1259 4134 
L 1259 2753 
L 3481 2753 
L 3481 2222 
L 1259 2222 
L 1259 531 
L 3634 531 
L 3634 0 
L 628 0 
L 628 4666 
z
" transform="scale(0.015625)"/>
      </defs>
      <use xlink:href="#DejaVuSans-66"/>
      <use xlink:href="#DejaVuSans-66" transform="translate(35.205078 0)"/>
      <use xlink:href="#DejaVuSans-74" transform="translate(68.660156 0)"/>
      <use xlink:href="#DejaVuSans-20" transform="translate(107.869141 0)"/>
      <use xlink:href="#DejaVuSans-4d" transform="translate(139.65625 0)"/>
      <use xlink:href="#DejaVuSans-53" transform="translate(225.935547 0)"/>
      <use xlink:href="#DejaVuSans-45" transform="translate(289.412109 0)"/>
     </g>
    </g>
    <g id="line2d_24">
     <path d="M 45.465625 50.094688 
L 55.465625 50.094688 
L 65.465625 50.094688 
" style="fill: none; stroke: #ff7f0e; stroke-width: 1.5; stroke-linecap: square"/>
    </g>
    <g id="text_14">
     <!-- haar MSE (Level 1) -->
     <g transform="translate(73.465625 53.594688) scale(0.1 -0.1)">
      <defs>
       <path id="DejaVuSans-68" d="M 3513 2113 
L 3513 0 
L 2938 0 
L 2938 2094 
Q 2938 2591 2744 2837 
Q 2550 3084 2163 3084 
Q 1697 3084 1428 2787 
Q 1159 2491 1159 1978 
L 1159 0 
L 581 0 
L 581 4863 
L 1159 4863 
L 1159 2956 
Q 1366 3272 1645 3428 
Q 1925 3584 2291 3584 
Q 2894 3584 3203 3211 
Q 3513 2838 3513 2113 
z
" transform="scale(0.015625)"/>
       <path id="DejaVuSans-72" d="M 2631 2963 
Q 2534 3019 2420 3045 
Q 2306 3072 2169 3072 
Q 1681 3072 1420 2755 
Q 1159 2438 1159 1844 
L 1159 0 
L 581 0 
L 581 3500 
L 1159 3500 
L 1159 2956 
Q 1341 3275 1631 3429 
Q 1922 3584 2338 3584 
Q 2397 3584 2469 3576 
Q 2541 3569 2628 3553 
L 2631 2963 
z
" transform="scale(0.015625)"/>
       <path id="DejaVuSans-28" d="M 1984 4856 
Q 1566 4138 1362 3434 
Q 1159 2731 1159 2009 
Q 1159 1288 1364 580 
Q 1569 -128 1984 -844 
L 1484 -844 
Q 1016 -109 783 600 
Q 550 1309 550 2009 
Q 550 2706 781 3412 
Q 1013 4119 1484 4856 
L 1984 4856 
z
" transform="scale(0.015625)"/>
       <path id="DejaVuSans-4c" d="M 628 4666 
L 1259 4666 
L 1259 531 
L 3531 531 
L 3531 0 
L 628 0 
L 628 4666 
z
" transform="scale(0.015625)"/>
       <path id="DejaVuSans-76" d="M 191 3500 
L 800 3500 
L 1894 563 
L 2988 3500 
L 3597 3500 
L 2284 0 
L 1503 0 
L 191 3500 
z
" transform="scale(0.015625)"/>
       <path id="DejaVuSans-29" d="M 513 4856 
L 1013 4856 
Q 1481 4119 1714 3412 
Q 1947 2706 1947 2009 
Q 1947 1309 1714 600 
Q 1481 -109 1013 -844 
L 513 -844 
Q 928 -128 1133 580 
Q 1338 1288 1338 2009 
Q 1338 2731 1133 3434 
Q 928 4138 513 4856 
z
" transform="scale(0.015625)"/>
      </defs>
      <use xlink:href="#DejaVuSans-68"/>
      <use xlink:href="#DejaVuSans-61" transform="translate(63.378906 0)"/>
      <use xlink:href="#DejaVuSans-61" transform="translate(124.658203 0)"/>
      <use xlink:href="#DejaVuSans-72" transform="translate(185.9375 0)"/>
      <use xlink:href="#DejaVuSans-20" transform="translate(227.050781 0)"/>
      <use xlink:href="#DejaVuSans-4d" transform="translate(258.837891 0)"/>
      <use xlink:href="#DejaVuSans-53" transform="translate(345.117188 0)"/>
      <use xlink:href="#DejaVuSans-45" transform="translate(408.59375 0)"/>
      <use xlink:href="#DejaVuSans-20" transform="translate(471.777344 0)"/>
      <use xlink:href="#DejaVuSans-28" transform="translate(503.564453 0)"/>
      <use xlink:href="#DejaVuSans-4c" transform="translate(542.578125 0)"/>
      <use xlink:href="#DejaVuSans-65" transform="translate(596.541016 0)"/>
      <use xlink:href="#DejaVuSans-76" transform="translate(658.064453 0)"/>
      <use xlink:href="#DejaVuSans-65" transform="translate(717.244141 0)"/>
      <use xlink:href="#DejaVuSans-6c" transform="translate(778.767578 0)"/>
      <use xlink:href="#DejaVuSans-20" transform="translate(806.550781 0)"/>
      <use xlink:href="#DejaVuSans-31" transform="translate(838.337891 0)"/>
      <use xlink:href="#DejaVuSans-29" transform="translate(901.960938 0)"/>
     </g>
    </g>
    <g id="line2d_25">
     <path d="M 45.465625 64.772813 
L 55.465625 64.772813 
L 65.465625 64.772813 
" style="fill: none; stroke: #2ca02c; stroke-width: 1.5; stroke-linecap: square"/>
    </g>
    <g id="text_15">
     <!-- haar MSE (Level 2) -->
     <g transform="translate(73.465625 68.272813) scale(0.1 -0.1)">
      <use xlink:href="#DejaVuSans-68"/>
      <use xlink:href="#DejaVuSans-61" transform="translate(63.378906 0)"/>
      <use xlink:href="#DejaVuSans-61" transform="translate(124.658203 0)"/>
      <use xlink:href="#DejaVuSans-72" transform="translate(185.9375 0)"/>
      <use xlink:href="#DejaVuSans-20" transform="translate(227.050781 0)"/>
      <use xlink:href="#DejaVuSans-4d" transform="translate(258.837891 0)"/>
      <use xlink:href="#DejaVuSans-53" transform="translate(345.117188 0)"/>
      <use xlink:href="#DejaVuSans-45" transform="translate(408.59375 0)"/>
      <use xlink:href="#DejaVuSans-20" transform="translate(471.777344 0)"/>
      <use xlink:href="#DejaVuSans-28" transform="translate(503.564453 0)"/>
      <use xlink:href="#DejaVuSans-4c" transform="translate(542.578125 0)"/>
      <use xlink:href="#DejaVuSans-65" transform="translate(596.541016 0)"/>
      <use xlink:href="#DejaVuSans-76" transform="translate(658.064453 0)"/>
      <use xlink:href="#DejaVuSans-65" transform="translate(717.244141 0)"/>
      <use xlink:href="#DejaVuSans-6c" transform="translate(778.767578 0)"/>
      <use xlink:href="#DejaVuSans-20" transform="translate(806.550781 0)"/>
      <use xlink:href="#DejaVuSans-32" transform="translate(838.337891 0)"/>
      <use xlink:href="#DejaVuSans-29" transform="translate(901.960938 0)"/>
     </g>
    </g>
    <g id="line2d_26">
     <path d="M 45.465625 79.450938 
L 55.465625 79.450938 
L 65.465625 79.450938 
" style="fill: none; stroke: #d62728; stroke-width: 1.5; stroke-linecap: square"/>
    </g>
    <g id="text_16">
     <!-- haar MSE (Level 3) -->
     <g transform="translate(73.465625 82.950938) scale(0.1 -0.1)">
      <use xlink:href="#DejaVuSans-68"/>
      <use xlink:href="#DejaVuSans-61" transform="translate(63.378906 0)"/>
      <use xlink:href="#DejaVuSans-61" transform="translate(124.658203 0)"/>
      <use xlink:href="#DejaVuSans-72" transform="translate(185.9375 0)"/>
      <use xlink:href="#DejaVuSans-20" transform="translate(227.050781 0)"/>
      <use xlink:href="#DejaVuSans-4d" transform="translate(258.837891 0)"/>
      <use xlink:href="#DejaVuSans-53" transform="translate(345.117188 0)"/>
      <use xlink:href="#DejaVuSans-45" transform="translate(408.59375 0)"/>
      <use xlink:href="#DejaVuSans-20" transform="translate(471.777344 0)"/>
      <use xlink:href="#DejaVuSans-28" transform="translate(503.564453 0)"/>
      <use xlink:href="#DejaVuSans-4c" transform="translate(542.578125 0)"/>
      <use xlink:href="#DejaVuSans-65" transform="translate(596.541016 0)"/>
      <use xlink:href="#DejaVuSans-76" transform="translate(658.064453 0)"/>
      <use xlink:href="#DejaVuSans-65" transform="translate(717.244141 0)"/>
      <use xlink:href="#DejaVuSans-6c" transform="translate(778.767578 0)"/>
      <use xlink:href="#DejaVuSans-20" transform="translate(806.550781 0)"/>
      <use xlink:href="#DejaVuSans-33" transform="translate(838.337891 0)"/>
      <use xlink:href="#DejaVuSans-29" transform="translate(901.960938 0)"/>
     </g>
    </g>
    <g id="line2d_27">
     <path d="M 45.465625 94.129063 
L 55.465625 94.129063 
L 65.465625 94.129063 
" style="fill: none; stroke: #9467bd; stroke-width: 1.5; stroke-linecap: square"/>
    </g>
    <g id="text_17">
     <!-- db4 MSE (Level 1) -->
     <g transform="translate(73.465625 97.629063) scale(0.1 -0.1)">
      <defs>
       <path id="DejaVuSans-64" d="M 2906 2969 
L 2906 4863 
L 3481 4863 
L 3481 0 
L 2906 0 
L 2906 525 
Q 2725 213 2448 61 
Q 2172 -91 1784 -91 
Q 1150 -91 751 415 
Q 353 922 353 1747 
Q 353 2572 751 3078 
Q 1150 3584 1784 3584 
Q 2172 3584 2448 3432 
Q 2725 3281 2906 2969 
z
M 947 1747 
Q 947 1113 1208 752 
Q 1469 391 1925 391 
Q 2381 391 2643 752 
Q 2906 1113 2906 1747 
Q 2906 2381 2643 2742 
Q 2381 3103 1925 3103 
Q 1469 3103 1208 2742 
Q 947 2381 947 1747 
z
" transform="scale(0.015625)"/>
       <path id="DejaVuSans-62" d="M 3116 1747 
Q 3116 2381 2855 2742 
Q 2594 3103 2138 3103 
Q 1681 3103 1420 2742 
Q 1159 2381 1159 1747 
Q 1159 1113 1420 752 
Q 1681 391 2138 391 
Q 2594 391 2855 752 
Q 3116 1113 3116 1747 
z
M 1159 2969 
Q 1341 3281 1617 3432 
Q 1894 3584 2278 3584 
Q 2916 3584 3314 3078 
Q 3713 2572 3713 1747 
Q 3713 922 3314 415 
Q 2916 -91 2278 -91 
Q 1894 -91 1617 61 
Q 1341 213 1159 525 
L 1159 0 
L 581 0 
L 581 4863 
L 1159 4863 
L 1159 2969 
z
" transform="scale(0.015625)"/>
      </defs>
      <use xlink:href="#DejaVuSans-64"/>
      <use xlink:href="#DejaVuSans-62" transform="translate(63.476562 0)"/>
      <use xlink:href="#DejaVuSans-34" transform="translate(126.953125 0)"/>
      <use xlink:href="#DejaVuSans-20" transform="translate(190.576172 0)"/>
      <use xlink:href="#DejaVuSans-4d" transform="translate(222.363281 0)"/>
      <use xlink:href="#DejaVuSans-53" transform="translate(308.642578 0)"/>
      <use xlink:href="#DejaVuSans-45" transform="translate(372.119141 0)"/>
      <use xlink:href="#DejaVuSans-20" transform="translate(435.302734 0)"/>
      <use xlink:href="#DejaVuSans-28" transform="translate(467.089844 0)"/>
      <use xlink:href="#DejaVuSans-4c" transform="translate(506.103516 0)"/>
      <use xlink:href="#DejaVuSans-65" transform="translate(560.066406 0)"/>
      <use xlink:href="#DejaVuSans-76" transform="translate(621.589844 0)"/>
      <use xlink:href="#DejaVuSans-65" transform="translate(680.769531 0)"/>
      <use xlink:href="#DejaVuSans-6c" transform="translate(742.292969 0)"/>
      <use xlink:href="#DejaVuSans-20" transform="translate(770.076172 0)"/>
      <use xlink:href="#DejaVuSans-31" transform="translate(801.863281 0)"/>
      <use xlink:href="#DejaVuSans-29" transform="translate(865.486328 0)"/>
     </g>
    </g>
    <g id="line2d_28">
     <path d="M 45.465625 108.807187 
L 55.465625 108.807187 
L 65.465625 108.807187 
" style="fill: none; stroke: #8c564b; stroke-width: 1.5; stroke-linecap: square"/>
    </g>
    <g id="text_18">
     <!-- db4 MSE (Level 2) -->
     <g transform="translate(73.465625 112.307187) scale(0.1 -0.1)">
      <use xlink:href="#DejaVuSans-64"/>
      <use xlink:href="#DejaVuSans-62" transform="translate(63.476562 0)"/>
      <use xlink:href="#DejaVuSans-34" transform="translate(126.953125 0)"/>
      <use xlink:href="#DejaVuSans-20" transform="translate(190.576172 0)"/>
      <use xlink:href="#DejaVuSans-4d" transform="translate(222.363281 0)"/>
      <use xlink:href="#DejaVuSans-53" transform="translate(308.642578 0)"/>
      <use xlink:href="#DejaVuSans-45" transform="translate(372.119141 0)"/>
      <use xlink:href="#DejaVuSans-20" transform="translate(435.302734 0)"/>
      <use xlink:href="#DejaVuSans-28" transform="translate(467.089844 0)"/>
      <use xlink:href="#DejaVuSans-4c" transform="translate(506.103516 0)"/>
      <use xlink:href="#DejaVuSans-65" transform="translate(560.066406 0)"/>
      <use xlink:href="#DejaVuSans-76" transform="translate(621.589844 0)"/>
      <use xlink:href="#DejaVuSans-65" transform="translate(680.769531 0)"/>
      <use xlink:href="#DejaVuSans-6c" transform="translate(742.292969 0)"/>
      <use xlink:href="#DejaVuSans-20" transform="translate(770.076172 0)"/>
      <use xlink:href="#DejaVuSans-32" transform="translate(801.863281 0)"/>
      <use xlink:href="#DejaVuSans-29" transform="translate(865.486328 0)"/>
     </g>
    </g>
    <g id="line2d_29">
     <path d="M 45.465625 123.485313 
L 55.465625 123.485313 
L 65.465625 123.485313 
" style="fill: none; stroke: #e377c2; stroke-width: 1.5; stroke-linecap: square"/>
    </g>
    <g id="text_19">
     <!-- db4 MSE (Level 3) -->
     <g transform="translate(73.465625 126.985313) scale(0.1 -0.1)">
      <use xlink:href="#DejaVuSans-64"/>
      <use xlink:href="#DejaVuSans-62" transform="translate(63.476562 0)"/>
      <use xlink:href="#DejaVuSans-34" transform="translate(126.953125 0)"/>
      <use xlink:href="#DejaVuSans-20" transform="translate(190.576172 0)"/>
      <use xlink:href="#DejaVuSans-4d" transform="translate(222.363281 0)"/>
      <use xlink:href="#DejaVuSans-53" transform="translate(308.642578 0)"/>
      <use xlink:href="#DejaVuSans-45" transform="translate(372.119141 0)"/>
      <use xlink:href="#DejaVuSans-20" transform="translate(435.302734 0)"/>
      <use xlink:href="#DejaVuSans-28" transform="translate(467.089844 0)"/>
      <use xlink:href="#DejaVuSans-4c" transform="translate(506.103516 0)"/>
      <use xlink:href="#DejaVuSans-65" transform="translate(560.066406 0)"/>
      <use xlink:href="#DejaVuSans-76" transform="translate(621.589844 0)"/>
      <use xlink:href="#DejaVuSans-65" transform="translate(680.769531 0)"/>
      <use xlink:href="#DejaVuSans-6c" transform="translate(742.292969 0)"/>
      <use xlink:href="#DejaVuSans-20" transform="translate(770.076172 0)"/>
      <use xlink:href="#DejaVuSans-33" transform="translate(801.863281 0)"/>
      <use xlink:href="#DejaVuSans-29" transform="translate(865.486328 0)"/>
     </g>
    </g>
    <g id="line2d_30">
     <path d="M 45.465625 138.163437 
L 55.465625 138.163437 
L 65.465625 138.163437 
" style="fill: none; stroke: #7f7f7f; stroke-width: 1.5; stroke-linecap: square"/>
    </g>
    <g id="text_20">
     <!-- coif3 MSE (Level 1) -->
     <g transform="translate(73.465625 141.663437) scale(0.1 -0.1)">
      <defs>
       <path id="DejaVuSans-63" d="M 3122 3366 
L 3122 2828 
Q 2878 2963 2633 3030 
Q 2388 3097 2138 3097 
Q 1578 3097 1268 2742 
Q 959 2388 959 1747 
Q 959 1106 1268 751 
Q 1578 397 2138 397 
Q 2388 397 2633 464 
Q 2878 531 3122 666 
L 3122 134 
Q 2881 22 2623 -34 
Q 2366 -91 2075 -91 
Q 1284 -91 818 406 
Q 353 903 353 1747 
Q 353 2603 823 3093 
Q 1294 3584 2113 3584 
Q 2378 3584 2631 3529 
Q 2884 3475 3122 3366 
z
" transform="scale(0.015625)"/>
       <path id="DejaVuSans-6f" d="M 1959 3097 
Q 1497 3097 1228 2736 
Q 959 2375 959 1747 
Q 959 1119 1226 758 
Q 1494 397 1959 397 
Q 2419 397 2687 759 
Q 2956 1122 2956 1747 
Q 2956 2369 2687 2733 
Q 2419 3097 1959 3097 
z
M 1959 3584 
Q 2709 3584 3137 3096 
Q 3566 2609 3566 1747 
Q 3566 888 3137 398 
Q 2709 -91 1959 -91 
Q 1206 -91 779 398 
Q 353 888 353 1747 
Q 353 2609 779 3096 
Q 1206 3584 1959 3584 
z
" transform="scale(0.015625)"/>
       <path id="DejaVuSans-69" d="M 603 3500 
L 1178 3500 
L 1178 0 
L 603 0 
L 603 3500 
z
M 603 4863 
L 1178 4863 
L 1178 4134 
L 603 4134 
L 603 4863 
z
" transform="scale(0.015625)"/>
      </defs>
      <use xlink:href="#DejaVuSans-63"/>
      <use xlink:href="#DejaVuSans-6f" transform="translate(54.980469 0)"/>
      <use xlink:href="#DejaVuSans-69" transform="translate(116.162109 0)"/>
      <use xlink:href="#DejaVuSans-66" transform="translate(143.945312 0)"/>
      <use xlink:href="#DejaVuSans-33" transform="translate(179.150391 0)"/>
      <use xlink:href="#DejaVuSans-20" transform="translate(242.773438 0)"/>
      <use xlink:href="#DejaVuSans-4d" transform="translate(274.560547 0)"/>
      <use xlink:href="#DejaVuSans-53" transform="translate(360.839844 0)"/>
      <use xlink:href="#DejaVuSans-45" transform="translate(424.316406 0)"/>
      <use xlink:href="#DejaVuSans-20" transform="translate(487.5 0)"/>
      <use xlink:href="#DejaVuSans-28" transform="translate(519.287109 0)"/>
      <use xlink:href="#DejaVuSans-4c" transform="translate(558.300781 0)"/>
      <use xlink:href="#DejaVuSans-65" transform="translate(612.263672 0)"/>
      <use xlink:href="#DejaVuSans-76" transform="translate(673.787109 0)"/>
      <use xlink:href="#DejaVuSans-65" transform="translate(732.966797 0)"/>
      <use xlink:href="#DejaVuSans-6c" transform="translate(794.490234 0)"/>
      <use xlink:href="#DejaVuSans-20" transform="translate(822.273438 0)"/>
      <use xlink:href="#DejaVuSans-31" transform="translate(854.060547 0)"/>
      <use xlink:href="#DejaVuSans-29" transform="translate(917.683594 0)"/>
     </g>
    </g>
    <g id="line2d_31">
     <path d="M 45.465625 152.841563 
L 55.465625 152.841563 
L 65.465625 152.841563 
" style="fill: none; stroke: #bcbd22; stroke-width: 1.5; stroke-linecap: square"/>
    </g>
    <g id="text_21">
     <!-- coif3 MSE (Level 2) -->
     <g transform="translate(73.465625 156.341563) scale(0.1 -0.1)">
      <use xlink:href="#DejaVuSans-63"/>
      <use xlink:href="#DejaVuSans-6f" transform="translate(54.980469 0)"/>
      <use xlink:href="#DejaVuSans-69" transform="translate(116.162109 0)"/>
      <use xlink:href="#DejaVuSans-66" transform="translate(143.945312 0)"/>
      <use xlink:href="#DejaVuSans-33" transform="translate(179.150391 0)"/>
      <use xlink:href="#DejaVuSans-20" transform="translate(242.773438 0)"/>
      <use xlink:href="#DejaVuSans-4d" transform="translate(274.560547 0)"/>
      <use xlink:href="#DejaVuSans-53" transform="translate(360.839844 0)"/>
      <use xlink:href="#DejaVuSans-45" transform="translate(424.316406 0)"/>
      <use xlink:href="#DejaVuSans-20" transform="translate(487.5 0)"/>
      <use xlink:href="#DejaVuSans-28" transform="translate(519.287109 0)"/>
      <use xlink:href="#DejaVuSans-4c" transform="translate(558.300781 0)"/>
      <use xlink:href="#DejaVuSans-65" transform="translate(612.263672 0)"/>
      <use xlink:href="#DejaVuSans-76" transform="translate(673.787109 0)"/>
      <use xlink:href="#DejaVuSans-65" transform="translate(732.966797 0)"/>
      <use xlink:href="#DejaVuSans-6c" transform="translate(794.490234 0)"/>
      <use xlink:href="#DejaVuSans-20" transform="translate(822.273438 0)"/>
      <use xlink:href="#DejaVuSans-32" transform="translate(854.060547 0)"/>
      <use xlink:href="#DejaVuSans-29" transform="translate(917.683594 0)"/>
     </g>
    </g>
    <g id="line2d_32">
     <path d="M 45.465625 167.519687 
L 55.465625 167.519687 
L 65.465625 167.519687 
" style="fill: none; stroke: #17becf; stroke-width: 1.5; stroke-linecap: square"/>
    </g>
    <g id="text_22">
     <!-- coif3 MSE (Level 3) -->
     <g transform="translate(73.465625 171.019687) scale(0.1 -0.1)">
      <use xlink:href="#DejaVuSans-63"/>
      <use xlink:href="#DejaVuSans-6f" transform="translate(54.980469 0)"/>
      <use xlink:href="#DejaVuSans-69" transform="translate(116.162109 0)"/>
      <use xlink:href="#DejaVuSans-66" transform="translate(143.945312 0)"/>
      <use xlink:href="#DejaVuSans-33" transform="translate(179.150391 0)"/>
      <use xlink:href="#DejaVuSans-20" transform="translate(242.773438 0)"/>
      <use xlink:href="#DejaVuSans-4d" transform="translate(274.560547 0)"/>
      <use xlink:href="#DejaVuSans-53" transform="translate(360.839844 0)"/>
      <use xlink:href="#DejaVuSans-45" transform="translate(424.316406 0)"/>
      <use xlink:href="#DejaVuSans-20" transform="translate(487.5 0)"/>
      <use xlink:href="#DejaVuSans-28" transform="translate(519.287109 0)"/>
      <use xlink:href="#DejaVuSans-4c" transform="translate(558.300781 0)"/>
      <use xlink:href="#DejaVuSans-65" transform="translate(612.263672 0)"/>
      <use xlink:href="#DejaVuSans-76" transform="translate(673.787109 0)"/>
      <use xlink:href="#DejaVuSans-65" transform="translate(732.966797 0)"/>
      <use xlink:href="#DejaVuSans-6c" transform="translate(794.490234 0)"/>
      <use xlink:href="#DejaVuSans-20" transform="translate(822.273438 0)"/>
      <use xlink:href="#DejaVuSans-33" transform="translate(854.060547 0)"/>
      <use xlink:href="#DejaVuSans-29" transform="translate(917.683594 0)"/>
     </g>
    </g>
    <g id="line2d_33">
     <path d="M 45.465625 182.197812 
L 55.465625 182.197812 
L 65.465625 182.197812 
" style="fill: none; stroke-dasharray: 5.55,2.4; stroke-dashoffset: 0; stroke: #ff0000; stroke-width: 1.5"/>
    </g>
    <g id="text_23">
     <!-- 50% compression -->
     <g transform="translate(73.465625 185.697812) scale(0.1 -0.1)">
      <defs>
       <path id="DejaVuSans-35" d="M 691 4666 
L 3169 4666 
L 3169 4134 
L 1269 4134 
L 1269 2991 
Q 1406 3038 1543 3061 
Q 1681 3084 1819 3084 
Q 2600 3084 3056 2656 
Q 3513 2228 3513 1497 
Q 3513 744 3044 326 
Q 2575 -91 1722 -91 
Q 1428 -91 1123 -41 
Q 819 9 494 109 
L 494 744 
Q 775 591 1075 516 
Q 1375 441 1709 441 
Q 2250 441 2565 725 
Q 2881 1009 2881 1497 
Q 2881 1984 2565 2268 
Q 2250 2553 1709 2553 
Q 1456 2553 1204 2497 
Q 953 2441 691 2322 
L 691 4666 
z
" transform="scale(0.015625)"/>
       <path id="DejaVuSans-25" d="M 4653 2053 
Q 4381 2053 4226 1822 
Q 4072 1591 4072 1178 
Q 4072 772 4226 539 
Q 4381 306 4653 306 
Q 4919 306 5073 539 
Q 5228 772 5228 1178 
Q 5228 1588 5073 1820 
Q 4919 2053 4653 2053 
z
M 4653 2450 
Q 5147 2450 5437 2106 
Q 5728 1763 5728 1178 
Q 5728 594 5436 251 
Q 5144 -91 4653 -91 
Q 4153 -91 3862 251 
Q 3572 594 3572 1178 
Q 3572 1766 3864 2108 
Q 4156 2450 4653 2450 
z
M 1428 4353 
Q 1159 4353 1004 4120 
Q 850 3888 850 3481 
Q 850 3069 1003 2837 
Q 1156 2606 1428 2606 
Q 1700 2606 1854 2837 
Q 2009 3069 2009 3481 
Q 2009 3884 1853 4118 
Q 1697 4353 1428 4353 
z
M 4250 4750 
L 4750 4750 
L 1831 -91 
L 1331 -91 
L 4250 4750 
z
M 1428 4750 
Q 1922 4750 2215 4408 
Q 2509 4066 2509 3481 
Q 2509 2891 2217 2550 
Q 1925 2209 1428 2209 
Q 931 2209 642 2551 
Q 353 2894 353 3481 
Q 353 4063 643 4406 
Q 934 4750 1428 4750 
z
" transform="scale(0.015625)"/>
       <path id="DejaVuSans-6d" d="M 3328 2828 
Q 3544 3216 3844 3400 
Q 4144 3584 4550 3584 
Q 5097 3584 5394 3201 
Q 5691 2819 5691 2113 
L 5691 0 
L 5113 0 
L 5113 2094 
Q 5113 2597 4934 2840 
Q 4756 3084 4391 3084 
Q 3944 3084 3684 2787 
Q 3425 2491 3425 1978 
L 3425 0 
L 2847 0 
L 2847 2094 
Q 2847 2600 2669 2842 
Q 2491 3084 2119 3084 
Q 1678 3084 1418 2786 
Q 1159 2488 1159 1978 
L 1159 0 
L 581 0 
L 581 3500 
L 1159 3500 
L 1159 2956 
Q 1356 3278 1631 3431 
Q 1906 3584 2284 3584 
Q 2666 3584 2933 3390 
Q 3200 3197 3328 2828 
z
" transform="scale(0.015625)"/>
       <path id="DejaVuSans-70" d="M 1159 525 
L 1159 -1331 
L 581 -1331 
L 581 3500 
L 1159 3500 
L 1159 2969 
Q 1341 3281 1617 3432 
Q 1894 3584 2278 3584 
Q 2916 3584 3314 3078 
Q 3713 2572 3713 1747 
Q 3713 922 3314 415 
Q 2916 -91 2278 -91 
Q 1894 -91 1617 61 
Q 1341 213 1159 525 
z
M 3116 1747 
Q 3116 2381 2855 2742 
Q 2594 3103 2138 3103 
Q 1681 3103 1420 2742 
Q 1159 2381 1159 1747 
Q 1159 1113 1420 752 
Q 1681 391 2138 391 
Q 2594 391 2855 752 
Q 3116 1113 3116 1747 
z
" transform="scale(0.015625)"/>
       <path id="DejaVuSans-73" d="M 2834 3397 
L 2834 2853 
Q 2591 2978 2328 3040 
Q 2066 3103 1784 3103 
Q 1356 3103 1142 2972 
Q 928 2841 928 2578 
Q 928 2378 1081 2264 
Q 1234 2150 1697 2047 
L 1894 2003 
Q 2506 1872 2764 1633 
Q 3022 1394 3022 966 
Q 3022 478 2636 193 
Q 2250 -91 1575 -91 
Q 1294 -91 989 -36 
Q 684 19 347 128 
L 347 722 
Q 666 556 975 473 
Q 1284 391 1588 391 
Q 1994 391 2212 530 
Q 2431 669 2431 922 
Q 2431 1156 2273 1281 
Q 2116 1406 1581 1522 
L 1381 1569 
Q 847 1681 609 1914 
Q 372 2147 372 2553 
Q 372 3047 722 3315 
Q 1072 3584 1716 3584 
Q 2034 3584 2315 3537 
Q 2597 3491 2834 3397 
z
" transform="scale(0.015625)"/>
      </defs>
      <use xlink:href="#DejaVuSans-35"/>
      <use xlink:href="#DejaVuSans-30" transform="translate(63.623047 0)"/>
      <use xlink:href="#DejaVuSans-25" transform="translate(127.246094 0)"/>
      <use xlink:href="#DejaVuSans-20" transform="translate(222.265625 0)"/>
      <use xlink:href="#DejaVuSans-63" transform="translate(254.052734 0)"/>
      <use xlink:href="#DejaVuSans-6f" transform="translate(309.033203 0)"/>
      <use xlink:href="#DejaVuSans-6d" transform="translate(370.214844 0)"/>
      <use xlink:href="#DejaVuSans-70" transform="translate(467.626953 0)"/>
      <use xlink:href="#DejaVuSans-72" transform="translate(531.103516 0)"/>
      <use xlink:href="#DejaVuSans-65" transform="translate(569.966797 0)"/>
      <use xlink:href="#DejaVuSans-73" transform="translate(631.490234 0)"/>
      <use xlink:href="#DejaVuSans-73" transform="translate(683.589844 0)"/>
      <use xlink:href="#DejaVuSans-69" transform="translate(735.689453 0)"/>
      <use xlink:href="#DejaVuSans-6f" transform="translate(763.472656 0)"/>
      <use xlink:href="#DejaVuSans-6e" transform="translate(824.654297 0)"/>
     </g>
    </g>
   </g>
  </g>
  <g id="axes_2">
   <g id="patch_8">
    <path d="M 602.318125 255.558125 
L 1128.230625 255.558125 
L 1128.230625 22.318125 
L 602.318125 22.318125 
L 602.318125 255.558125 
z
" style="fill: none"/>
   </g>
   <g id="matplotlib.axis_3">
    <g id="xtick_7">
     <g id="line2d_34">
      <g>
       <use xlink:href="#mdca3ca13a7" x="602.318125" y="255.558125" style="stroke: #000000; stroke-width: 0.8"/>
      </g>
     </g>
     <g id="text_24">
      <!-- 90 -->
      <g transform="translate(595.955625 270.156563) scale(0.1 -0.1)">
       <defs>
        <path id="DejaVuSans-39" d="M 703 97 
L 703 672 
Q 941 559 1184 500 
Q 1428 441 1663 441 
Q 2288 441 2617 861 
Q 2947 1281 2994 2138 
Q 2813 1869 2534 1725 
Q 2256 1581 1919 1581 
Q 1219 1581 811 2004 
Q 403 2428 403 3163 
Q 403 3881 828 4315 
Q 1253 4750 1959 4750 
Q 2769 4750 3195 4129 
Q 3622 3509 3622 2328 
Q 3622 1225 3098 567 
Q 2575 -91 1691 -91 
Q 1453 -91 1209 -44 
Q 966 3 703 97 
z
M 1959 2075 
Q 2384 2075 2632 2365 
Q 2881 2656 2881 3163 
Q 2881 3666 2632 3958 
Q 2384 4250 1959 4250 
Q 1534 4250 1286 3958 
Q 1038 3666 1038 3163 
Q 1038 2656 1286 2365 
Q 1534 2075 1959 2075 
z
" transform="scale(0.015625)"/>
       </defs>
       <use xlink:href="#DejaVuSans-39"/>
       <use xlink:href="#DejaVuSans-30" transform="translate(63.623047 0)"/>
      </g>
     </g>
    </g>
    <g id="xtick_8">
     <g id="line2d_35">
      <g>
       <use xlink:href="#mdca3ca13a7" x="707.500625" y="255.558125" style="stroke: #000000; stroke-width: 0.8"/>
      </g>
     </g>
     <g id="text_25">
      <!-- 92 -->
      <g transform="translate(701.138125 270.156563) scale(0.1 -0.1)">
       <use xlink:href="#DejaVuSans-39"/>
       <use xlink:href="#DejaVuSans-32" transform="translate(63.623047 0)"/>
      </g>
     </g>
    </g>
    <g id="xtick_9">
     <g id="line2d_36">
      <g>
       <use xlink:href="#mdca3ca13a7" x="812.683125" y="255.558125" style="stroke: #000000; stroke-width: 0.8"/>
      </g>
     </g>
     <g id="text_26">
      <!-- 94 -->
      <g transform="translate(806.320625 270.156563) scale(0.1 -0.1)">
       <use xlink:href="#DejaVuSans-39"/>
       <use xlink:href="#DejaVuSans-34" transform="translate(63.623047 0)"/>
      </g>
     </g>
    </g>
    <g id="xtick_10">
     <g id="line2d_37">
      <g>
       <use xlink:href="#mdca3ca13a7" x="917.865625" y="255.558125" style="stroke: #000000; stroke-width: 0.8"/>
      </g>
     </g>
     <g id="text_27">
      <!-- 96 -->
      <g transform="translate(911.503125 270.156563) scale(0.1 -0.1)">
       <use xlink:href="#DejaVuSans-39"/>
       <use xlink:href="#DejaVuSans-36" transform="translate(63.623047 0)"/>
      </g>
     </g>
    </g>
    <g id="xtick_11">
     <g id="line2d_38">
      <g>
       <use xlink:href="#mdca3ca13a7" x="1023.048125" y="255.558125" style="stroke: #000000; stroke-width: 0.8"/>
      </g>
     </g>
     <g id="text_28">
      <!-- 98 -->
      <g transform="translate(1016.685625 270.156563) scale(0.1 -0.1)">
       <use xlink:href="#DejaVuSans-39"/>
       <use xlink:href="#DejaVuSans-38" transform="translate(63.623047 0)"/>
      </g>
     </g>
    </g>
    <g id="xtick_12">
     <g id="line2d_39">
      <g>
       <use xlink:href="#mdca3ca13a7" x="1128.230625" y="255.558125" style="stroke: #000000; stroke-width: 0.8"/>
      </g>
     </g>
     <g id="text_29">
      <!-- 100 -->
      <g transform="translate(1118.686875 270.156563) scale(0.1 -0.1)">
       <use xlink:href="#DejaVuSans-31"/>
       <use xlink:href="#DejaVuSans-30" transform="translate(63.623047 0)"/>
       <use xlink:href="#DejaVuSans-30" transform="translate(127.246094 0)"/>
      </g>
     </g>
    </g>
   </g>
   <g id="matplotlib.axis_4">
    <g id="ytick_6">
     <g id="line2d_40">
      <g>
       <use xlink:href="#m80270172b2" x="602.318125" y="244.956307" style="stroke: #000000; stroke-width: 0.8"/>
      </g>
     </g>
     <g id="text_30">
      <!-- 0.00 -->
      <g transform="translate(573.0525 248.755526) scale(0.1 -0.1)">
       <use xlink:href="#DejaVuSans-30"/>
       <use xlink:href="#DejaVuSans-2e" transform="translate(63.623047 0)"/>
       <use xlink:href="#DejaVuSans-30" transform="translate(95.410156 0)"/>
       <use xlink:href="#DejaVuSans-30" transform="translate(159.033203 0)"/>
      </g>
     </g>
    </g>
    <g id="ytick_7">
     <g id="line2d_41">
      <g>
       <use xlink:href="#m80270172b2" x="602.318125" y="199.979324" style="stroke: #000000; stroke-width: 0.8"/>
      </g>
     </g>
     <g id="text_31">
      <!-- 0.01 -->
      <g transform="translate(573.0525 203.778542) scale(0.1 -0.1)">
       <use xlink:href="#DejaVuSans-30"/>
       <use xlink:href="#DejaVuSans-2e" transform="translate(63.623047 0)"/>
       <use xlink:href="#DejaVuSans-30" transform="translate(95.410156 0)"/>
       <use xlink:href="#DejaVuSans-31" transform="translate(159.033203 0)"/>
      </g>
     </g>
    </g>
    <g id="ytick_8">
     <g id="line2d_42">
      <g>
       <use xlink:href="#m80270172b2" x="602.318125" y="155.002341" style="stroke: #000000; stroke-width: 0.8"/>
      </g>
     </g>
     <g id="text_32">
      <!-- 0.02 -->
      <g transform="translate(573.0525 158.801559) scale(0.1 -0.1)">
       <use xlink:href="#DejaVuSans-30"/>
       <use xlink:href="#DejaVuSans-2e" transform="translate(63.623047 0)"/>
       <use xlink:href="#DejaVuSans-30" transform="translate(95.410156 0)"/>
       <use xlink:href="#DejaVuSans-32" transform="translate(159.033203 0)"/>
      </g>
     </g>
    </g>
    <g id="ytick_9">
     <g id="line2d_43">
      <g>
       <use xlink:href="#m80270172b2" x="602.318125" y="110.025358" style="stroke: #000000; stroke-width: 0.8"/>
      </g>
     </g>
     <g id="text_33">
      <!-- 0.03 -->
      <g transform="translate(573.0525 113.824576) scale(0.1 -0.1)">
       <use xlink:href="#DejaVuSans-30"/>
       <use xlink:href="#DejaVuSans-2e" transform="translate(63.623047 0)"/>
       <use xlink:href="#DejaVuSans-30" transform="translate(95.410156 0)"/>
       <use xlink:href="#DejaVuSans-33" transform="translate(159.033203 0)"/>
      </g>
     </g>
    </g>
    <g id="ytick_10">
     <g id="line2d_44">
      <g>
       <use xlink:href="#m80270172b2" x="602.318125" y="65.048374" style="stroke: #000000; stroke-width: 0.8"/>
      </g>
     </g>
     <g id="text_34">
      <!-- 0.04 -->
      <g transform="translate(573.0525 68.847593) scale(0.1 -0.1)">
       <use xlink:href="#DejaVuSans-30"/>
       <use xlink:href="#DejaVuSans-2e" transform="translate(63.623047 0)"/>
       <use xlink:href="#DejaVuSans-30" transform="translate(95.410156 0)"/>
       <use xlink:href="#DejaVuSans-34" transform="translate(159.033203 0)"/>
      </g>
     </g>
    </g>
   </g>
   <g id="line2d_45">
    <path d="M -1 224.177618 
L 23.814375 222.695591 
L 50.11 224.403546 
L 76.405625 224.624301 
L 102.70125 224.0778 
L 128.996875 223.978895 
L 155.2925 221.340524 
L 181.588125 221.866486 
L 207.88375 221.511825 
L 234.179375 221.744017 
L 260.475 222.210557 
L 286.770625 220.883176 
L 313.06625 222.561643 
L 339.361875 220.014513 
L 365.6575 218.964448 
L 391.953125 217.367815 
L 418.24875 217.967745 
L 444.544375 216.181901 
L 470.84 216.523324 
L 497.135625 215.568885 
L 523.43125 217.961699 
L 549.726875 215.718005 
L 576.0225 220.269716 
L 602.318125 219.02386 
L 628.61375 214.087389 
L 654.909375 216.099024 
L 681.205 215.140803 
L 707.500625 215.941799 
L 733.79625 211.713728 
L 760.091875 213.386369 
L 786.3875 211.153395 
L 812.683125 210.131523 
L 838.97875 207.69739 
L 865.274375 200.270436 
L 891.57 202.875712 
L 944.16125 197.053538 
L 970.456875 196.499443 
L 996.7525 170.449494 
L 1023.048125 180.348935 
L 1049.34375 182.727894 
L 1075.639375 175.861714 
L 1101.935 153.082773 
L 1128.230625 34.709817 
L 1128.230625 34.709817 
" clip-path="url(#p26122f840d)" style="fill: none; stroke: #1f77b4; stroke-width: 1.5; stroke-linecap: square"/>
   </g>
   <g id="line2d_46">
    <path d="M -1 242.722198 
L 23.814375 242.591165 
L 50.11 242.24495 
L 76.405625 242.3555 
L 128.996875 241.73053 
L 155.2925 241.556148 
L 207.88375 240.585911 
L 234.179375 240.370326 
L 260.475 238.736706 
L 286.770625 238.314742 
L 313.06625 237.519446 
L 339.361875 236.442518 
L 391.953125 236.193115 
L 418.24875 232.851183 
L 444.544375 232.727038 
L 470.84 233.134407 
L 497.135625 232.015459 
L 523.43125 229.419557 
L 576.0225 229.140973 
L 602.318125 223.250367 
L 654.909375 222.922401 
L 681.205 222.573566 
L 707.500625 232.840707 
L 733.79625 230.278412 
L 760.091875 227.516122 
L 786.3875 224.126594 
L 812.683125 219.924058 
L 838.97875 214.942954 
L 865.274375 209.244105 
L 891.57 202.610107 
L 917.865625 194.92024 
L 944.16125 186.228568 
L 970.456875 176.209999 
L 996.7525 164.634049 
L 1023.048125 151.245947 
L 1049.34375 134.865902 
L 1075.639375 113.870468 
L 1101.935 83.762554 
L 1128.230625 34.946867 
L 1128.230625 34.946867 
" clip-path="url(#p26122f840d)" style="fill: none; stroke: #ff7f0e; stroke-width: 1.5; stroke-linecap: square"/>
   </g>
   <g id="line2d_47">
    <path d="M -1 241.332971 
L 76.405625 241.238732 
L 102.70125 240.486802 
L 128.996875 238.731303 
L 155.2925 238.686282 
L 181.588125 237.796681 
L 207.88375 235.008933 
L 234.179375 237.695322 
L 260.475 237.430545 
L 286.770625 237.024538 
L 313.06625 236.957094 
L 339.361875 236.499586 
L 418.24875 236.255442 
L 444.544375 235.264041 
L 470.84 236.048508 
L 497.135625 235.702439 
L 523.43125 231.247544 
L 549.726875 234.526367 
L 576.0225 230.10849 
L 602.318125 229.939305 
L 628.61375 218.972165 
L 681.205 218.600081 
L 707.500625 217.507824 
L 733.79625 204.814464 
L 760.091875 208.102956 
L 812.683125 207.537039 
L 838.97875 213.001033 
L 865.274375 213.893698 
L 891.57 206.562804 
L 917.865625 212.712167 
L 944.16125 209.401668 
L 970.456875 195.992099 
L 996.7525 107.255607 
L 1023.048125 222.211076 
L 1049.34375 208.392743 
L 1075.639375 183.126522 
L 1101.935 139.106048 
L 1128.230625 35.607575 
L 1128.230625 35.607575 
" clip-path="url(#p26122f840d)" style="fill: none; stroke: #2ca02c; stroke-width: 1.5; stroke-linecap: square"/>
   </g>
   <g id="line2d_48">
    <path d="M -1 241.280371 
L 102.70125 241.156431 
L 128.996875 241.42973 
L 155.2925 237.51719 
L 207.88375 237.428051 
L 234.179375 233.512625 
L 260.475 237.39969 
L 286.770625 237.342673 
L 313.06625 236.933631 
L 470.84 236.434702 
L 523.43125 235.567933 
L 549.726875 231.079921 
L 576.0225 227.90722 
L 602.318125 227.73854 
L 628.61375 231.916833 
L 654.909375 231.709741 
L 681.205 221.329819 
L 707.500625 221.109481 
L 733.79625 221.569935 
L 760.091875 220.539897 
L 786.3875 207.310047 
L 812.683125 210.248735 
L 865.274375 209.328617 
L 891.57 208.473791 
L 917.865625 211.124796 
L 944.16125 211.477702 
L 970.456875 208.319225 
L 996.7525 197.144212 
L 1023.048125 199.223006 
L 1049.34375 187.259182 
L 1075.639375 205.519648 
L 1101.935 200.792127 
L 1128.230625 37.555473 
L 1128.230625 37.555473 
" clip-path="url(#p26122f840d)" style="fill: none; stroke: #d62728; stroke-width: 1.5; stroke-linecap: square"/>
   </g>
   <g id="line2d_49">
    <path d="M -1 239.237063 
L 50.11 239.305902 
L 76.405625 239.325576 
L 102.70125 237.102897 
L 128.996875 233.084518 
L 181.588125 232.916784 
L 207.88375 228.296538 
L 234.179375 229.141403 
L 260.475 228.575826 
L 286.770625 229.059908 
L 313.06625 228.994204 
L 339.361875 222.651291 
L 365.6575 222.161811 
L 391.953125 221.829229 
L 418.24875 225.203038 
L 444.544375 222.21101 
L 470.84 216.71617 
L 497.135625 217.071114 
L 523.43125 215.526624 
L 549.726875 210.097086 
L 576.0225 207.57296 
L 602.318125 208.383494 
L 654.909375 196.005204 
L 681.205 187.744845 
L 707.500625 168.844713 
L 733.79625 169.69669 
L 760.091875 174.557819 
L 786.3875 166.836958 
L 812.683125 142.922333 
L 838.97875 122.463214 
L 865.274375 124.167883 
L 891.57 126.639808 
L 917.865625 127.556918 
L 944.16125 127.971291 
L 970.456875 118.729174 
L 996.7525 92.685772 
L 1023.048125 77.293009 
L 1049.34375 86.746021 
L 1075.639375 51.840542 
L 1101.935 32.919943 
L 1128.230625 66.894724 
L 1128.230625 66.894724 
" clip-path="url(#p26122f840d)" style="fill: none; stroke: #9467bd; stroke-width: 1.5; stroke-linecap: square"/>
   </g>
   <g id="line2d_50">
    <path d="M -1 242.608176 
L 23.814375 241.752982 
L 50.11 241.737672 
L 76.405625 240.701019 
L 102.70125 240.881167 
L 128.996875 240.770382 
L 155.2925 238.689979 
L 181.588125 238.66442 
L 207.88375 237.98501 
L 234.179375 237.800335 
L 260.475 238.118076 
L 313.06625 238.191413 
L 339.361875 237.477612 
L 365.6575 234.476606 
L 418.24875 234.38046 
L 444.544375 234.181321 
L 470.84 234.24926 
L 497.135625 234.008183 
L 523.43125 233.911359 
L 549.726875 230.422681 
L 576.0225 230.3581 
L 602.318125 232.963782 
L 628.61375 233.544729 
L 654.909375 233.43544 
L 681.205 232.374373 
L 707.500625 229.7238 
L 733.79625 227.861746 
L 760.091875 226.24768 
L 786.3875 227.112347 
L 812.683125 217.61331 
L 838.97875 218.051503 
L 865.274375 217.556119 
L 891.57 207.777073 
L 917.865625 208.239762 
L 944.16125 177.730002 
L 970.456875 207.892445 
L 996.7525 190.016693 
L 1023.048125 147.898908 
L 1049.34375 122.026272 
L 1075.639375 87.10118 
L 1101.935 67.970378 
L 1128.230625 57.565542 
L 1128.230625 57.565542 
" clip-path="url(#p26122f840d)" style="fill: none; stroke: #8c564b; stroke-width: 1.5; stroke-linecap: square"/>
   </g>
   <g id="line2d_51">
    <path d="M -1 242.187693 
L 50.11 242.183719 
L 76.405625 241.705092 
L 102.70125 241.684827 
L 128.996875 241.214973 
L 155.2925 241.191692 
L 181.588125 241.363392 
L 207.88375 239.562636 
L 234.179375 239.529904 
L 260.475 237.833308 
L 286.770625 237.643494 
L 313.06625 237.958465 
L 339.361875 238.053654 
L 391.953125 238.098837 
L 418.24875 234.683456 
L 444.544375 234.453992 
L 470.84 234.406432 
L 497.135625 234.20956 
L 523.43125 234.262904 
L 549.726875 234.008345 
L 576.0225 232.333096 
L 628.61375 231.476067 
L 654.909375 231.489316 
L 681.205 233.161714 
L 707.500625 233.15982 
L 733.79625 230.139598 
L 760.091875 225.917765 
L 786.3875 225.738883 
L 838.97875 219.29246 
L 865.274375 208.832065 
L 891.57 209.016498 
L 917.865625 208.458032 
L 944.16125 211.322375 
L 970.456875 211.710346 
L 996.7525 200.324114 
L 1023.048125 195.335483 
L 1049.34375 213.419612 
L 1075.639375 208.871761 
L 1101.935 168.83117 
L 1128.230625 53.877864 
L 1128.230625 53.877864 
" clip-path="url(#p26122f840d)" style="fill: none; stroke: #e377c2; stroke-width: 1.5; stroke-linecap: square"/>
   </g>
   <g id="line2d_52">
    <path d="M -1 240.147291 
L 23.814375 239.584834 
L 50.11 237.83708 
L 102.70125 237.775345 
L 128.996875 237.434797 
L 181.588125 237.432002 
L 207.88375 237.601643 
L 234.179375 237.136492 
L 260.475 237.090238 
L 286.770625 236.741721 
L 313.06625 235.309831 
L 339.361875 228.614122 
L 365.6575 228.597707 
L 391.953125 228.371746 
L 418.24875 227.549942 
L 444.544375 228.100395 
L 470.84 226.315678 
L 497.135625 226.300538 
L 523.43125 221.51052 
L 549.726875 224.208778 
L 576.0225 220.652738 
L 602.318125 215.207114 
L 628.61375 208.182625 
L 654.909375 176.190765 
L 681.205 174.571534 
L 707.500625 175.526507 
L 733.79625 184.916773 
L 760.091875 191.085084 
L 786.3875 191.705283 
L 812.683125 198.933903 
L 838.97875 187.398045 
L 865.274375 187.04355 
L 891.57 181.189176 
L 917.865625 164.802706 
L 944.16125 167.423935 
L 970.456875 166.271052 
L 996.7525 157.602679 
L 1023.048125 148.771283 
L 1049.34375 137.911243 
L 1075.639375 133.292521 
L 1101.935 116.046139 
L 1128.230625 97.353475 
L 1128.230625 97.353475 
" clip-path="url(#p26122f840d)" style="fill: none; stroke: #7f7f7f; stroke-width: 1.5; stroke-linecap: square"/>
   </g>
   <g id="line2d_53">
    <path d="M -1 243.366864 
L 76.405625 243.26305 
L 102.70125 242.382183 
L 128.996875 242.390055 
L 155.2925 242.203208 
L 181.588125 242.389408 
L 207.88375 241.977721 
L 234.179375 242.02467 
L 260.475 241.803931 
L 286.770625 241.812771 
L 313.06625 239.061864 
L 339.361875 238.910718 
L 365.6575 238.875166 
L 391.953125 238.357856 
L 418.24875 238.098351 
L 444.544375 237.467208 
L 470.84 237.309391 
L 523.43125 237.570564 
L 549.726875 237.378781 
L 576.0225 235.703076 
L 602.318125 236.451659 
L 628.61375 235.875652 
L 654.909375 230.711198 
L 681.205 233.97271 
L 707.500625 233.523946 
L 733.79625 232.594007 
L 760.091875 232.349072 
L 786.3875 231.292131 
L 812.683125 226.911544 
L 838.97875 224.031535 
L 865.274375 213.125077 
L 891.57 221.410967 
L 917.865625 219.635244 
L 944.16125 218.119762 
L 970.456875 178.542854 
L 996.7525 167.895348 
L 1023.048125 172.09677 
L 1049.34375 195.08983 
L 1075.639375 170.093336 
L 1101.935 102.110901 
L 1128.230625 100.056505 
L 1128.230625 100.056505 
" clip-path="url(#p26122f840d)" style="fill: none; stroke: #bcbd22; stroke-width: 1.5; stroke-linecap: square"/>
   </g>
   <g id="line2d_54">
    <path d="M -1 243.434534 
L 23.814375 243.574895 
L 50.11 243.485523 
L 76.405625 243.162501 
L 155.2925 243.390246 
L 181.588125 242.473329 
L 207.88375 242.21986 
L 286.770625 242.334794 
L 313.06625 241.816682 
L 339.361875 241.89701 
L 365.6575 241.773153 
L 391.953125 238.956542 
L 418.24875 238.800355 
L 444.544375 239.094543 
L 497.135625 237.902353 
L 523.43125 237.845286 
L 549.726875 237.462454 
L 576.0225 237.485603 
L 602.318125 237.378693 
L 628.61375 235.167206 
L 654.909375 235.388751 
L 681.205 235.156827 
L 707.500625 234.2551 
L 733.79625 234.178658 
L 760.091875 231.925515 
L 786.3875 230.058747 
L 812.683125 230.111645 
L 838.97875 222.192421 
L 865.274375 228.499413 
L 891.57 227.209339 
L 917.865625 213.72074 
L 944.16125 215.475143 
L 970.456875 225.026755 
L 996.7525 204.779786 
L 1023.048125 207.173278 
L 1049.34375 185.671591 
L 1075.639375 185.074894 
L 1101.935 71.267298 
L 1128.230625 101.724535 
L 1128.230625 101.724535 
" clip-path="url(#p26122f840d)" style="fill: none; stroke: #17becf; stroke-width: 1.5; stroke-linecap: square"/>
   </g>
   <g id="patch_9">
    <path d="M 602.318125 255.558125 
L 602.318125 22.318125 
" style="fill: none; stroke: #000000; stroke-width: 0.8; stroke-linejoin: miter; stroke-linecap: square"/>
   </g>
   <g id="patch_10">
    <path d="M 1128.230625 255.558125 
L 1128.230625 22.318125 
" style="fill: none; stroke: #000000; stroke-width: 0.8; stroke-linejoin: miter; stroke-linecap: square"/>
   </g>
   <g id="patch_11">
    <path d="M 602.318125 255.558125 
L 1128.230625 255.558125 
" style="fill: none; stroke: #000000; stroke-width: 0.8; stroke-linejoin: miter; stroke-linecap: square"/>
   </g>
   <g id="patch_12">
    <path d="M 602.318125 22.318125 
L 1128.230625 22.318125 
" style="fill: none; stroke: #000000; stroke-width: 0.8; stroke-linejoin: miter; stroke-linecap: square"/>
   </g>
   <g id="text_35">
    <!-- Zoomed In (90-100%) -->
    <g transform="translate(799.455312 16.318125) scale(0.12 -0.12)">
     <defs>
      <path id="DejaVuSans-5a" d="M 359 4666 
L 4025 4666 
L 4025 4184 
L 1075 531 
L 4097 531 
L 4097 0 
L 288 0 
L 288 481 
L 3238 4134 
L 359 4134 
L 359 4666 
z
" transform="scale(0.015625)"/>
      <path id="DejaVuSans-49" d="M 628 4666 
L 1259 4666 
L 1259 0 
L 628 0 
L 628 4666 
z
" transform="scale(0.015625)"/>
      <path id="DejaVuSans-2d" d="M 313 2009 
L 1997 2009 
L 1997 1497 
L 313 1497 
L 313 2009 
z
" transform="scale(0.015625)"/>
     </defs>
     <use xlink:href="#DejaVuSans-5a"/>
     <use xlink:href="#DejaVuSans-6f" transform="translate(68.505859 0)"/>
     <use xlink:href="#DejaVuSans-6f" transform="translate(129.6875 0)"/>
     <use xlink:href="#DejaVuSans-6d" transform="translate(190.869141 0)"/>
     <use xlink:href="#DejaVuSans-65" transform="translate(288.28125 0)"/>
     <use xlink:href="#DejaVuSans-64" transform="translate(349.804688 0)"/>
     <use xlink:href="#DejaVuSans-20" transform="translate(413.28125 0)"/>
     <use xlink:href="#DejaVuSans-49" transform="translate(445.068359 0)"/>
     <use xlink:href="#DejaVuSans-6e" transform="translate(474.560547 0)"/>
     <use xlink:href="#DejaVuSans-20" transform="translate(537.939453 0)"/>
     <use xlink:href="#DejaVuSans-28" transform="translate(569.726562 0)"/>
     <use xlink:href="#DejaVuSans-39" transform="translate(608.740234 0)"/>
     <use xlink:href="#DejaVuSans-30" transform="translate(672.363281 0)"/>
     <use xlink:href="#DejaVuSans-2d" transform="translate(735.986328 0)"/>
     <use xlink:href="#DejaVuSans-31" transform="translate(772.070312 0)"/>
     <use xlink:href="#DejaVuSans-30" transform="translate(835.693359 0)"/>
     <use xlink:href="#DejaVuSans-30" transform="translate(899.316406 0)"/>
     <use xlink:href="#DejaVuSans-25" transform="translate(962.939453 0)"/>
     <use xlink:href="#DejaVuSans-29" transform="translate(1057.958984 0)"/>
    </g>
   </g>
   <g id="legend_2">
    <g id="patch_13">
     <path d="M 609.318125 177.099375 
L 736.991562 177.099375 
Q 738.991562 177.099375 738.991562 175.099375 
L 738.991562 29.318125 
Q 738.991562 27.318125 736.991562 27.318125 
L 609.318125 27.318125 
Q 607.318125 27.318125 607.318125 29.318125 
L 607.318125 175.099375 
Q 607.318125 177.099375 609.318125 177.099375 
z
" style="fill: #ffffff; opacity: 0.8; stroke: #cccccc; stroke-linejoin: miter"/>
    </g>
    <g id="line2d_55">
     <path d="M 611.318125 35.416562 
L 621.318125 35.416562 
L 631.318125 35.416562 
" style="fill: none; stroke: #1f77b4; stroke-width: 1.5; stroke-linecap: square"/>
    </g>
    <g id="text_36">
     <!-- fft MSE -->
     <g transform="translate(639.318125 38.916562) scale(0.1 -0.1)">
      <use xlink:href="#DejaVuSans-66"/>
      <use xlink:href="#DejaVuSans-66" transform="translate(35.205078 0)"/>
      <use xlink:href="#DejaVuSans-74" transform="translate(68.660156 0)"/>
      <use xlink:href="#DejaVuSans-20" transform="translate(107.869141 0)"/>
      <use xlink:href="#DejaVuSans-4d" transform="translate(139.65625 0)"/>
      <use xlink:href="#DejaVuSans-53" transform="translate(225.935547 0)"/>
      <use xlink:href="#DejaVuSans-45" transform="translate(289.412109 0)"/>
     </g>
    </g>
    <g id="line2d_56">
     <path d="M 611.318125 50.094688 
L 621.318125 50.094688 
L 631.318125 50.094688 
" style="fill: none; stroke: #ff7f0e; stroke-width: 1.5; stroke-linecap: square"/>
    </g>
    <g id="text_37">
     <!-- haar MSE (Level 1) -->
     <g transform="translate(639.318125 53.594688) scale(0.1 -0.1)">
      <use xlink:href="#DejaVuSans-68"/>
      <use xlink:href="#DejaVuSans-61" transform="translate(63.378906 0)"/>
      <use xlink:href="#DejaVuSans-61" transform="translate(124.658203 0)"/>
      <use xlink:href="#DejaVuSans-72" transform="translate(185.9375 0)"/>
      <use xlink:href="#DejaVuSans-20" transform="translate(227.050781 0)"/>
      <use xlink:href="#DejaVuSans-4d" transform="translate(258.837891 0)"/>
      <use xlink:href="#DejaVuSans-53" transform="translate(345.117188 0)"/>
      <use xlink:href="#DejaVuSans-45" transform="translate(408.59375 0)"/>
      <use xlink:href="#DejaVuSans-20" transform="translate(471.777344 0)"/>
      <use xlink:href="#DejaVuSans-28" transform="translate(503.564453 0)"/>
      <use xlink:href="#DejaVuSans-4c" transform="translate(542.578125 0)"/>
      <use xlink:href="#DejaVuSans-65" transform="translate(596.541016 0)"/>
      <use xlink:href="#DejaVuSans-76" transform="translate(658.064453 0)"/>
      <use xlink:href="#DejaVuSans-65" transform="translate(717.244141 0)"/>
      <use xlink:href="#DejaVuSans-6c" transform="translate(778.767578 0)"/>
      <use xlink:href="#DejaVuSans-20" transform="translate(806.550781 0)"/>
      <use xlink:href="#DejaVuSans-31" transform="translate(838.337891 0)"/>
      <use xlink:href="#DejaVuSans-29" transform="translate(901.960938 0)"/>
     </g>
    </g>
    <g id="line2d_57">
     <path d="M 611.318125 64.772813 
L 621.318125 64.772813 
L 631.318125 64.772813 
" style="fill: none; stroke: #2ca02c; stroke-width: 1.5; stroke-linecap: square"/>
    </g>
    <g id="text_38">
     <!-- haar MSE (Level 2) -->
     <g transform="translate(639.318125 68.272813) scale(0.1 -0.1)">
      <use xlink:href="#DejaVuSans-68"/>
      <use xlink:href="#DejaVuSans-61" transform="translate(63.378906 0)"/>
      <use xlink:href="#DejaVuSans-61" transform="translate(124.658203 0)"/>
      <use xlink:href="#DejaVuSans-72" transform="translate(185.9375 0)"/>
      <use xlink:href="#DejaVuSans-20" transform="translate(227.050781 0)"/>
      <use xlink:href="#DejaVuSans-4d" transform="translate(258.837891 0)"/>
      <use xlink:href="#DejaVuSans-53" transform="translate(345.117188 0)"/>
      <use xlink:href="#DejaVuSans-45" transform="translate(408.59375 0)"/>
      <use xlink:href="#DejaVuSans-20" transform="translate(471.777344 0)"/>
      <use xlink:href="#DejaVuSans-28" transform="translate(503.564453 0)"/>
      <use xlink:href="#DejaVuSans-4c" transform="translate(542.578125 0)"/>
      <use xlink:href="#DejaVuSans-65" transform="translate(596.541016 0)"/>
      <use xlink:href="#DejaVuSans-76" transform="translate(658.064453 0)"/>
      <use xlink:href="#DejaVuSans-65" transform="translate(717.244141 0)"/>
      <use xlink:href="#DejaVuSans-6c" transform="translate(778.767578 0)"/>
      <use xlink:href="#DejaVuSans-20" transform="translate(806.550781 0)"/>
      <use xlink:href="#DejaVuSans-32" transform="translate(838.337891 0)"/>
      <use xlink:href="#DejaVuSans-29" transform="translate(901.960938 0)"/>
     </g>
    </g>
    <g id="line2d_58">
     <path d="M 611.318125 79.450938 
L 621.318125 79.450938 
L 631.318125 79.450938 
" style="fill: none; stroke: #d62728; stroke-width: 1.5; stroke-linecap: square"/>
    </g>
    <g id="text_39">
     <!-- haar MSE (Level 3) -->
     <g transform="translate(639.318125 82.950938) scale(0.1 -0.1)">
      <use xlink:href="#DejaVuSans-68"/>
      <use xlink:href="#DejaVuSans-61" transform="translate(63.378906 0)"/>
      <use xlink:href="#DejaVuSans-61" transform="translate(124.658203 0)"/>
      <use xlink:href="#DejaVuSans-72" transform="translate(185.9375 0)"/>
      <use xlink:href="#DejaVuSans-20" transform="translate(227.050781 0)"/>
      <use xlink:href="#DejaVuSans-4d" transform="translate(258.837891 0)"/>
      <use xlink:href="#DejaVuSans-53" transform="translate(345.117188 0)"/>
      <use xlink:href="#DejaVuSans-45" transform="translate(408.59375 0)"/>
      <use xlink:href="#DejaVuSans-20" transform="translate(471.777344 0)"/>
      <use xlink:href="#DejaVuSans-28" transform="translate(503.564453 0)"/>
      <use xlink:href="#DejaVuSans-4c" transform="translate(542.578125 0)"/>
      <use xlink:href="#DejaVuSans-65" transform="translate(596.541016 0)"/>
      <use xlink:href="#DejaVuSans-76" transform="translate(658.064453 0)"/>
      <use xlink:href="#DejaVuSans-65" transform="translate(717.244141 0)"/>
      <use xlink:href="#DejaVuSans-6c" transform="translate(778.767578 0)"/>
      <use xlink:href="#DejaVuSans-20" transform="translate(806.550781 0)"/>
      <use xlink:href="#DejaVuSans-33" transform="translate(838.337891 0)"/>
      <use xlink:href="#DejaVuSans-29" transform="translate(901.960938 0)"/>
     </g>
    </g>
    <g id="line2d_59">
     <path d="M 611.318125 94.129063 
L 621.318125 94.129063 
L 631.318125 94.129063 
" style="fill: none; stroke: #9467bd; stroke-width: 1.5; stroke-linecap: square"/>
    </g>
    <g id="text_40">
     <!-- db4 MSE (Level 1) -->
     <g transform="translate(639.318125 97.629063) scale(0.1 -0.1)">
      <use xlink:href="#DejaVuSans-64"/>
      <use xlink:href="#DejaVuSans-62" transform="translate(63.476562 0)"/>
      <use xlink:href="#DejaVuSans-34" transform="translate(126.953125 0)"/>
      <use xlink:href="#DejaVuSans-20" transform="translate(190.576172 0)"/>
      <use xlink:href="#DejaVuSans-4d" transform="translate(222.363281 0)"/>
      <use xlink:href="#DejaVuSans-53" transform="translate(308.642578 0)"/>
      <use xlink:href="#DejaVuSans-45" transform="translate(372.119141 0)"/>
      <use xlink:href="#DejaVuSans-20" transform="translate(435.302734 0)"/>
      <use xlink:href="#DejaVuSans-28" transform="translate(467.089844 0)"/>
      <use xlink:href="#DejaVuSans-4c" transform="translate(506.103516 0)"/>
      <use xlink:href="#DejaVuSans-65" transform="translate(560.066406 0)"/>
      <use xlink:href="#DejaVuSans-76" transform="translate(621.589844 0)"/>
      <use xlink:href="#DejaVuSans-65" transform="translate(680.769531 0)"/>
      <use xlink:href="#DejaVuSans-6c" transform="translate(742.292969 0)"/>
      <use xlink:href="#DejaVuSans-20" transform="translate(770.076172 0)"/>
      <use xlink:href="#DejaVuSans-31" transform="translate(801.863281 0)"/>
      <use xlink:href="#DejaVuSans-29" transform="translate(865.486328 0)"/>
     </g>
    </g>
    <g id="line2d_60">
     <path d="M 611.318125 108.807187 
L 621.318125 108.807187 
L 631.318125 108.807187 
" style="fill: none; stroke: #8c564b; stroke-width: 1.5; stroke-linecap: square"/>
    </g>
    <g id="text_41">
     <!-- db4 MSE (Level 2) -->
     <g transform="translate(639.318125 112.307187) scale(0.1 -0.1)">
      <use xlink:href="#DejaVuSans-64"/>
      <use xlink:href="#DejaVuSans-62" transform="translate(63.476562 0)"/>
      <use xlink:href="#DejaVuSans-34" transform="translate(126.953125 0)"/>
      <use xlink:href="#DejaVuSans-20" transform="translate(190.576172 0)"/>
      <use xlink:href="#DejaVuSans-4d" transform="translate(222.363281 0)"/>
      <use xlink:href="#DejaVuSans-53" transform="translate(308.642578 0)"/>
      <use xlink:href="#DejaVuSans-45" transform="translate(372.119141 0)"/>
      <use xlink:href="#DejaVuSans-20" transform="translate(435.302734 0)"/>
      <use xlink:href="#DejaVuSans-28" transform="translate(467.089844 0)"/>
      <use xlink:href="#DejaVuSans-4c" transform="translate(506.103516 0)"/>
      <use xlink:href="#DejaVuSans-65" transform="translate(560.066406 0)"/>
      <use xlink:href="#DejaVuSans-76" transform="translate(621.589844 0)"/>
      <use xlink:href="#DejaVuSans-65" transform="translate(680.769531 0)"/>
      <use xlink:href="#DejaVuSans-6c" transform="translate(742.292969 0)"/>
      <use xlink:href="#DejaVuSans-20" transform="translate(770.076172 0)"/>
      <use xlink:href="#DejaVuSans-32" transform="translate(801.863281 0)"/>
      <use xlink:href="#DejaVuSans-29" transform="translate(865.486328 0)"/>
     </g>
    </g>
    <g id="line2d_61">
     <path d="M 611.318125 123.485313 
L 621.318125 123.485313 
L 631.318125 123.485313 
" style="fill: none; stroke: #e377c2; stroke-width: 1.5; stroke-linecap: square"/>
    </g>
    <g id="text_42">
     <!-- db4 MSE (Level 3) -->
     <g transform="translate(639.318125 126.985313) scale(0.1 -0.1)">
      <use xlink:href="#DejaVuSans-64"/>
      <use xlink:href="#DejaVuSans-62" transform="translate(63.476562 0)"/>
      <use xlink:href="#DejaVuSans-34" transform="translate(126.953125 0)"/>
      <use xlink:href="#DejaVuSans-20" transform="translate(190.576172 0)"/>
      <use xlink:href="#DejaVuSans-4d" transform="translate(222.363281 0)"/>
      <use xlink:href="#DejaVuSans-53" transform="translate(308.642578 0)"/>
      <use xlink:href="#DejaVuSans-45" transform="translate(372.119141 0)"/>
      <use xlink:href="#DejaVuSans-20" transform="translate(435.302734 0)"/>
      <use xlink:href="#DejaVuSans-28" transform="translate(467.089844 0)"/>
      <use xlink:href="#DejaVuSans-4c" transform="translate(506.103516 0)"/>
      <use xlink:href="#DejaVuSans-65" transform="translate(560.066406 0)"/>
      <use xlink:href="#DejaVuSans-76" transform="translate(621.589844 0)"/>
      <use xlink:href="#DejaVuSans-65" transform="translate(680.769531 0)"/>
      <use xlink:href="#DejaVuSans-6c" transform="translate(742.292969 0)"/>
      <use xlink:href="#DejaVuSans-20" transform="translate(770.076172 0)"/>
      <use xlink:href="#DejaVuSans-33" transform="translate(801.863281 0)"/>
      <use xlink:href="#DejaVuSans-29" transform="translate(865.486328 0)"/>
     </g>
    </g>
    <g id="line2d_62">
     <path d="M 611.318125 138.163437 
L 621.318125 138.163437 
L 631.318125 138.163437 
" style="fill: none; stroke: #7f7f7f; stroke-width: 1.5; stroke-linecap: square"/>
    </g>
    <g id="text_43">
     <!-- coif3 MSE (Level 1) -->
     <g transform="translate(639.318125 141.663437) scale(0.1 -0.1)">
      <use xlink:href="#DejaVuSans-63"/>
      <use xlink:href="#DejaVuSans-6f" transform="translate(54.980469 0)"/>
      <use xlink:href="#DejaVuSans-69" transform="translate(116.162109 0)"/>
      <use xlink:href="#DejaVuSans-66" transform="translate(143.945312 0)"/>
      <use xlink:href="#DejaVuSans-33" transform="translate(179.150391 0)"/>
      <use xlink:href="#DejaVuSans-20" transform="translate(242.773438 0)"/>
      <use xlink:href="#DejaVuSans-4d" transform="translate(274.560547 0)"/>
      <use xlink:href="#DejaVuSans-53" transform="translate(360.839844 0)"/>
      <use xlink:href="#DejaVuSans-45" transform="translate(424.316406 0)"/>
      <use xlink:href="#DejaVuSans-20" transform="translate(487.5 0)"/>
      <use xlink:href="#DejaVuSans-28" transform="translate(519.287109 0)"/>
      <use xlink:href="#DejaVuSans-4c" transform="translate(558.300781 0)"/>
      <use xlink:href="#DejaVuSans-65" transform="translate(612.263672 0)"/>
      <use xlink:href="#DejaVuSans-76" transform="translate(673.787109 0)"/>
      <use xlink:href="#DejaVuSans-65" transform="translate(732.966797 0)"/>
      <use xlink:href="#DejaVuSans-6c" transform="translate(794.490234 0)"/>
      <use xlink:href="#DejaVuSans-20" transform="translate(822.273438 0)"/>
      <use xlink:href="#DejaVuSans-31" transform="translate(854.060547 0)"/>
      <use xlink:href="#DejaVuSans-29" transform="translate(917.683594 0)"/>
     </g>
    </g>
    <g id="line2d_63">
     <path d="M 611.318125 152.841563 
L 621.318125 152.841563 
L 631.318125 152.841563 
" style="fill: none; stroke: #bcbd22; stroke-width: 1.5; stroke-linecap: square"/>
    </g>
    <g id="text_44">
     <!-- coif3 MSE (Level 2) -->
     <g transform="translate(639.318125 156.341563) scale(0.1 -0.1)">
      <use xlink:href="#DejaVuSans-63"/>
      <use xlink:href="#DejaVuSans-6f" transform="translate(54.980469 0)"/>
      <use xlink:href="#DejaVuSans-69" transform="translate(116.162109 0)"/>
      <use xlink:href="#DejaVuSans-66" transform="translate(143.945312 0)"/>
      <use xlink:href="#DejaVuSans-33" transform="translate(179.150391 0)"/>
      <use xlink:href="#DejaVuSans-20" transform="translate(242.773438 0)"/>
      <use xlink:href="#DejaVuSans-4d" transform="translate(274.560547 0)"/>
      <use xlink:href="#DejaVuSans-53" transform="translate(360.839844 0)"/>
      <use xlink:href="#DejaVuSans-45" transform="translate(424.316406 0)"/>
      <use xlink:href="#DejaVuSans-20" transform="translate(487.5 0)"/>
      <use xlink:href="#DejaVuSans-28" transform="translate(519.287109 0)"/>
      <use xlink:href="#DejaVuSans-4c" transform="translate(558.300781 0)"/>
      <use xlink:href="#DejaVuSans-65" transform="translate(612.263672 0)"/>
      <use xlink:href="#DejaVuSans-76" transform="translate(673.787109 0)"/>
      <use xlink:href="#DejaVuSans-65" transform="translate(732.966797 0)"/>
      <use xlink:href="#DejaVuSans-6c" transform="translate(794.490234 0)"/>
      <use xlink:href="#DejaVuSans-20" transform="translate(822.273438 0)"/>
      <use xlink:href="#DejaVuSans-32" transform="translate(854.060547 0)"/>
      <use xlink:href="#DejaVuSans-29" transform="translate(917.683594 0)"/>
     </g>
    </g>
    <g id="line2d_64">
     <path d="M 611.318125 167.519687 
L 621.318125 167.519687 
L 631.318125 167.519687 
" style="fill: none; stroke: #17becf; stroke-width: 1.5; stroke-linecap: square"/>
    </g>
    <g id="text_45">
     <!-- coif3 MSE (Level 3) -->
     <g transform="translate(639.318125 171.019687) scale(0.1 -0.1)">
      <use xlink:href="#DejaVuSans-63"/>
      <use xlink:href="#DejaVuSans-6f" transform="translate(54.980469 0)"/>
      <use xlink:href="#DejaVuSans-69" transform="translate(116.162109 0)"/>
      <use xlink:href="#DejaVuSans-66" transform="translate(143.945312 0)"/>
      <use xlink:href="#DejaVuSans-33" transform="translate(179.150391 0)"/>
      <use xlink:href="#DejaVuSans-20" transform="translate(242.773438 0)"/>
      <use xlink:href="#DejaVuSans-4d" transform="translate(274.560547 0)"/>
      <use xlink:href="#DejaVuSans-53" transform="translate(360.839844 0)"/>
      <use xlink:href="#DejaVuSans-45" transform="translate(424.316406 0)"/>
      <use xlink:href="#DejaVuSans-20" transform="translate(487.5 0)"/>
      <use xlink:href="#DejaVuSans-28" transform="translate(519.287109 0)"/>
      <use xlink:href="#DejaVuSans-4c" transform="translate(558.300781 0)"/>
      <use xlink:href="#DejaVuSans-65" transform="translate(612.263672 0)"/>
      <use xlink:href="#DejaVuSans-76" transform="translate(673.787109 0)"/>
      <use xlink:href="#DejaVuSans-65" transform="translate(732.966797 0)"/>
      <use xlink:href="#DejaVuSans-6c" transform="translate(794.490234 0)"/>
      <use xlink:href="#DejaVuSans-20" transform="translate(822.273438 0)"/>
      <use xlink:href="#DejaVuSans-33" transform="translate(854.060547 0)"/>
      <use xlink:href="#DejaVuSans-29" transform="translate(917.683594 0)"/>
     </g>
    </g>
   </g>
  </g>
 </g>
 <defs>
  <clipPath id="p3eef418511">
   <rect x="36.465625" y="22.318125" width="525.9125" height="233.24"/>
  </clipPath>
  <clipPath id="p26122f840d">
   <rect x="602.318125" y="22.318125" width="525.9125" height="233.24"/>
  </clipPath>
 </defs>
</svg>
